<?xml version="1.0" standalone="no"?>
<!DOCTYPE svg PUBLIC "-//W3C//DTD SVG 1.1//EN" "http://www.w3.org/Graphics/SVG/1.1/DTD/svg11.dtd" >
<svg xmlns="http://www.w3.org/2000/svg">
<metadata></metadata>
<defs>
<font id="trixie-plainplain" horiz-adv-x="1126" >
<font-face units-per-em="2048" ascent="1638" descent="-410" />
<missing-glyph horiz-adv-x="500" />
<glyph unicode="&#xfb01;" d="M-109 33l9 26l18 19l-8 6v8l102 43h29l6 19l80 -45l27 12h24l25 43l12 76l6 155v13l8 6l-8 10v88l19 14l-25 88l6 62l-61 43h-25h-26l-19 -19h-78l-32 19l-13 -8l-43 32l-6 19v24l25 31l43 -12l43 -6h26l11 6l32 12h62l37 -31h6l26 31v25l11 8l-19 53l19 43v8l-11 7 l29 30v15l43 43v36h8l25 25h37l32 10l-8 8l43 25l27 -18h18v-15l17 -10l8 -8h10l-18 -25h-43l-19 -18l-6 8l-29 -27l-51 -24l-37 -25v-18h-6l-8 -45l-10 -62l10 -6l43 -43v-18l33 -19l55 6l43 31l33 -12l37 -6h24v-19l19 -18v-33l-99 -10l-6 -8v8h-37h-43l-26 10h-25 l-37 -37l19 -209l-6 -43l6 -8l18 -43l-18 -113l10 -10v-33l8 -98l51 10l11 9h24l19 -27l18 18h94l9 9l53 -33l18 -19v-98l-80 -43l-43 29h-8l-18 -19l8 -10h-76l-43 -8v8l-18 19l-56 -9l-75 -10l-19 -14l-6 6h-18v8l-19 19l-8 -9l-96 -18l-27 -6h-6l-12 -10l-17 16h-16 l-10 -6v6l-19 18l-49 9l-8 10zM381 33l10 61l45 27h49l27 18l123 -8h94v57l-14 31h-19l9 14h10l6 -8l27 43l-9 8l19 132l-10 34l-9 156h9l10 45l8 35v8l-27 25l-24 -6l-56 -52l-16 25l-27 27h-51l-18 -19h-43l-35 43l10 12l-10 7l-16 24l8 64h24v16l88 -16l11 6v-6l75 -9 l80 -10h19l8 -8l18 18l68 -10l37 -69v-199l6 -80v-61l-16 -33l10 -131l6 -43l18 -56v-6l19 -18l43 10l51 8h123l51 -8l25 -43l-6 -29v-8l18 -18l-12 -33l-17 -35l-45 -18l-86 -8v8l-33 18l-36 -8h-62h-57l-10 -10l-19 18l-45 -18h-76l-53 -25l-27 17l-16 18l-8 -10l-150 10 v8l-6 6l-10 -6l-45 6l-25 13zM545 1110l24 10l43 33l45 -43l25 -8l113 -96l-15 -95l-12 -8l-31 -29l-80 11l-8 8v53l25 70v24l-10 9l-15 36l-37 -8h-34l-15 15l-12 -7z" />
<glyph unicode="&#xfb02;" d="M-109 33l9 26l18 19l-8 6v8l102 43h29l6 19l80 -45l27 12h24l25 43l12 76l6 155v13l8 6l-8 10v88l19 14l-25 88l6 62l-61 43h-25h-26l-19 -19h-78l-32 19l-13 -8l-43 32l-6 19v24l25 31l43 -12l43 -6h26l11 6l32 12h62l37 -31h6l26 31v25l11 8l-19 53l19 43v8l-11 7 l29 30v15l43 43v36h8l25 25h37l32 10l-8 8l43 25l27 -18h18v-15l17 -10l8 -8h10l-18 -25h-43l-19 -18l-6 8l-29 -27l-51 -24l-37 -25v-18h-6l-8 -45l-10 -62l10 -6l43 -43v-18l33 -19l55 6l43 31l33 -12l37 -6h24v-19l19 -18v-33l-99 -10l-6 -8v8h-37h-43l-26 10h-25 l-37 -37l19 -209l-6 -43l6 -8l18 -43l-18 -113l10 -10v-33l8 -98l51 10l11 9h24l19 -27l18 18h94l9 9l53 -33l18 -19v-98l-80 -43l-43 29h-8l-18 -19l8 -10h-76l-43 -8v8l-18 19l-56 -9l-75 -10l-19 -14l-6 6h-18v8l-19 19l-8 -9l-96 -18l-27 -6h-6l-12 -10l-17 16h-16 l-10 -6v6l-19 18l-49 9l-8 10zM524 4l19 19l-11 10l19 33h10l14 36l80 -10l80 35l25 -6h26l37 43l15 14l-15 62l15 61l28 18v19l15 14l-52 56h-6v24l43 51l25 80l-10 94v11l-9 8h19l27 53l-19 14l-18 62h10v55l-10 174l-52 -18l-18 18h-104l-58 -28l6 10l-6 8h-12l-6 -8 l-70 33l-18 28v51l61 19l8 -12l6 18l160 -6v-12l15 -15l79 8l9 7h43l28 -15l27 -10l25 -51l-9 -174l-16 -43l16 -19l-16 -24v-56l6 -6v-69l19 -70l-19 -16l-6 -158l-12 -10l18 -19v-43l10 -6l-16 -18v-62l25 -88l-9 -6l9 -8l18 -55l18 -17h33l10 10l25 19l45 -43l43 -12 l6 12l80 14l45 -26l16 -33l-10 -29v-6l-69 -45h-35l-60 -16l-34 16l-45 -16l-35 16v8h-33l-27 -14l-10 6h-18v8l-113 10l-6 -10l-62 -8l-43 -16l-26 10h-19v6l-129 8zM545 1110l24 10l43 33l45 -43l25 -8l113 -96l-15 -95l-12 -8l-31 -29l-80 11l-8 8v53l25 70v24l-10 9 l-15 36l-37 -8h-34l-15 15l-12 -7z" />
<glyph horiz-adv-x="2048" />
<glyph horiz-adv-x="2048" />
<glyph unicode="&#xd;" />
<glyph unicode=" " />
<glyph unicode="!" d="M383 139l8 43l10 33h9l10 10v27h8l6 6v25h19l10 12l-6 -8l-8 12l4 2l10 -6l14 24l12 -6l17 15l94 -9l37 -18l8 -61l25 -33v-53l-19 -33l13 -55l-37 -25h-19l-8 -8h-123l-57 45v16l-10 8zM401 1008l19 32l-10 13h10l24 94l52 43l88 -8l16 -43l51 -72v-70l-24 -51l-9 -80 l-18 -24l18 -113l-10 -53l-8 -121l-6 -10l14 -15l-8 -28l8 -8l-14 -52l-19 -18l-69 8l-43 25v55l-19 86l-10 121l19 18v54v26l-19 17v51l-6 8l-18 35v26l10 11l-10 8z" />
<glyph unicode="&#x22;" d="M166 1153l33 8l24 19v-9l56 -18h18l49 43h27l10 -10l14 18l62 -24l45 -45l35 -7l8 -116l24 -25v-33l-43 -18l-14 18l-29 -10l-14 -18v-70l-18 -33l6 -10l18 -43l-24 -88l18 -18l-18 -43l-43 -25l-56 10l-8 8l-16 95l10 10v24l-18 19l18 18l-18 33v105l8 8l-33 43v141 l-18 18l-27 -18l-43 8zM608 926h6l13 -8l18 26h14l19 17l-8 8l-19 43l-24 12v49l-13 12l-6 58l37 18h25l8 10l35 15l69 -6l43 -9l19 -18l6 -68l12 -12l-18 -18v-94l-10 -62l-9 -86l-6 -8l15 -19l-9 -155h-6l-12 -25l-19 -18h-24l-25 -19l-18 9h-27l-6 43l-10 71l-27 45 l37 58l-10 10l-8 33l-11 -7v19l-32 24l-13 -8z" />
<glyph unicode="#" d="M-205 -307l25 76l26 26l11 43l51 62v37h6l12 30l43 64l25 61l37 35l14 27l37 86l2 8l-8 18l18 43l29 21l-4 4l33 18l-9 8l33 62v18l29 6h8l31 72l-27 27h-80l8 6v12l-8 6h-18l10 62l51 33l51 12l29 24l51 -8l17 -18l41 51l18 70l78 98l8 43l37 51v19h14l11 18l26 61 l25 15v10l-8 8h18l14 17l-6 51l25 43l10 -6l51 67v27l80 80h8l25 24v27l18 16l25 -6h18l43 -55l-6 -49l-10 -45l16 -19l-24 -30l-43 -37l6 -9l-33 -28l-10 -51l-25 -43l-8 8l-37 -33l-6 -98l-43 -43l-45 -88l-29 -15v-10l13 -8h-13l-14 -19v-24l-35 -43v-10l6 -9h-6l-8 -18 l-18 -14l36 -4l9 -7l18 19l68 6l12 10v-10h24l70 10l86 27l10 -10l13 16l18 70l78 98l8 43l37 51v19h14l11 18l26 61l25 15v10l-8 8h18l14 17l-6 51l25 43l10 -6l51 67v27l80 80h8l25 24v27l18 16l25 -6h18l43 -55l-6 -49l-10 -45l16 -19l-24 -30l-43 -37l6 -9l-33 -28 l-10 -51l-25 -43l-8 8l-37 -33l-6 -98l-43 -43l-45 -88l-29 -15v-10l13 -8h-13l-14 -19v-24l-35 -43v-10l6 -9h-6l-8 -18l-29 -25l11 -8h-11l6 -10v-25l-10 -26v-25l-51 -37h-16l-17 -32v-5l-14 -14v-29l-27 -47l39 -4l25 -43h37v-6l18 -12l25 -51l-9 -86l-61 -19l-10 -6 l-164 -37l-33 29v-4l-6 -33v-18l-8 8l-35 -43v-8l6 -11l-33 -32l-34 -99v-14l-52 -72l-12 -26l-33 -43l-16 -62l-27 -51l-35 -18l-32 -7l-99 -43v6l-32 11l6 8l-17 18v33l11 10l-19 19l25 76l26 26l11 43l51 62v37h6l12 30l43 64l25 61l37 35l14 27l2 6h-49l-61 -6v6l-68 18 l-8 -6h-11l-14 14l-37 -14l-49 2v-14l-6 -33v-18l-8 8l-35 -43v-8l6 -11l-33 -32l-34 -99v-14l-52 -72l-12 -26l-33 -43l-16 -62l-27 -51l-35 -18l-32 -7l-99 -43v6l-32 11l6 8l-17 18v33l11 10zM389 389h2l25 -12l26 -17l80 11l6 6v18l62 -6v-12l18 -17h47l33 62v18l29 6h8 l23 52l-52 10h-18l-27 -25l-71 6h-9l-6 13l-18 -27l-25 27l-55 -13l-18 19h-9l-4 -6v-13l-14 -14v-29z" />
<glyph unicode="$" d="M174 68l19 61l-13 43v18h13l14 52l-8 55l-6 49v80l14 27l61 -9v-10l62 -33v-43l24 -79h19v-19l61 -51h19l8 -37l78 -25v17v20l8 19l-17 33l17 40l-8 27v39l-9 2l13 35v31l4 22l-17 27l9 8l-11 27v38h2l5 31h4v12h-29l-57 33l-29 -8h-33l-10 8l-27 54l-43 8l-51 61l-10 8 h-14l6 11l-25 43v32l-24 37v62l-19 14l25 18v25h18l19 18l-11 11l17 14v31l8 -13l37 27v29l43 24l24 -10l43 29l13 -11l51 35l6 -10l37 29l18 -6l13 16l8 31l-4 4v31v22v27h4l4 28l22 19h9l22 -53h8l-12 -43v-5l8 -6l-12 -35v-28l8 -19l-4 -26l82 -11l51 -26h29l6 -25 l51 -43h10l9 62l10 43h51l25 -19l12 -61h-12l-33 -62l26 -43l-12 -32l19 -19l-7 -86v-12l-26 -25h-17l-26 62l-10 -8v26l-27 25l-6 43l-10 -6l-9 43l-18 8l-25 16h-10l-8 -10v10l-19 8l-24 19l-8 -8l-54 51l13 -17l-21 -49v-4l6 -6l-6 -20l-8 -9l10 -28l-2 -4l15 -33l-5 -14 l-4 -46h4l5 -112l-5 -25l84 -32l80 8l33 -25l43 -80h19v-8l36 -10l25 -60l-6 -10l33 -33l10 -34h-10v-88l10 -9h-10l-9 -10l25 -33l-6 9l-37 -107v-16h-6l-19 -52v-8l-18 -18l6 -10l-43 -15l-33 -43l-34 -18l-27 8h-25l-10 -8l-78 -8l-6 -11l-2 -20l-14 -2l-2 -17l-4 -2v-8 h-15l-4 -4l-24 -4l-23 27l-4 30v2l-25 25l-75 -8l-56 43l-30 18l-56 -37v-16h-94l-18 16zM303 895l27 -45l-19 -14l11 -54l32 -32l62 -29l8 10l37 -24v-13l6 -6h10l8 6l37 19l6 -6l9 6l-7 6l13 55l-23 60l-6 -3v19l33 39l-4 22l-21 13v14h6v27l-14 16l14 25v20l2 43h-20 l-33 -14l-10 -13l18 -18l-61 -25l-57 11v8l-19 18h-12v-26l12 -11l-18 -18v-25l-19 -18zM618 399l25 -47l-14 -26l8 -9l-2 -14l10 -18l-2 -13v-4l6 -8l4 -10l-8 -29l4 -10l8 -35l5 -12l-3 -4l54 6l32 51l37 19v16l33 33l-8 12l27 43l-19 33l37 37v6l-8 10h8l6 8l-14 25l8 12 l-37 33v10l-24 6l-107 45h-33l-24 17l2 -9l-2 -32l8 -9l-8 -30l2 -31h-2z" />
<glyph unicode="%" d="M-14 752l6 34l18 19v33l62 43v30l69 86l43 15l52 -6l18 18h25l10 6l61 10l15 -16l30 16h25l33 33l61 -6l43 43h18l9 8l34 17h27l35 45l18 43l15 18h30l58 49v27l10 10l-18 19l45 24h24l25 33l61 -14l45 -54v-18l-32 -33l-13 -43h-6l-24 -45v-25l-19 -18l-37 -18l-8 -43 l-10 -37l-6 -31l-9 -37l-28 -33v-18h-8l-19 -18v-44l-49 -69l-27 -35l-18 -33h-10l-6 -98l-9 -33l25 -37l70 19l51 33h28l15 18l61 -8l13 -10h14v-7l72 -8l24 -43l33 -55l18 -33l-6 -61v-54v-69l-12 10l-6 -10v-25l-8 6l-11 -32l-43 -68l-51 -31l-43 -43h-45l-16 -14 l-52 -10l-12 -8v8l-43 10l-61 25h-15v8l-10 10h-27v14l-16 13l-18 24l-15 19v32l-12 11l-6 26v17h6l18 63l9 43l10 6l-19 19l-36 -11l-15 -51h-16l-12 -18l-25 -19v-14l-27 -10l-34 -113l-15 -18l-12 -51h-18l-31 -43v-62l-27 -51l-71 -62l-9 -43l-6 -53v-26h-12l-16 -33 l-52 -37h-69l-11 37l-8 69v19l62 49l-11 8l29 56l27 86l33 18l10 57h6l12 29l25 8l8 86l61 37v43l50 51l12 -6l6 49v27h12l6 67l19 29h33l18 27l10 24v27h8l7 43l18 53l61 70l-6 8h6l9 25v28h10l8 27l35 31l33 98l43 61h12l18 45v7l-45 26l-18 -26l-10 8l-25 -45l-43 -31 h-18l-9 -27l-112 -10l-25 -33l6 -28l9 -88l10 -25l8 -27h18v-49l-8 6l-10 -6v-28l-8 10l-62 -62v-8l9 -10h-9l-6 -25l-12 -26l-6 -10l-62 -43l-8 10l-18 -19l-43 -18h-25l-18 -19l-43 -14h-19l6 8l-57 52l-18 16l-11 -6v18l-8 6l-43 62l-8 88zM115 700l26 -43l6 7l46 -25 l53 25l8 -7l80 80h16l27 129l-27 27l-10 -12l-70 30l9 7l-15 18h-28l-27 -43l-6 6l-8 -2l12 -12l2 8l-43 -55l-6 12l-8 -8l10 -8l4 4l-6 -7h-13l-6 -61l-8 -51zM594 518h24l27 27l-27 6zM731 248l19 -27l24 27l19 24l8 -6v-8l71 33v18l9 6h6l12 37l33 37l-8 76l-25 37h-45 l-25 -27l9 -29l-95 -51l-12 -24v-56v-67zM774 1143h19v10l8 8l-27 10v-28z" />
<glyph unicode="&#x26;" d="M45 272l6 37v25h12l15 69v11l-8 8l24 18v6l-6 11h6l12 8v24l25 13l19 24l32 25l56 12l75 76l25 25v61l-51 88l8 123v18h10l19 52v43l112 79l43 15h88l6 10v-10l11 -8h8l8 8l43 -8l29 -17h14l19 -33h10l8 7v-19l18 -6l17 -18v-70l8 -53v-70l-61 -61v-43l-19 -15l10 -28 l-67 -45l-29 -25l10 -8l-26 -17l8 -8h-8v-37l16 -24l43 -19h19l16 37l-16 33l53 25l26 55l76 33l19 28l77 15l45 18v-18l19 -9l76 -67l18 -19l16 -88h-10l-43 -67l-69 -37h-19l-57 61h-19l-18 -37v-14l8 -10h-8l-6 -8l-10 51h-19l-14 -19v-43l-12 -57l-19 -29v-51l31 -61 l-12 -8l55 -62l33 -37l34 19l52 55l-7 6l43 45l62 6l14 -14l10 8l33 -26l19 -35v-27v-51h-6l-19 -43l-27 -18v-19l-24 -6h-10l-9 -18h-18l-35 -37l-26 -19l-43 13l-9 6l-24 -19l-62 13l-69 24v19l-35 32l-8 -8v8h-53l-46 -57l-49 -12l-80 -43l-26 24l-6 -6l-29 -18l-33 10 l-18 14l-62 -24v10l-32 14h-19v13l-43 18l-45 43l-24 6h-11l-18 51v37l-15 19v24l-28 43h-8l-19 19l12 8v10zM219 301l6 -10l27 -8l10 -97l43 -45l8 13h11l14 -19h43l18 -18h27l72 43l32 45l11 -8l8 86l-27 63h-10l-8 25l-35 51l-59 10l-54 76l-51 -51l-10 8l-33 -43l6 -8 l-16 -19l10 -6v-18l-18 -43l-25 -13v-14zM418 911l61 -116l43 -9l62 45l51 50l8 63l-14 25l-13 -8l-16 18l-59 18l-43 9l-62 -45v-25l-18 -18v-7z" />
<glyph unicode="'" d="M418 1016l8 18l-8 6l8 62l25 26l18 54l25 14l36 12l19 19l113 -19l24 -18l51 -88v-43l-8 -6l19 -19l-11 -26v-17l-14 -18v-45l-10 -6v-19h-8l-11 -123l-14 -61l6 -33l8 -80l11 -8l-19 -16l8 -9v-18l-14 -18l6 -7l-51 -18l-10 -18l-52 -37l-24 12h-29l-14 18v25l-12 6 l-25 55v89l-18 100l-7 149l7 17l-25 37v43z" />
<glyph unicode="(" d="M346 526l8 70l11 25l8 116l10 49v37l8 -10l17 43l8 37l24 51v25l74 104v37l25 18l43 86l18 9l27 24v19l6 -6l12 43h14l62 51l43 16h24l37 -53l-8 -76l-53 -45v-16l-33 -27v-35l-29 -18l11 -8h-19l-86 -95v-36l-18 -43h-8l-11 -52l-6 -28l25 -25v-33l-19 -18l11 -10 l-17 -15l6 -12l-43 -49l-8 -107v-51l8 -10v-25l-24 -37v-6l16 -8l-6 -10l25 -19l-11 -8l11 -6l18 -18l-10 -43v-45l18 -25l-8 -37v-24l8 -11l17 -14v-31l18 -14l51 -104l8 -25h17l18 -45l80 -80l8 -43l6 -6l13 -88l-45 -43l-11 6h-14l-10 -6v-10l-62 43v18l-26 18l-25 25 h-18v8l-19 17l11 12l-25 14l-43 105l-29 37l-8 -13v19l-6 12l-37 43l6 51l-6 6l-26 117l-25 51l-10 25v155v37z" />
<glyph unicode=")" d="M279 -213l8 80l6 6v18l10 -10l33 56v24l31 6l129 150l32 112l37 37v68l6 12l-6 6l19 62l14 61v27l10 174v67l-37 52v43l-6 43l-18 30v25l-19 18l-6 58l-37 73h-8l-16 33v-8h-19v8h11l8 10l-27 15l-18 43h-19l-16 28h-14l6 9l-6 6l-56 88l43 53l70 -16h10l8 -27l43 -43 v-37l11 -6l-7 2l7 12l8 -8l-8 -6l43 -45l26 -16l25 -27l-6 -10l24 -25l8 10v-36v-52l19 -10l24 -43l-8 -8l27 -43l6 -80l12 -6l6 -70v-18l11 -10l8 -95l8 -79l10 -60v-53l-26 -105l8 -32l-19 -19l11 -8l-11 -29l-6 -6v-26h-12l-6 -54v-14h-8l-11 -74l-32 -57l-11 -55 l-45 -62l13 -6l-56 -37l11 -8l-29 -25l-6 -43l-51 -69h-72l-51 -19l6 9l-33 18z" />
<glyph unicode="*" d="M172 891v33l16 43v43l95 18l36 19h76l19 18l10 -10l8 10v6l-18 19l-19 -19l-6 8h19l6 11l-19 18l-14 -10h-29l-33 35l9 8v10l-52 14l19 19l-12 61h-7v27h7v43l-2 -4l-13 8l8 6l7 -10l12 37v24l24 -6h33l10 6v-18l46 -25h43l18 19l6 -13l-18 -14l12 -10l25 -43l8 10 l43 -53l-8 -8l26 -11h25l10 11l33 18v33l26 43v24l11 -6l43 43l-11 8v11l37 18l62 -29l75 11l19 -25v-37l25 -43h18l-8 -8v-18h-17l-45 -68l-49 -12l-37 -76l-8 8l-35 -26v-11l19 -8h24l19 19l18 -19h57v-16l29 -19h8l7 11l73 -70h6v-16h-6v6l-12 10v-62l18 -24l-6 -29 l15 -33l-60 -10l-28 -26l-52 18l-24 18h-19v19l-18 14h-6l-19 -14l-24 24h-13l-6 -43l19 -55l-13 -67l-43 -52v-26l-57 -17l6 -12v-14h-18v8l-49 6l-19 45l-8 10l-10 43l-8 9l18 34l-10 62v16l18 17l-26 26l-43 -8v8l-11 10h-8l-6 -10v-8l14 -18h-26l-25 -25h-61l-33 8h-29 l-14 -16l-74 59h-6l-27 43z" />
<glyph unicode="+" d="M111 446l43 72l75 27l29 -10h33h98h43l60 10l10 33l18 18l-28 68v159l10 -10l18 37v6l-10 10l53 45l33 7h25l45 -37l10 -68l6 -8l-6 -43l6 -10v-88v-50l18 -45l9 -24l79 -19l43 -8l9 8l34 19h27h62l34 -10l70 -33l18 -37l-10 -51l-33 -43l-61 -37h-80l-27 18l-43 -18 h-112l-37 -25l12 -8v-10l-18 -19l18 -14v-211l-37 -49l-18 -18l-61 -43l-25 6l-27 24l9 13l-33 51l8 24l-18 19v86v26l10 148l-37 18h-207l-35 8l-69 29h-11l-8 6h-18l12 19v26z" />
<glyph unicode="," d="M354 172l17 86l32 51v19l37 18l37 35l6 -10l62 43h26l19 -19l61 13v-13l6 -6h27l-8 -8l26 -19h17v-10l33 -14h18v-29l37 -57l6 6v-43v-37h-6l-19 -100v-45v-72l-8 10l-16 -43h-19l-51 -80l8 -6l-36 -37l10 -8l-62 -67l-69 -56l-86 -18h-43l-56 98l29 94h14l13 19l18 18 l-12 6l18 19v27h27l25 24v29l10 8l-35 6l-8 10h-19l-6 27l-12 6h-19l-6 37l-18 18l10 7l-10 12z" />
<glyph unicode="-" d="M47 469l43 76l78 53h80l31 8l12 8l33 -8l61 -18l10 -6h15l10 6l45 10h76h98h76l80 -16l24 16l150 -10l35 -6l16 -19l10 6l25 -24l-6 6l18 18l6 -6l-10 -8l10 -10h19l-11 -137l-8 -62l-37 -45l-43 -18h-24l-19 -17h-8l-10 10l-8 -10l-43 10l-95 19l-34 -12l-19 18l-33 -18 l-88 12l-28 -29l-52 10l-86 19l-26 -19l-25 7l-159 12l-58 6l-74 27l-30 34l-13 62v27z" />
<glyph unicode="." d="M309 164h6v24l-6 95l43 79l62 46h14l29 24l59 19l10 -11h19l6 17l113 -49l43 -46l26 -24v-37l10 -6l19 -43l-29 -74v-43h-8l-6 -33v-24l-80 -37l-51 -37h-37l-6 -6l-19 16l-37 -16l-6 -8l-26 8l-43 43l-11 -8h-26l-25 33l-24 88z" />
<glyph unicode="/" d="M-20 -307l24 76l27 26l10 43l51 62v37h6l13 30l43 64l24 61l37 35l14 27l37 86l6 18h13l6 14l18 56l-6 6l33 18l-8 8l32 62v18l29 6h8l35 80l33 37l12 51l25 25l-10 10l61 76l18 70l78 98l8 43l37 51v19h15l10 18l26 61l25 15v10l-8 8h18l15 17l-7 51l25 43l10 -6l51 67 v27l80 80h9l24 24v27l19 16l24 -6h19l43 -55l-7 -49l-10 -45l17 -19l-25 -30l-43 -37l6 -9l-33 -28l-10 -51l-24 -43l-9 8l-36 -33l-7 -98l-43 -43l-45 -88l-28 -15v-10l12 -8h-12l-15 -19v-24l-35 -43v-10l7 -9h-7l-8 -18l-28 -25l10 -8h-10l-9 -28l-18 -33l-16 -19 l-33 -43l-12 -24v-13l-15 -14v-29l-43 -75h-10l-18 -19v-6l10 -12l8 12l-61 -88l-9 -18l-18 -25l-19 -18v-37l-6 -33v-18l-8 8l-35 -43v-8l6 -11l-32 -32l-35 -99v-14l-51 -72l-13 -26l-32 -43l-17 -62l-26 -51l-35 -18l-33 -7l-98 -43v6l-33 11l6 8l-16 18v33l10 10z" />
<glyph unicode="0" d="M115 397l8 123l10 70l8 123l6 75h13l16 56l27 24v19l-19 18l25 25v18l37 27v24l33 19l18 51l80 35l43 33l8 -7l35 35l-10 9l61 18l113 -10l18 -17l35 17l27 -8l94 -62l28 -43l9 10l34 -37l33 -67l13 -45l24 -10l6 -43l19 -15l-6 -28l32 -52l11 -94l8 -61l16 -37l-16 -19 v-112h-8l-11 -49v-64l-8 8l-18 -32l8 -56h-8l-43 -57l8 -10h-8l-6 -9v-24l-99 -98v-19l-33 -43l-36 -6l-19 -18h-6l-12 10l-25 -29l-8 10h-25l-18 -24h-62l-36 33l-138 10l-24 14l-10 10l-45 70l-7 -8l-36 26l10 7l-25 18h-18v27l-19 16v27l-61 43l-25 69l-18 19h10v24z M270 688l19 -18v-56v-43v-112l26 -62l43 -51v-61l43 -62l43 -33l9 9l36 -43l50 -9l-7 -10l62 10l18 -18v-6l76 76l10 -9l33 19l-6 8l51 49l-8 37l33 37l10 6l8 -6l-8 33l27 43h6v24l-6 19l16 26l8 54l-18 149l-6 6l6 8l-15 29l9 70l-19 18v31l19 27l-27 36l-80 68l12 10v8 l-30 19l-25 -19l-24 19v24l-62 43l-18 -16l-9 10l-43 -28l-104 -9l-18 -24h-15l-18 -37h-19v-18l-24 -25l24 -51l-18 -37h-33l-28 -31l10 -31l-19 -14v-18h9l10 -11v-14z" />
<glyph unicode="1" d="M205 51v27h12l25 43l26 18l49 19l89 6l10 10l18 -16l43 16v27h15l28 24l-16 43l16 62l-10 8h10l27 29l-10 26v25l-33 24v56l43 57v18h6l12 11l-12 8v94l-6 10l43 70l-37 68l18 26l-18 19v18l12 6l-18 19h18l6 55l-6 6l-12 61l-61 9l-25 10l-88 8l-25 -27l-51 -10l-61 43 v19l-11 10l-8 59v11l94 18h74l6 6l70 -18v-6l80 -11l33 17h28l43 -17l15 -16l28 -29v-49l8 -8h-8v-117l8 -6l-18 -18l-6 -95l-12 -10l18 -14v-193l-6 -123l-12 -32l18 -19v-80l-6 -26v-25l16 -18l-10 -25v-26l10 -11l15 -32v-11l-7 -8l37 -24h15l10 8l33 6l18 -33l43 -10 l43 -8h19l8 8l53 18l61 -61v-45l-114 -58h-70l-6 -10l-18 19l-46 -27h-24l-19 33h-36l-7 -6h-24h-219l-35 -19v10l-33 15h-29l-77 -15l-35 9z" />
<glyph unicode="2" d="M170 94l18 45v68l9 29h10l33 69v19l36 14l7 10v19l55 8l18 35l31 26l-6 6l43 27l8 29h25l37 32h18l16 25l33 12l37 25l104 24l52 56l8 -10l10 10v24l8 -10l25 43v19h10l8 18l19 18l18 113l-12 25l-25 69l-51 62l-10 -9v9h-27h-67l-80 43h-43l-8 -19l-37 -14l-15 -19h-28 l-43 -24l-15 6l-37 -49l-6 -107l-30 -18l-25 -61l-25 -7h-26l-25 25v43l-12 8h18l27 117l10 -12l33 55l25 6h12l24 45v25l44 37l26 16l68 8v-8h28l45 16v11l144 -27l12 8v-8l6 -10l13 10l57 -43h72l32 -35l13 -70l14 -18l-8 -6v-12l8 -7h18l43 -88l-8 -61l-10 -51l10 -10h8 l-61 -86l10 -9h-10l-27 -24v-19l-6 6l-37 -49l-51 -26l-10 -29l-43 -33h-45l-6 -10v-14l-43 -19h-37l-33 -43h-61l-70 -45l-10 -35h-6l-37 -106l43 -25l88 -8l16 19l62 -11l18 -18l18 18l52 -8l18 19l131 -11l68 -8l51 -35l18 -26v-43l-26 -25l8 -12l-8 -33l-35 -25l-51 25 h-8l-11 -10v-25l-51 10l-35 15l-78 -15l-86 9l-10 6l-18 -15h-174l-27 -10l-31 25l-45 -15l-35 9v6l-8 10l-18 -16v6l-25 10l-28 18l-9 27z" />
<glyph unicode="3" d="M166 1026v45l12 25l6 37l37 24l76 8l37 11l-12 6l63 -6l25 -11l18 17v-17l10 -8l15 19l159 6l58 18l61 -18h150l37 -43l6 -33v-29l-25 -33l-104 -67v-19l-9 7l-18 -19l-61 -43v-14l-25 -10l-12 -9v-24h-6l-27 -43h-10l-6 -12l67 -33l12 8v-8l43 -19l33 9l19 -25l6 -8h18 l-8 -10l45 -19l25 10l51 -98v-14l10 -11l19 -94v-10l-11 -8l17 -19v-6l-6 -12l14 -14l-25 -17v-45l-18 -18l10 -49h-10l-33 -99l-70 -104l-10 -33l-51 -12l-80 -68l-33 -8l-53 -53l-27 10l-49 -43l-63 6l-43 -61l-113 -6l-53 -9l-33 9l-37 24l-6 86l6 -6l19 25l18 18h43 l43 27h33l27 43l-9 6l27 28l35 -34l51 24l37 37l-12 6l55 19v26l51 -8l80 70h33l35 35v45l8 -13h10l8 27l10 43l15 55v49h10v80l-35 33l-45 43l12 12l-36 43l-37 9l12 10l-27 6l-28 18h-33l-25 -24l-61 -37h-19l-26 -25h-17l-8 -12v-14h-28l-9 -11v-6h-16l-18 17l-9 -11 l-36 25v45l45 62l-9 10l37 51l51 6l25 37l70 51l-9 10v19l43 33l46 10l43 45v6l-9 8h9l6 10v25l-43 18h-43l-9 -10l-94 -8l-18 18l-68 -24l-61 6l-37 -43v-6l-43 -19l-18 -18l-58 6z" />
<glyph unicode="4" d="M133 193v69l43 62l19 69h14l29 25l-11 6l37 37l6 26l45 68l-8 12h8l11 6v25h8l43 88l35 29l8 -10l8 67l16 31l13 6v25l32 26l17 37v16h8l10 45v7l45 26l6 35l19 70l18 18l6 -8h19l8 14l53 -6l33 -18l19 -33v-80l10 -51l8 -10l-18 -19v-51v-35l10 -8l-17 -25l7 -36h-7v-33 v-86v-45l17 -62l14 -35l12 11l-12 -74v-14h-14l-10 -105v-10h79h119v-14l13 -13h6l12 13l-12 6l26 -51v-35l-14 -19l6 -8h-6l-18 -16l-46 -27l-129 8l-18 -18l6 -8v-19l-6 12l-8 -36l-10 -52l24 -43l-14 -55l8 -67l6 -9h-6l-18 -34l-25 -27l-8 8l-72 -33l-27 6l-32 46v79v31 l-11 113h11l14 45l-6 10l18 25v8l-43 29l-98 -11h-33l-37 11l-6 8l-12 -8l-14 8h-29l-43 -37l-51 18l-25 19h-18l-8 -8v8zM350 313l70 -18h123l8 10l6 -10h18l37 18l6 80l-18 31l12 12h6l-6 6l19 19l-8 8l-7 -12l2 -2l-6 6v26l6 43l13 43l-19 19l6 80l13 -10v53l-13 43v33 l-18 55l-6 -29l-51 -51v-51l-19 -37v-35l-18 -14v-37l-43 -37l8 -6l-27 -45h-6l-10 -35l-33 -33v-55l6 -6l11 -37z" />
<glyph unicode="5" d="M190 889l9 119l10 45v24l70 43h210l7 -6l8 6l43 13l18 16h10l9 -10l6 18l37 -8l43 -29l131 13l61 6v-6l6 -13h27l43 -57l-14 -55l-37 -25l-43 -18l-113 -7l-10 25h-14l-13 8l-16 -14l-113 -12l-69 -7l-37 -12l-76 -76v-24l27 -12v-17l-52 -33l-10 -12v-14l35 -29l-10 -6 l10 -8h18l-10 -10l53 -19l33 29h27l28 24h43l33 -24l70 -10l16 24l45 -6l62 -51l43 -10l37 -46v-43l6 -6h26v-18l35 -19l-10 -75l18 -19l-8 -80l-18 -104l8 -8l-14 -37l-11 -57l-45 -44l13 -12l-56 -49l11 -12l-54 -33l-32 -25l-37 -18l-35 -43l-51 -10l-37 -33l-43 -27 l-8 -10v10l-7 9l-61 -43h-45l-43 -19l-10 -18h-70l-6 -9l-18 19h-37l-25 27v24l-8 10v9l18 18l-10 6l19 27l34 16l60 12l53 25l27 -10h6l18 18h37l61 35h33l10 8l43 37l-10 6h37l68 55h8l18 15l-8 10l19 33l8 61l6 -6l18 17l37 32h25l8 13l-16 14v80l-17 43l-18 51l-19 18 l-24 25l6 10l-76 70h-55l-43 -8l-70 -29l-43 12l-6 6l-12 -6l-49 -26l-19 -29l-8 10h-10l-8 -10l-17 -14l-33 -29h-12l-6 10l-12 -10l-6 -8h-27l-43 80l8 51v61v62l10 8v6l-10 10l-18 33v45l10 43v10z" />
<glyph unicode="6" d="M211 201l10 61l6 33l-6 10v105v59v61l15 62v37l10 6l-10 8l43 105v98l10 43v14l26 10l19 33l6 -6l12 37l15 14l-9 10l156 132h37l33 32l98 11l43 6l156 18l8 8l29 -26l6 12l18 -29l19 -16l-11 -10v-19l17 -6l-6 -8v-19l-62 -34h-37l-6 -9l-98 -10l-43 -8l-33 -25l-88 -10 l-25 -33l-37 -18l9 -8l-33 -35l6 -8h-43l-18 -19v-53l-7 -26l-8 -7l-43 -45v-10l-10 -6l16 -18l-24 -27l8 -6h-8l-19 -19l9 -10l-15 -27v-6l33 -12l35 37l69 37l95 14l28 10l33 -24h105l45 -37h34v-6l-10 -13l37 -24v-19l33 -18v-14l78 -80l8 -80v-14h-8v-54l18 -32l-10 -99 l-8 -8v-24h-6l-19 -37l-53 -35l-45 -88l-33 -15l8 -10l-69 -33h-19l-16 -18l-78 6l-16 -16l-9 10l-10 -10v-8h-27v8l-104 35l-25 -7l7 7l-33 18l-80 88h-18l12 6l-27 27v16l-18 19l-17 18l-26 8l-19 43zM322 338l12 -8l24 -62v-32l19 -54l8 -24h35l8 -52l18 -28h62l18 -17 l31 -10l12 10h43h52h43l61 45l43 68h8l19 62h6v26l12 43l-27 70l-10 94l-24 29l-37 32l-8 -8l-43 19l-19 8v6l-43 18l-33 -18l-98 -6h-33l-28 -19v-18l-15 -25l-10 11l-27 -19l-34 -43v-18l-15 -62zM401 164v18h19l8 -8l-8 -10h-19z" />
<glyph unicode="7" d="M133 965v26l31 17l-12 12l36 33l-10 10l43 8l10 6h121l160 -6l43 -8l6 8l27 16v-10h80l43 10l51 9l18 18h25l10 6l59 29v8l29 -18l6 -6l-18 -19l27 -43h71l43 -70l-10 -55l-61 -76l-9 9l-6 -9v-24h-10l-18 -19l10 -10h-10l-9 -45l-6 -14l-55 -72l-6 -33h-13l-6 -24h-8 l-29 -31v-68l-24 -75h-8l-11 -19l-51 -112l-6 -11l6 -8v-61l-18 -25v-80l18 -18l-43 -51l6 -62l13 -164v-28l-19 -52v-24l-61 -55l-62 18l-45 18l-32 113l8 55l18 50l-8 8l27 43l-13 10l-6 78h6l13 35l18 26v19h6l8 35l-8 8l8 86l29 51v37l14 18v17l-8 8l27 37l-8 6h26l6 43 h11l18 37l14 69l13 43l6 9v24h12l14 53v45l62 68l10 8l-29 29l-26 24h-76l8 9h-61l-121 -9l-43 -24l-62 24h-18l-18 -16l-7 6h-12l-14 -14l14 -19l-6 -112l-37 -35h-6l-8 -8l-37 -19l-16 9l-45 34l-7 9l19 18l-12 6l-7 88l19 19l-12 53z" />
<glyph unicode="8" d="M135 334l8 12l-8 6l8 80h7l12 33l18 43v18l-12 9h12l6 16l37 18l15 52h18l35 43l8 12l-8 6h-10l43 37l-7 33l-51 61l-28 98l-9 7l-16 26v53v58l10 30l68 95l-10 6h10l8 43l70 45h28l25 16h27l24 27l80 -8l6 18l55 -18h43l52 -6l24 -19l12 -10h25l-10 -8l37 -19l24 -43 l25 -8h18l-6 -10l33 -51v-7l-8 -10l8 -8l29 -55v-25v-156l-13 7l-6 -31l-27 -64l-43 -67l9 -10l18 -52l16 -26l9 8l24 -18v-25l13 -8l49 -62v-18l-6 -6l6 -13l8 -86l10 -32l19 -62l-11 -26v-25l11 -10l-43 -88l-37 -6v-13l8 -6l-51 -51v-29l-95 -57l-55 -37h-49l-12 -18 l-15 -19l-122 -6v6l-70 13h-25l-18 24l-10 -8l-121 70l-10 -11l-43 43l10 11v8l-19 18l-16 17h-8l-10 32l-15 37l6 8v19l-6 10l-12 43h-18v43zM266 283l15 -17l-7 -8h17l51 -80h45l53 -43l-10 -8l43 -10l43 -33l98 -10v18l52 35l34 -10l17 24h35l26 31v14l10 43h9l-9 11 l25 26l-10 6l28 29l33 76l-18 18v27l-15 18l9 6v11l-19 32l-8 13v16l8 8l-69 88l-52 -8l-43 15h-34l-64 18l-43 10l-33 -10l-34 -25h-27l-25 -26h-28l-15 -37h-18l-27 -33h8l7 -10l-15 -19l-35 -43v-69l35 -62l-18 -14zM354 936l49 -86l52 -12l18 -15l19 -28l67 18l19 -18 l51 -15l10 6h8l10 -6l43 25l9 8l8 -8l71 76l-10 12l19 18l-9 7l15 51l10 37l-25 34l-10 52l-26 26l-52 25v10l-43 18l-28 9l-33 -27l-156 -10v-8l-43 -25l-18 -18l-10 -123h-9l9 -8l-15 -17v-8z" />
<glyph unicode="9" d="M121 743l18 19v137l19 19l-13 8l19 18v35l26 45l19 16l-8 9l18 18l25 51l-6 -4l-9 6l4 8l11 -10l43 43l63 19l6 6l43 37l62 6l8 12v-12l10 -6l8 6l68 12v6l27 -18h71l-10 -6l37 -19h43l86 -61l18 -25v-26l52 -80l6 -33v-25l12 -10l6 -78l27 -35v-8l35 -147l-35 -70 l18 -55v-49l-8 -62l-37 -51l-18 -55v-6l12 -13l6 13l-18 -99l-6 -57l-25 -37l-12 -37l-25 -24v-27l-88 -67l-33 -13l-10 -14l-6 8l-27 -37h-18l-25 -33l-55 -10l12 -8h-43l-45 -35l-35 10h-45l-6 -10h-18v10h-56l-14 -18l-35 8h-26l-54 62l29 67l43 31l119 6l80 27h18l8 -8 l7 8v10l18 -18l43 32h12l6 19l52 24l18 19l-8 10l45 27l43 61l-10 6l28 19l15 18v25h10l25 45v32l18 17l-10 45v10l-8 8h8l18 35l-8 27l-10 6l-33 -43v-25l-25 -8l-36 14l-62 -24l-43 -8h-8l-19 -19h-49l-18 -24l6 -11h-6l-12 -8l-15 19l-10 -11l-33 35h-55l-62 62h-24 l-19 18h-24v8l-33 25v18l-10 9v-9h-19v9h11l8 10l-51 69l-13 35l-14 15l8 36zM270 850l6 -55l19 -15l-8 -61l26 -43l19 -19l-13 -8l31 -53h6l52 -8h53l63 -53h31l27 16h36l44 37h43l18 43l25 51l8 -6l18 16v234h-8l-25 10l-18 43l-43 61l-12 -10l-15 19l-28 6l-15 -15h-28 l-52 15l-36 -15l-33 33l-10 -33l-86 -10l-27 -18l-43 -86l10 -45zM653 266h9l6 -8z" />
<glyph unicode=":" d="M315 92v35h11l8 8l-8 6l32 64l13 10l24 6l43 70h8l11 -8l51 32l43 31h18l19 -18l6 6l8 -25l29 -8v-10l43 -19l33 -32l18 -62l18 -18l-10 -86l-8 -43l-43 -64l-18 -14l-62 -10l-43 -33l-45 8l-33 19l-10 -13l-25 29l-8 -10l-37 37v18l-30 14l-19 29l-26 25l8 8zM352 563 v43v76l19 37l24 24l-10 9l53 43l43 10l27 8l37 18l94 -26l49 -53l19 -43l26 -27l-8 -131l-18 -33h-19l-24 -53l-9 10l-10 -10l-51 -19l-25 -6l-10 -8v-10l-27 18h-18v6l-86 11v8l-8 10l-6 27h-19z" />
<glyph unicode=";" d="M289 74l8 35l18 96l25 16v19l80 51l18 24l-28 37l28 25h25l26 -49l7 -13l28 31l15 -18l12 6v-19l6 -6l-2 6l6 9l8 -9l-12 -6l27 -26h28l15 -17h37v-8l16 -10v-8l8 -11l10 -57l27 -45l-27 -96l9 -33h-9l-18 -55l-16 -19l6 -6h-15l-18 -37l8 -43l-61 -59l10 -10l-62 -62 v-14l-24 -10l-12 -27l-7 8l-26 -26l-113 -7l-35 52l7 96l18 33l27 18l16 18v33h12v56l-28 43l-60 6v69zM297 621l18 43l-8 12l27 24v25h6l37 55l51 43l86 -10l18 18l70 -45v-6l25 -10l43 -45l28 -68l-10 -43l-8 -8v-28h-16l-9 -43l-18 -27v-33l-80 8l-25 -26l19 -25l-12 -18 h-7l-8 -11l-28 43h-33h-25l-98 62l-33 55z" />
<glyph unicode="=" d="M76 266l18 43l62 43l-11 8h11l24 29l8 -12h29v-6l94 -11l37 29h43l25 -12l26 -17l80 11l6 6v18l62 -6v-12l18 -17h58l30 35l43 19l15 -19h28v-6l43 -12h9l6 -6l37 32l69 -8l25 -43h37v-6l18 -12l25 -51l-9 -86l-61 -19l-10 -6l-164 -37l-43 37l-123 -18l10 6h-141l-61 -6 v6l-68 18l-8 -6h-11l-14 14l-37 -14l-123 6l-51 19l-8 -11v19l-29 16zM119 569l10 62l51 33l51 12l29 24l51 -8l25 -28l37 18l88 -6l110 -12l9 -7l18 19l68 6l12 10v-10h24l70 10l86 27l19 -19h69l62 -43h6l12 7l16 -25v-25l-10 -26v-25l-51 -37h-16l-19 -37l-61 -14v8 l-33 19l-27 -13v-6h-28v6l-101 19h-18l-27 -25l-71 6h-9l-6 13l-18 -27l-25 27l-55 -13l-18 19h-52l-24 18l-70 -18l-43 -6l-43 43h-80l8 6v12l-8 6h-18zM797 403l10 11v8l-10 10v14l10 -6h18v-26l-10 -11h-18z" />
<glyph unicode="?" d="M156 831h8l10 35l8 45l11 62l57 67v19l80 51l45 18l6 7l37 12l80 14l32 19l68 -9l61 -10l19 -14l88 -12l18 -25h50l69 -104l29 -70l26 -18l-12 -87l12 -8h7l-52 -86l-10 -12l-51 -49l-94 -94l-29 -13h-24l-52 -32l-18 -19l8 -61l16 -25v-43l-30 -70l-125 9l-6 6h-19 l-24 43l-13 12l19 19v32l-19 17l-18 26v19h12l6 35l19 26h18l8 19h25l53 86h27l18 24l33 19l53 8l33 51v53l-6 8l-8 68l-29 45l-43 17v12l-27 24l-155 9l-37 10l-43 -43h-14l-29 -29l61 -26l43 -52l-6 -24l-12 -11l18 -18l-18 -14l12 -13h-12l-6 -24l-8 8l-29 -27h-43 l-25 -18l-8 -6h-18l-25 24l-43 -18l-55 37zM367 41v61l8 -10l24 53l113 95l29 36h8l16 -18h27l80 -43l6 6l18 -24l-6 8l10 6l5 -6l-9 -8l33 -37l10 -25v-8l19 -18l-10 -43l-25 -43l-8 -9h-29v9h-27l-30 -25l-74 -12l-14 -6h-29l-57 34l-31 -10l-43 27z" />
<glyph unicode="A" d="M33 25l14 36v50l29 18h24l33 12l19 15l10 -9l8 9l43 -9l61 80v52l9 24l10 27l8 35l6 18l37 51l-8 10l26 27v76l7 35l26 36l-8 27h8l11 49l6 -6h12l25 43v76l18 43l8 37l25 43l10 37l14 24l-6 8l25 11h26v-11l11 -8h6l18 19l-18 32l-6 -6l-27 33l8 43v18l25 11l61 -19 l27 -24v-37l24 -70v-35l19 -26l18 -94l-8 -11l33 -61l12 -43l25 -121l32 -35l-8 -8l27 -53l-8 -27l18 -18v-6l-10 -9l18 -18v-86l6 -10l19 -27v-43l18 -8l6 -35l13 -45l43 -43h76l28 -18l45 -15l15 -43l-9 -28v-15h-18l-6 -10l-12 -8l-58 -37l-80 12h-37h-43l-24 6h-27 l-16 -18v12l-121 6l-72 62v18l43 25l-8 8l27 18v19l80 24l6 62l-17 18l-16 33h-16l-19 25l-254 -15l-14 -18l6 -80l45 -16v-9l6 -6h19v-30l24 -33h13l6 8l26 -51l-16 -25l8 -10h-37l-6 -18l-61 -27l-164 12l-10 6h-27l-43 -43l-25 19l-12 -12l-57 36h-37l-35 37zM481 453h19 l53 -19l88 37l14 -18l11 6h8l24 37l-6 61l-8 8v35l-53 33v18l-8 25l24 45h8l-32 115l-11 8v18l19 68l-19 26l-8 -8l-6 -18l6 -6l-18 -19l-17 -18l-16 -19l8 -112l-24 -43h-19l-8 -43v-70l-18 -18v-50v-36h-11v-43z" />
<glyph unicode="B" d="M117 1069v43l37 33l49 18h18l8 -8l11 8l24 11v8l37 -8l14 -19l37 8l51 -8l43 27l56 -19l67 11v-11h37l15 19l98 -8l33 -11l43 -26h71v-7l15 -12v-6l18 -18l12 8v10l50 -37l-7 -6l25 -18v-9l-10 -10l18 -18v-25l43 -45l25 -49l-6 -70v-28h-9l-43 -103l-36 -18l-7 -25v-28 l15 -15l-8 -10l88 -88v-76l18 -28l25 -95l-9 -26l-28 -62v-67l-25 -27l-51 -18l-18 -35h-7l-12 -8v-25l-76 -37h-61l-10 -6h-15v6l-10 8l-18 -14l-33 6l-45 -24l-17 18l-69 6l-56 8l-129 11l-8 -11h-123h-32l-37 -8l-6 8l-19 -14l-51 57l33 43h18l19 19l51 -8h24v-11l19 -14 l61 25l25 26l-6 6h6l18 56l-6 51l-12 43l18 18v199l-18 98l-6 51l18 17v51l6 12l-18 15l-17 80l17 79l-25 68l19 18v15l-19 18l-69 -43l-25 10l-18 15l-62 -6v6l-24 10zM457 485l8 -18l10 -8l-10 -68l18 -80v-131l19 -51h129l155 8l80 6l8 13v32l25 43h12l25 11l18 43v121 l-28 28l-8 -10l-19 16v9l-61 61h-15l-53 25h-70l-61 18l-18 12l-25 -18l-51 -12l-43 30l-19 -12v-25l-26 -18l18 -18l-10 -7h-8zM475 721l8 -19l6 -36l19 -15l61 8l19 -18l24 35h52l122 -10l27 28l35 8v19l33 33l12 34v62l-27 51l-10 12l10 7l-6 8l-8 -13l4 -2h-18l-33 68 l-35 -10l-8 -8l-43 8v28l-45 -10l-68 -8l-61 33l-19 -15l-8 -43h-10v-18l-19 -43l-6 -150h-8v-24z" />
<glyph unicode="C" d="M156 426l10 51l8 55l10 7l-28 26l10 236l8 35l19 26v25l-9 8l25 29l8 -11l25 43v19l-6 6l43 37l8 61l61 43l25 43h55l94 33h43l10 12h76l19 -26l18 -10h25l26 -25h25v-8l43 -19l45 43h29l6 9l26 18l25 -18l18 -70h-8l-10 -49l-14 -19l8 -45l-19 -16l11 -27h-11l-26 -43 v-18l8 -6l29 -56l32 -61l-8 -88l-10 -6v-25h-14l-43 25l-29 24l-27 19h-18l18 18l-32 70v6l14 18l-33 43l8 56l-24 43l-8 -11v11l-19 14l-10 -6l-8 6l-6 -6v-19h-29l10 25l-24 55l-31 6l-58 13l-10 6h-8l-18 -19l-50 13l-30 -31v-33l-49 -24l-9 8l-10 -8l-51 -54l-18 -32 v-37l-43 -62v-112v-43l-9 -9v-28l9 -8l8 -25l-17 -43l33 -43l19 -45l8 -80l18 -49l53 -55v-15l27 -18l16 -19v-24l52 -19l94 9l43 34l31 27l49 10l61 70l-10 43h10l19 18l8 -12l37 45l-13 53l-6 9l33 34l43 9h18l25 -25h18v-37l19 -24l-8 -37l-19 -60l19 -16l-19 -45l8 -10 l-61 -25l-14 -33v-12l6 -6l-80 -88l-14 -25l-11 -43h-18l-14 -18l-37 18l-17 -18l11 -10l-74 -9h-76l-18 19l-43 -10h-25v10l-43 8h-27v35l-43 33l-55 55l-43 18v58l-18 18v25l-6 10h-27v18l-25 27l-18 49l8 45z" />
<glyph unicode="D" d="M59 43l19 35v26l67 37h88l68 -12h27l18 27l-8 86l18 18v53v60l-10 98l10 49l9 12v7l-9 8v129l15 117v69v25l28 26v11l-18 6l-16 18l-27 43v33h-37l-25 -14l-24 14l-107 12l-34 6l-15 19l6 43l27 51l35 10l8 9l35 -19l51 29l61 -10l27 18v-8l35 -19h45h43h61l9 9v-9 l61 -10h6l10 -25l27 11l43 -19l8 8v-8h25l18 19l25 -11v-8l55 -18l62 -19l14 -30h29l-11 -13l43 -18l37 -94l6 -43l27 -51l29 -29h6l18 -33v-112l19 -35l-19 -45l8 -138h-8v-34l-10 6l-8 -51v-19h-6l-19 -67l-10 -27l-8 -10v-15l-43 -43l6 -12l-25 -25l11 -6h-17l-12 -12 v-25l-43 -18l-94 -86h-43l-19 -18h-94l-18 -15h-19l-18 15l-49 -27l-45 37l-35 -19h-113l-33 -6l-37 -12l-6 -6v6l-12 12h-25l7 6h-50l-8 -6l-61 6v9l-25 10zM475 850h19l8 -6v-8l10 -35l-18 -19v-75l18 -31l-18 -31h8l10 -80l-18 -18h-7l7 -8l-7 -217l25 -123l-18 -33h61 l18 -19l9 9h6l55 -9l25 -6l51 15l43 43h18v18l25 19l12 24h25l37 25v28l-11 17l-8 10v25l19 18l6 8h18l-10 10v9l18 16l-8 8l27 25l6 80l18 26l11 80l-35 25v18l6 6v56l-6 75l-8 -6l-19 17l-35 88l-69 67l-51 8l-29 25l-33 -6v-8l-43 -11l-27 25h-16l-27 12l-18 -80h-10 l-6 25l-9 10v19l9 8l6 -8l-6 26l-19 -18l-8 -88zM530 459l15 18v43h10v19l70 -7l8 -12l10 -61h-18l-9 -6l-61 -9l-16 15h-9z" />
<glyph unicode="E" d="M63 41l19 68l43 32l61 -14l76 8l37 6l18 19l-10 12l35 49v107v49l8 55l10 8v6l-10 11l-18 32l10 324v53l-10 121l-8 25h-68l-10 -6h-33h-37l10 6l-71 12h-27l-16 49l28 45l43 25h164l10 10l132 -35l43 10h43h94l26 15h43l19 -25l35 -8h26l19 18l14 -18l43 25l72 -7 l59 -28l10 -27l19 -86v-76l14 -18v-107l19 -34l-33 -33l-29 6l-45 80l-6 61l-19 45l11 7v18l-11 8l-18 35l-33 27h-18l-6 24l-29 25l-8 -6l-43 36l6 7h-33l-16 -19l-88 -6l-19 -27h-75l-11 -10v-6h-18v6h-33l-37 -18v-226l-16 -24l16 -53l27 -45l53 -7v-8h51l25 43h31l32 27 v61h11l14 33v18l29 7h14l37 -33l6 8v-43l12 -61l6 -60l-24 -43v-61v-43l6 -37l12 -43v-27l-98 -43l-25 62v104l-26 33l-6 -6l-19 18l-155 6l-37 -43l18 -51l6 -80l-16 -18v-105l35 -43l-6 -51l-13 -6l37 -37l94 -8l25 -18l63 18l43 8h25v-8l74 -18l14 26l43 25v26h10l19 43 l14 19l-6 53l43 45v49l18 19v26h49l-2 6l7 9l8 -9l-13 -6l13 -8h24l19 -61v-19h-10l-27 -69l8 -166l-14 -19v-32l-13 8l-6 -43l-10 -27l-14 -18l-37 18h-62l-8 8l-53 -26l-33 -6l-26 18l-80 -12h-94h-123l-35 -6h-60l-53 -13l-26 31l-19 -18l-61 6h-33l-53 -6l-15 32h-18z " />
<glyph unicode="F" d="M88 1079h8l19 43l24 27h27l35 6l155 10l80 9l15 -19l61 29l63 -19h105l18 -10h25l-6 8l10 6l4 -4l-8 -10l18 -14l25 24v-10h33h73l58 -25l10 11l61 -99v-18l-10 -6l10 -8l9 -29h-9l-10 -25v-26l19 -17l-9 -8l27 -55l-12 -49l-6 -8l6 -11l37 -61l-25 -76l-27 -27l-71 33 v70l-8 35l-17 18v27l35 49l-18 12l-35 33v61l-27 25h-49l-18 55h-27l-43 -37l-25 19l-88 6h-10l-8 -33l-25 -10l-18 -14l-19 8l-18 24l-6 11v-54l6 -8v-10l-16 -14l-15 -29l25 -51l-25 -70l6 -67h-6l-12 -13l27 -18l16 -14l12 8v-8l6 -11l9 11l28 8l15 -19l18 19l-8 6h8 l25 55l61 19v57l12 37l7 6l-19 37l19 37h18l-6 4l10 10l4 -8l-8 -6l25 -29v-27l-17 -18l43 -49v-51l-18 -29v-88v-156l10 -43l8 -94h-8l-10 6l-15 -16h-43v16l-12 12h-16v33l-8 10h8l10 9v6l-18 10l8 27l10 51l-27 35l-28 8l-15 -15h-43l-43 -18l-28 6h-9l-6 12l-18 -45 l-12 -28l18 -15l-18 -18l18 -25l-6 -88v-16l-12 -12l18 -15v-98l43 -49l174 -12l-2 8l6 6l8 -2l-12 -12l27 -15l18 -35l-33 -69h-36h-156l-10 -10h-9l-18 18l-119 -8h-55h-43h-113l-18 61l18 25l-6 26l68 19v-12l61 -7l27 19v-12l6 -7l61 52v71l19 25l8 33v28l-18 17l-9 129 l-6 45l15 114l-15 33v105v51v43l-28 45l10 80l-19 35h-24l-88 -11h-11l-8 -8l-16 19h-27z" />
<glyph unicode="G" d="M174 590l10 254l58 69l-4 -4l-11 6l9 9l6 -11l28 86l45 62h15l35 80l26 8l10 6l88 43l43 -6h25l8 18l86 -26h56l14 -29h80l6 10l29 19h8l8 -10l10 10l43 -29l19 -43l-11 -76l-26 -80l8 -94h-8v-43l8 -12v-43l-33 -33l-43 19h-26v6l8 8l-27 29l8 8v18l-24 6l-27 43v45 l-18 35l-51 43h-17l-45 45h-10l-6 -12v12l-37 6h-15l-18 -32l-18 14h-52l-71 -43l-25 -25l10 -8h-10l-26 -43v-24l-19 -31l12 -68l-45 -61v-45l15 -14l-15 -17l9 -37l6 -61v-70l-6 -6l6 -12l30 -49v-113l50 -55l8 10v-25l18 -18l25 -43l-4 4l8 10l6 -8l-10 -6l28 -19l33 19 v-10l37 -15l33 6l37 9l49 34h18l43 46h13l6 6v18l8 -8l18 45l-8 6l27 43v55l6 9v24l-43 19l-14 -19h-19v10l-70 9h-53l10 6v12l-10 6h-18l10 43l8 12l25 25v8l-6 10l67 33l19 -18h43h80h131l118 -8h19l18 -17l-10 -8l10 -10l19 -27l-11 -61l-69 -6l-70 -9l-53 -10v-51 l-27 -80l19 -61l-6 -113l14 -18l-8 -33v-25l-19 -18l13 -10h-19l-10 -9h-45l-43 19l-6 26l-8 7l-72 -58l-33 -18h-141h-51v8l-19 16l-8 -6v6l-25 9l-36 36l-50 50v18l-45 43l-18 70l-35 61l-8 43l-19 27v104l-6 10l15 17l-9 86h-16z" />
<glyph unicode="H" d="M61 1069l9 43l43 37h51l10 -8l19 24v-10l86 -14l14 14l125 -6h49h31l6 -8h18l-10 -11l29 -18l6 -8h8l10 18h19l8 8v-8l6 -10l55 43l68 -6l8 -8l10 8h226l43 -8l18 14l37 -14l14 -43l10 -13l9 -75l-70 -29l-37 10l-6 -10l-45 -6l27 -51l-33 -43l-10 -174l-9 -45l-10 -11 l19 -24l-9 -37l-10 -43l-14 -33l6 -10l18 -17l-10 -77v-9l-8 -10l18 -18v-8l-10 -7l10 -12l9 -16l-19 -17v-34l-8 -37l8 -6l10 -132l43 -8h27l43 27l51 -45l-8 -53l-37 -33l-31 8l-12 10l-6 -10l-51 -18v10l-262 8l-29 25v36l-6 7l43 28h8l10 -10l70 55v-18l6 -12h19l18 45 l-8 28v25l14 18l-14 86l14 17l-14 28l14 58l-6 71l-8 -10v19l-29 8h-24l-9 35l-37 26l-6 -8l-69 -10l-29 -43l-25 28l11 7l-62 18l-61 -10h-19l-32 -43l-19 16l8 12v7l-18 18l-25 -18v-52l-8 -147l-10 -10h10v-8h-10l-8 -25v-45l18 -35v-106l25 -15l18 -18l43 18l33 -10 l12 10v8l33 -26v-62l-51 -24l-80 8h-25v10h-51l-80 -18h-61l-8 -10l-62 34l-6 9v71l76 8l53 -26l43 8l-10 98l-6 15v28h6v25l-14 18l14 70l-14 18l8 76l6 19v24l-14 19l-11 -9v78l25 17l10 8l-16 28l6 9l-33 18l19 17v45l8 6v18l-8 8l-29 43l37 43l-8 37l-29 25l29 69 l-37 35l-49 33h-46l-10 12h-18zM367 750l14 -43l61 -13l56 -18l30 -6l19 24h80l14 -24h55l52 43l10 8l8 -8l16 18v43l-24 45l24 49l-10 13l-24 14l-9 35l27 51l-45 18l-19 -8l-6 -10l-43 18l-26 11l-19 8l-35 18v19l-32 14v-59h-29l-14 -19l-13 8l-43 11l-24 -29h-45v-14 l8 -29l-14 -57l14 -19l-8 -26zM399 782v25l11 -6v-19h-11zM399 905v43l19 19v-19h-8l-11 -10l19 -25v-18z" />
<glyph unicode="I" d="M156 66l10 26v6l76 29l43 8h30l68 25h33l18 -19l10 13l15 -13l12 -6l18 25l-12 12h12l7 33v61l-7 80h7v25l-7 6l15 18v70l10 10v14l-18 19l18 43l-10 37v88v104v33l16 53l-16 15l10 45l6 10l-16 18v43l-78 9h-16l-19 -19l10 -8h-28v8l-88 10l-58 9l-37 34v70h9l10 8 l51 25l150 10h-9l-10 -10l105 -8l24 18h98l60 -10l16 18l56 10l24 -18l51 8l62 -8l61 -10v-8l19 -17l-11 -63l-32 -31h-29l-70 -27l-18 15l-6 -6l-19 18l-43 -18v-9h-18l-27 27l-43 -18h-6v-37l17 -58l-11 -45l-6 -10l17 -25l-17 -18l6 -164l11 -209l16 -139l-8 -10l8 -8 l29 -123l51 12h24v-12l80 -6l94 -13l62 -67l-51 -76l-43 -31h-72l-139 -6v6h-51h-29h-43l-15 -6h-28l-15 19l-36 -13v-6h-25l6 6l-24 19l-70 -19l-25 13l-55 -19l-18 6l-15 13l-18 18h-68l-10 57z" />
<glyph unicode="J" d="M147 270v15h11l14 18v70h10l8 37l43 43l62 6l51 12v-12l10 -6l9 6l36 -15l7 -10l12 -24l14 -27l-8 -25l18 -18l-18 -18l8 -9l-26 -34h-7l-12 6l-14 -15l-43 15h-37l-19 -15v-53l13 -8l24 -68l43 -45h9l24 -28l12 10l76 8l10 10l19 -28h8l6 10l62 8l55 37l-12 6l55 70v10 l-10 8h10l14 62l-24 24l10 27l6 28l8 33v10l-4 -8l-10 8l6 9l8 -9l11 9l-19 34l8 70l-14 18v33l-10 10l16 164l-16 25l-8 55l-11 62l19 14l-8 10l8 8l-27 62l-43 -8v8l-43 6l-8 -6l-29 -8h-6l-18 14l-9 -6l-53 49l-8 61l25 19v18l18 19h27l10 8l43 6h8l18 -14l25 24h43l8 9 l29 -9h25v-10l32 -6l13 -8l32 24l97 -10l75 -14l31 8l49 -19l27 -45l-19 -16l11 -8l-25 -70h-18l-11 -10l-26 -14l-49 8l-13 -8l-32 -29l-25 18h-18l-19 -106v-68v-75l19 -19l-25 -70v-71l-18 -70l18 -43l-18 -18l6 -6l-6 -113v-98v-43h-19l-51 -52v-36l-43 -25l-29 -33h-14 l-19 -28l-10 10l-26 -25h-7l-12 6l-6 -6v-18l-149 6l-52 18l-34 19l-52 33h-24l6 10l-37 18l-14 51l-35 52l6 10l-6 6l-8 45z" />
<glyph unicode="K" d="M55 1085l11 27l61 29l57 -19l107 27l35 -8h8l10 8l33 -8h18l8 8l35 16v9h37v-9h-10l-8 -10l69 -25l6 11l46 -62v-18l-9 8l-18 -27l-62 13l-100 -45l-18 -72l-13 -70v-250l13 -36l24 -50l19 15v28l43 7l18 36l8 15l6 18l11 25l26 37l35 18l8 8v25l70 55l10 17v26h8l7 6v19 h18l25 43l-15 37l15 32v19l-15 18h-61l-10 25l18 43l43 37l98 8l33 16l43 -16l86 16l98 -16l-10 -8l10 -11v-94l-18 -45l-35 51l-63 -6v-18l-50 -19h-8l-18 -18v-6l8 -8l-51 -54v-26l-43 -25h-19l-51 -61l-28 -27l10 -10l-25 -25l8 -8l-36 -55l-15 -25l-12 -51l-6 -10l6 -8 l37 -50l8 7v-7l35 -18l88 -174l86 -98v-25l26 -18l44 -43l-9 -9l33 -6l88 -30l10 -7v-104l-18 -33l-18 15l-130 10l-8 8l-28 -27l-95 19h-69l-25 8l-28 10l-33 15l-70 -33h-10l-8 8l-25 -27l-43 9l-55 28h-6l-19 -18l-18 18l-33 -18h-117l-86 8l-24 10l-8 51v25l43 18l18 19 l51 -12h19l32 36l11 132l18 24l-10 70l-19 18l19 25l-8 37l18 18l-10 104l-8 43l24 44l-6 77l-10 68l16 18l-6 70l-10 123l-27 24l-37 -6l-57 -12h-18v12l-35 6zM377 199l12 -9l14 -67l11 6h43h51l24 12l74 -37v-18h15l10 -8l18 18l25 27l8 6l61 -6l19 24l6 25l-68 64 l-61 49l-33 18l-18 19l-19 18v25l9 26l10 68l-19 55h-8l-29 -55l-6 12l-51 -27l-10 -28l-19 -25l-8 10l-24 -43l-25 -12v-24l6 -37v-68z" />
<glyph unicode="L" d="M0 43h10l8 61l7 25h217l28 12l9 6l18 -18l43 12h18l15 15l-8 96l-7 8l15 19l-8 51v61l8 25v28v164l18 37l-18 62l28 14l-10 10v19l19 14l-19 29l-8 94l-10 26v25l10 -8l33 61v27l-25 18l-26 6h-7l-10 -6l-26 -12l-19 18l-104 -6l-33 -18v6l-19 12h-24v6h-37l-51 -24 l-25 37l8 6v18l-18 19l18 14l-8 10h8l7 27l28 16v-10l27 -6l18 -8h25l6 8l64 16l155 -10l17 19l63 -9l43 -16l6 6v-6l55 -19h15l43 35l98 -10l51 -6l54 -27v-18l8 -6v-37l-37 -19l-14 -24l-37 6l-6 -6v-8l-56 26h-112l-7 6h-10v-180l10 -174v-12l7 -6l8 -105l18 -45v-33h-8 l-18 -71l8 -6l-15 -19l-10 -61l-8 -8l25 -37l-7 -68v-27l33 -49h123l105 -12l26 18h19l6 9l24 28l45 25l11 156v45l-19 24l8 10v27l25 25v43l43 26l45 10l35 -36v-25l18 -18l-10 -43v-9l-8 -10l18 -18v-58l8 -12l-18 -16l10 -70v-33l-10 9v-52l10 -37l8 -61l-69 -104h-70 h-67l-29 -15l-27 6l-86 9h-26l-6 -9h-80l-52 19l-18 -19h-86h-61v9l-19 18l-8 -8l-35 -10l-8 -9l-18 19l-25 -19l-141 -6l-33 25l-70 -19h-28l-15 37l8 6v9z" />
<glyph unicode="M" d="M27 1079l24 60h39h88l25 -19l33 19v6l10 12l45 -27h76l10 -34l26 -9l43 -55l-8 -16v-94l27 -88l-19 -37l7 -6l12 -27l16 -35v-61l8 -70l25 -43v-43l18 -18l19 -33l27 -37l34 55v-12l9 -6l34 43l9 43l18 18l-27 43l17 70h10v61v43l25 33l18 19h18v-70l-18 -25l8 -43 l-18 -18l18 -19h-8l-18 -43v-8l-19 -18l12 -10l-18 -15l33 -37l-15 -16l7 -8l-19 -19l12 -6l-18 -18l18 -43l-12 -27l-16 -43l10 -10v-27h-10l-17 -61l9 -62v-14l24 -29l-6 -8v-6l51 -12l17 18h26h37l6 -6h10l9 25h18v43v61l6 8l-18 37v43v25l18 51l-18 18l18 52l-6 43 l18 18l-12 123l-6 8h18v68v43l15 18l-8 184l-37 60h-6l-9 -15h-10l-6 -45l-12 -53v-18l-6 10l-9 -43l-61 33h-18l-7 10l25 70h8l10 43v45l7 -9l8 9v16h10l27 33l86 12l69 -18l19 18h18l43 -45l43 18h8l11 -10v-18l-43 -6l-74 -37l-25 -51l-18 -80v-25l-14 -18l24 -15l19 -98 l14 -43v-27h-6l-19 -16l11 -70l8 -26v-35v-43l18 -45l-12 -76l-6 -80v-61l6 -33l18 -29v-43l25 -14l63 6v-6l25 -12l29 -62h8v-14l-45 -29l8 -6l-113 6l-18 -14l-33 -18h-18v8l-35 10l-33 14l-88 -32h-25l-55 43v18l-6 8l-27 -26l-10 8l-18 -25l-15 -18h-61l8 10v8l-51 25 l-27 -8l-28 -35h-43l-146 -8l-10 -11h-25l-45 37l-49 17l-63 -11v11l-17 18l-8 59l8 -8l35 51l8 -8l6 8v11h19l18 -19l9 8l34 19l9 86l10 10l-10 8l-15 51v43l15 29v88l10 119v18l-10 7l-9 55l-6 8l15 16v27l28 35l-18 27l18 67v37l-10 8l-18 35v8l18 19l-18 43l-25 24 l-8 -6v6h-70zM272 623l7 -58l18 -18l12 -10l-12 -9l-6 -49l43 -18v-19l-25 -24l6 -56l9 -57l10 -45l6 8l27 -18v-33l18 -29l-18 -14l28 -29h25l33 11l18 -19l10 -43h17l-9 8v43l-24 43l6 11l10 51l-16 18v19l-12 61l-7 86l-61 78l35 16l8 62l-25 78l-8 10l8 43l7 27l-7 -9 l-8 9v6l8 10h7l-7 8v37l-18 18v7l10 8l8 43l-8 10v18h-18l-62 52h-18v-19v-43l-25 -26v-129l7 -9v-37zM315 748v14h15v-14h-15zM655 102l9 -8l18 19h-10z" />
<glyph unicode="N" d="M20 1059l62 37l45 43v-11l6 -8l19 33h36l7 12v-12l112 -25l55 11h50l63 -37l6 8l56 -43l24 10v-37l8 -6v-18l-8 8l-18 -16l-6 8l-27 -37l14 -43l13 10v-18l49 -49l12 -37h-12v-62l26 -43l11 -75l51 -74v-6l18 -9l-8 -61v-25l8 -12l-8 -18v-25l14 -8l19 -25h24l19 -18h26 l29 -10l14 -15l29 15l-10 37l-8 43l-19 24l8 62l-8 8h-6l25 18l-19 19l8 61v86l-8 27v24l8 11l-8 8l-6 43l-18 24l8 88l-27 25h-67l-27 18l-37 -6h-24l-19 43v51h8l11 11v14l-7 -4l-8 8l4 6l11 -10l24 29h70l24 14v-6h37l107 6h180l10 -6h27v-8l6 -11h18v-18l9 -8l10 8v18 l-62 -120h-8l-18 -17v-18l-43 6h-53l-33 -14v-29v-33l33 -53l-33 -33l-13 -45l19 -16l-25 -88l6 -52l13 -79l-19 -19v-110h-18l-6 -9v-18l24 -19l-8 -6l14 -18v-80l-6 -6l25 -37v-33l12 -28l15 -76l-15 -19l6 -8v-28l-37 -52h-14l-10 -6h-33l-61 25l-11 -10v10l-8 8h-18 l-19 86v10l-57 8l-29 7l-8 55l-6 -10l-10 34v19l16 18l27 -10l43 37l-43 43l-33 -12l-10 -25h-27v37l-18 18v49l-6 9h-11v18l11 -8l6 8l37 10l24 -28l-6 -33l6 -10l37 28v33l-18 35l-11 8h-14l-10 37l-19 18l-14 15l-29 16l-8 37l-18 51l10 10l-29 46l13 6l-45 43l-43 -62 l-19 37h-6l-12 6l-25 -61v-6l8 -9h-8v-34l19 -19v-45l-19 -16l19 -88l-11 -43v-15l17 -18l-6 -10l18 -15v-30l-12 -7l12 -8v-35l-18 -18l18 -88l100 -18h45l17 -7v7h26v-7h-8l-6 -8l6 -10v-104l-43 -27l-61 12h-183l9 6h-105l-51 -18l-51 27l-29 -9l-43 19v33l29 18v43 l94 43l-8 12h26l19 15v71l6 27v24l-6 7l-12 45l26 28v52l-14 16h6v88l-18 61l26 9l17 16l-31 70l6 94l8 10v-10l35 -14l18 14l-24 43l-12 -6l-7 43l-18 18l-6 105l-37 8l-27 6v12l-34 6h-27v11l-49 26v19zM395 737l11 -8l24 -18l19 26l26 -26v-6v67l-26 8l-19 -24h-35v-19z M727 588l45 131l6 -8l19 -129h-11l-8 -37l-18 -15zM735 903h6l13 -10v-8l-13 -6z" />
<glyph unicode="O" d="M90 514v25h12l7 131l26 112l53 105h9l10 26v25h14l19 18v25l24 37v24l55 43l7 13l26 -19l99 62l32 24l43 -10h29v-6l14 -19h37l35 -18h14v-14l56 -19l24 6l70 -49l18 -18l70 -51l25 -99l43 -61v-14l-7 -11l43 -26l7 -105l18 -24v-52l-18 -28l18 -15v-61l-25 -18l-18 -37 v-25l10 -8v-37l-28 -43l-7 -61l-45 -52l-6 9l-43 -103l-31 -28l-6 10l-8 -10v-15h-16l-13 -10v-18l-6 10l-18 -25l-8 6l-19 -24l-16 -19l10 -6l-61 -12l-19 -25h-18l-6 -8l-64 -10h-78l-59 18l-62 52h-36l-43 34l-19 19l12 8v18l-36 7l-19 18l-33 80l9 6l-52 55l-18 58v28 l-18 17l18 35l-18 45l-7 43zM258 688l18 -141l7 -156l18 -61h8l53 -51l-10 -9l54 -71l45 -33l-13 -10l37 -33l37 -19l-12 -8h18l8 8l43 -18l19 10l10 8h8l25 -8l61 33l19 37h8l-8 6l43 45v53l45 103v61l30 43v37l-14 43v61h8l-8 33l14 37l-24 19v75l-25 11l-45 94l-6 8l6 10 l-35 25h-26l-19 18l13 8l-27 43h-29l-51 19l-6 -8h-43l-74 -19h-32l-68 -53v-43l-37 -14l8 -13l-16 -18l-29 -57z" />
<glyph unicode="P" d="M80 29l8 24v29l43 24l-8 9h18l9 -9l6 9l30 18l50 -8l8 8l28 25l43 -19v-6h45l7 43v19h8l10 8v24h6v166v80l12 330l15 33l-8 43l-7 12v76l15 28v15l-33 18l-10 10l-15 -16l-18 16l-18 -28l-43 12v6l-9 10l-18 -16l-61 6l-37 19l-25 43v18l55 33l-12 10l80 -10l8 -8l35 18 h78h35l106 -10l49 -25l27 10l43 25l29 -10l32 -8l43 -7l80 -10l51 -8l37 -37l43 19q6 -6 11 -13q4 -4 6 -9t4 -5l22 -35l43 -18l-10 -6l29 -52l-11 -10l25 -27l31 -53l14 -78l-27 -77l-24 -45v-25l-37 -33l-6 8l-19 -26h-18l-14 -43l-19 -19h-37l-32 -18l8 -6l-88 -19h-49 h-31l-57 -18h-54l-8 -8l-37 18l-33 -10l-10 -33v-29l27 -26l-27 -25v-6l10 -12h-10l-18 -33l12 -10l-12 -8l28 -35l9 -88l43 -43l69 10l19 -29l43 10l24 19l27 -19h18l11 -67l-19 -19v-24l-24 -37l-37 6l-80 19l-57 -7l-19 -18l-141 6l-8 12l-7 -12l-36 -6l-19 18l-94 -12 l-18 19l-19 -19l-49 12l-45 19h-17l-8 33h-18zM522 879l10 -76v-148l27 -43l25 -8h149l33 8l35 -18l51 53h18l11 -10l45 25v12l6 43l43 51v16h-6l-11 45v35l-18 15l-33 45l-12 28l-14 -10l-11 -8l-6 8l-63 16l-17 27l-51 25l-69 -25l-29 43l-25 -18l-78 -6v-27l-10 -53v-45z " />
<glyph unicode="Q" d="M102 465l11 174l16 80l10 24l33 62l-8 33v12l18 16l-10 8v19h10l25 33l8 18h10l8 25l68 71l31 9l33 6l-9 12l25 6h18l27 55l68 7l12 8l143 -8l37 -35l-6 -8l76 -37l35 -31l51 -27l18 -28l37 -70l25 -18l26 -31v-98l35 -60l14 -78l-6 -96l19 -16l-19 -62v-63l-18 -17v-69 l-25 -70l-18 -16v-8l10 -11h-10l-27 -94v-26h-35l-51 -68l-8 6l-18 -18l8 -43l37 -25l24 6h8l11 37v25l104 18l33 -43l26 -61l-16 -43v-52h-10l-6 -18l-88 -80l-99 10l-32 9l-11 10l-24 33l-8 -7l-19 17l-6 -10v10l-18 16l-11 -8l-26 43v18l-33 25h-29v8l-14 19h-98l-68 18 v19l-45 6l-35 37h-27l-49 61v14l-18 19l-27 24v29l-35 27l-8 32l-24 29v25l6 8l-25 35v26l6 6l-16 19l10 26l-18 17l8 55zM258 352l29 -51l26 -53h52l16 -19l63 11l31 32l12 19l43 18l19 -18h24l19 10l14 -29l37 -14v-10l37 -19v-8l68 -35l32 43v54l19 18l43 121l26 35h-8 l-6 45l-12 24l18 37l-18 43l-6 8l6 43l12 68l-45 45h-18l-25 16l-18 9v61l-25 25h-18l-11 55h-8l-6 25l-31 18l-33 -18l-24 26v10h-19l-10 -10h-33l-61 10l-37 -43l-14 -36h-10l-43 -44v-24l10 -12l-29 -25l-33 -33v-43l-18 -37h-8l8 -8v-10l-25 -33l-12 -71l29 -27v-25 l-11 -8h-6l-12 -61l29 -62zM549 55h24v11l27 32l-18 19h-9l-24 -25v-37z" />
<glyph unicode="R" d="M27 1055l18 73l107 15h49l12 -8h16l9 8l88 10l6 8l123 -8v-10h61l27 10h18l31 -35h18l19 25l26 -8l35 -7l70 -10l37 -18h43l32 -33l-4 4l9 10l6 -8l-11 -6l68 -98v-15l12 -10l25 -139l-19 -43l13 -25h-13l-24 -61l-37 -19l10 -8h-24l-11 -28l-69 -52l-6 9l-31 -33v-27 l18 -16v-27l13 -10l14 -25l10 6l8 -51l17 -49l-6 -55l6 -8l8 -17l-14 -18l6 -107l37 -24l32 -8l19 -17l6 6l37 19l-6 10h30l13 -10l6 10l37 -35l8 6l6 -24v-19l-14 -14h-37l-6 -10v-19h-56l-24 19l-27 -19l-104 29v14l-6 11l-37 51v61l-8 8v80l8 123v6l-19 19l11 8l-11 10 h-18l12 8l-12 6h-25v29l-51 33h-18l8 10l-59 27l-11 6l-6 -6l-37 -10l-18 16l-70 -6l-16 18l-33 -18l-18 -19v-24l-9 -131v-70l9 -10l6 -105l12 -8l6 -43v-8l19 -18l51 8v-19l98 -6l17 -18v-43l-35 -33l-45 25h-43l-19 -19v-6l-49 25l-37 -11l-69 -8h-68h-70h-37l-24 8 l-19 19l9 10l-15 14l15 29l10 8l61 17l76 26h37l25 43v43l8 8l-8 11l8 163l10 11l-25 18v43l-12 8l19 35v70l-7 8l-12 123l-16 18l10 58l18 28l-12 43l-43 33l-6 12v33l25 17l-25 26l-12 -8h-58l-61 27h-10l-9 -9zM412 676l69 16l17 -16l18 -27l33 -18v-10l18 18l56 25h49 l18 28l62 8l32 25l13 55l24 6v52l-10 12v61l18 15l-26 28l-6 -10h-13l-32 25v18h-29l-43 37l-25 -37l-88 10l-32 -18l-29 27l-14 -19l-37 -18h-25l-10 -8z" />
<glyph unicode="S" d="M174 68l19 61l-13 43v18h13l14 52l-8 55l-6 49v80l14 27l61 -9v-10l62 -33v-43l24 -79h19v-19l61 -51h19l8 -37l94 -31l10 6l19 -18h32l11 12v15l86 10l32 51l37 19v16l33 33l-8 12l27 43l-19 33l37 37v6l-8 10h8l6 8l-14 25l8 12l-37 33v10l-24 6l-107 45h-33l-24 17 l-11 -7h-106l-57 33l-29 -8h-33l-10 8l-27 54l-43 8l-51 61l-10 8h-14l6 11l-25 43v32l-24 37v62l-19 14l25 18v25h18l19 18l-11 11l17 14v31l8 -13l37 27v29l43 24l24 -10l43 29l13 -11l51 35l6 -10l37 29l51 -19l16 -10l19 -14l88 -11l51 -26h29l6 -25l51 -43h10l9 62 l10 43h51l25 -19l12 -61h-12l-33 -62l26 -43l-12 -32l19 -19l-7 -86v-12l-26 -25h-17l-26 62l-10 -8v26l-27 25l-6 43l-10 -6l-9 43l-18 8l-25 16h-10l-8 -10v10l-19 8l-24 19l-8 -8l-54 51l-45 -6v6l-32 8h-29l-33 -14l-10 -13l18 -18l-61 -25l-57 11v8l-19 18h-12v-26 l12 -11l-18 -18v-25l-19 -18l-8 -43l27 -45l-19 -14l11 -54l32 -32l62 -29l8 10l37 -24v-13l6 -6h10l8 6l37 19l6 -6l19 14l155 -59l80 8l33 -25l43 -80h19v-8l36 -10l25 -60l-6 -10l33 -33l10 -34h-10v-88l10 -9h-10l-9 -10l25 -33l-6 9l-37 -107v-16h-6l-19 -52v-8 l-18 -18l6 -10l-43 -15l-33 -43l-34 -18l-27 8h-25l-10 -8l-102 -10l-43 -27l-29 18l-27 27l-75 -8l-56 43l-30 18l-56 -37v-16h-94l-18 16z" />
<glyph unicode="T" d="M125 700v37l33 43l-6 58l-9 28l25 33l-10 37v25h10v36v27v76l-16 18l86 68l51 10v-10h71l9 10l18 -16l25 24l24 -8l80 -10h8l11 -6l8 6l18 -6h25l18 16l62 -10l57 -6l43 -9l31 25h14v-10l53 -6l51 -9l43 -28l13 -51l6 -7l8 7v-37l29 -6l-29 -52l10 -10v-33v-73l-18 -15 l27 -80l-9 -24l9 -10h10l-19 -33l9 -37l-33 -68l-80 7l-19 141l11 8l-11 10l-8 33l-10 37v24l10 62l-24 18l-19 43l-18 15l-25 -6h-12l-14 18l-29 -70l-14 -18l-19 25v45l19 18l-11 25l-26 -9l-25 -53l-10 -69v-44l18 -24l-18 -19v-26v-68l10 -12l-18 -16l8 -70v-18h-8 l-6 -7l6 -8l8 -80l-27 -18v-25l-6 -8l6 -10l13 -19l-19 -14l6 -61l13 -43h-13v-123l56 -33l6 6l69 -37l37 37l43 -24l43 -13l8 13l35 -19l19 -18l8 -70l-43 -6l-19 -18l-8 8l-18 -19l-80 11l-94 8l-86 10l-80 6h-8l-17 -16h-26l-25 -19v11l-43 24l-55 -6l-33 -18l-53 8 l-8 10l-25 33l6 43l19 43l79 18l25 -24l45 6h16l9 12l37 6l32 -24h17l18 18v49l8 80l19 14l-19 37l11 43l-19 19l-10 51l18 18v80v68l-18 33l10 12l-18 33l8 28l37 49v27l-8 10l-11 27h-8v129v33l-18 28l-78 9v6h-27l-51 -25l-10 -43l28 -26l-10 -35h-33l-28 -15l-8 -116 l-7 -9l25 -43l-10 -51l-27 -28l12 -7l-55 -43l-61 25zM680 874l37 -8v-43l-19 8z" />
<glyph unicode="U" d="M57 1118h11l8 10l16 15l8 -8h29l14 18v-10l37 -15l51 15l11 -8h6l18 18l45 -18h6l11 8l-11 10l43 -18l19 18l70 -10l53 -25v-78l-10 -10l-95 -18v12h-43l-26 -45l8 -53l18 -15l-8 -30l-35 -43l6 -7l-14 -18l8 -8l25 -25l-19 -88v-71l-14 -33l8 -10l17 -43l-11 -60h-6v-61 l17 -19l-11 -6l19 -18l-19 -19l19 -51l24 8l-6 -8l6 -10h19v-25l12 -8l-18 -18l6 -25v-18l55 -25l51 -12v-6l17 -19l131 6l51 13l53 61l-16 14l16 19h33l37 43l-10 10l-9 14l19 19l-10 12l-9 76l-18 18v62l12 -13l15 62v45l18 18l-18 25v37l-9 24l9 9l-9 10l-6 61h6l9 6 l-27 45l12 35l-8 -6l-6 6l2 8l12 -8l25 45l-10 43l-15 15l-12 28l-33 27h-71l-58 6l-18 37l6 6v19h12l25 43h51l18 18h19l16 -18l45 8l25 10h18v-10l52 -33l24 18h62l18 15h25l18 -8l33 -7l37 -36v-62l-95 -18l-28 18l-45 -18l-25 -25l10 -94l9 -62l6 -94h-6l-25 -45l16 -61 v-113l15 -16h-6l-9 -125l-10 -76l25 -35v-26h-6l-9 -35h-10l-18 -19v-26l-15 -19l-18 -57l-10 -29l-33 -24l-10 10l-15 -37l-12 8l-6 -8l-27 -24l-53 -13l-27 -30h-24v6l-25 24l-45 -14l-43 14h-53l-45 19v12l-49 6l-37 19l-33 86v8l-55 61l-25 70v192l37 35l-43 88l25 51 l-19 123h19v49l-19 45l8 7l-8 12v31l8 12l-8 6l8 12l-14 33v62l-31 43l-32 -25l-25 16l-61 9l8 6l-8 12zM702 422l43 -19v-8l9 -6l-45 -18z" />
<glyph unicode="V" d="M20 1165l27 19v14l19 19l32 12l203 -12h76h104l37 -33l6 -105l-43 -18l-80 8h-24l-8 -8l18 -25v-80l-10 -8l10 -10l33 -76v-69l18 -11h25l12 -26l14 -6l-14 -19v-69l6 -148l37 -80l6 -33l51 9l29 43l14 86l-14 79l33 15v80l12 -6h6l19 57l24 37l19 18l-10 6v99h10l8 6v26 h10l8 11v8l-18 6l-8 61l-10 27h-52l-18 16l-6 -6l-37 51v25l24 43l46 12h71l156 -12l8 12h68l45 -12l53 -14l33 -72l-6 -51l-9 -6l-98 -19l-18 19h-15l-28 -37h-25l-33 -51l6 -29l-34 -33v-37l-9 -6l-6 -55l-18 -33v-10l6 -8l-18 -17l-7 -63l-36 -86l10 -8v-25l-35 -43 l10 -10l-18 -17v-16l8 -12l-18 -15v-61l-33 -61v-19l18 -18l-18 -15l8 -10v-51h-18l-15 -19v-86h-12l-6 -43l-70 -51l-10 -10l-8 -8h-25l-88 104l16 15l-8 30l19 15l-19 16l-18 131l-19 27l13 28l6 7l-25 26v10l6 9l-24 24v53l-19 33l11 12v7l-11 8l-14 35l6 8l-24 55v119 l-37 80v24l-6 62l-37 37v8l-6 6h6l10 10v19l-6 -6l-8 6l4 8l10 -8v51l-53 18l-94 -24l-19 6l-18 18l-6 -10l-37 43v43z" />
<glyph unicode="W" d="M37 1085v7l53 36l62 -10l16 -18l16 28l13 -10h24l-10 -8h53l8 8v10l62 -43v-18l8 -12l10 12l-26 -12l-86 12l-11 -12l11 -6l-11 -9v-28l35 -43l-10 -33l-8 -43l8 -12l29 -25l-11 -6l19 -19v-122l24 -17v-28l19 -7v-79l18 -33l19 -19l32 37l-8 6l19 19v43l14 18v15l-14 18 l24 43l27 12l24 58l-6 10l6 8l19 10v-53l-8 -27v-6l45 -28l43 10l6 6l27 12l24 76l43 -76l31 -55l14 -18v-113l19 -6l-9 -27v-35l9 -8h10l14 14v37l19 25l-9 27v18l-10 10l29 8l24 25l-10 43v55l29 15v86l14 18l-24 70l36 43l33 10l17 33l-31 37h-37h-8v36h8v-12l6 -6l12 6 l105 12l8 15l25 28l10 -10h27l-13 -8v-10l13 -8l6 8l-6 -33v-27h-13l-14 -16l-29 25h-6l-8 -9l-10 -79l-19 -68l11 -70v-43l-19 -61l8 -10l-14 -17l6 -28h-6l-18 -43v-76l-19 -19l-6 -51l-12 -86l-7 -123h-12l-14 -37l8 -8v-24h-8l-10 -11l10 -8l-19 -43l9 -51h-9l-24 -72 h-10l-9 -8v-18h-18l-6 -6l-29 -13v-6h-14v6h6l8 13l-26 18h-33l-19 43l-16 14l-8 80v131h8l6 6v29l-6 8l-8 105l-43 51l24 70v28l-18 15l-16 61l10 10v8l-19 19h-10l-14 -19v-26l-31 -35v-33l12 -55h-12l-6 -62l-19 -112l11 -25v-18l-17 -19l6 -6l11 -61l14 -45h-6l-8 12 l-17 -74l6 -51l-24 -6l-45 -37l-94 8l-43 62l8 209l-37 51l10 37v18l-10 6l-25 70l17 18l-6 25v27l-11 10l-18 24l10 80v33v27l8 34l-18 37l18 15l-8 10h-18l8 69l10 7l-43 55v25l-10 8l10 61v10l-10 9l-16 -19l-54 10h-24l6 9l-25 18zM342 475h16v8h-16v-8zM352 489l6 13 l-6 33v-46zM508 936l18 43l-12 27v18l18 6l27 25l-8 -2l-6 18l6 2l18 -33h-10l-8 -10l18 -18l-10 -86l-27 -27zM569 1092l43 26v-8l52 -10h24v-8l12 -7h19l-12 -55h-62l-6 -6h-27v6l-18 19l8 24v12l-8 7h-25zM621 866l18 15l16 -15h-34z" />
<glyph unicode="X" d="M29 86h10l8 37l25 18l12 -12l14 18h62l104 9l37 43l14 71l72 33v43l14 45h31l25 43l-11 10h11l6 33l45 43l-8 12l32 25l19 51l-8 10l26 27l-26 43l-62 33l8 86h43l62 -76l55 19l15 32v54l28 45l-10 6l43 51l18 29l-8 43l-43 32l-18 19h-37l-6 37l-10 -13v27l53 37h88 l31 6v10l79 -10h52l12 10v-10l104 -6l33 -19l25 -45l-6 -24l-45 -19h-105l-6 -6l-64 -18l9 -8l-25 -29l-33 -86l-37 -33l-8 -26l-10 -17l-33 -55l8 -8l-36 -25l-25 -80v-18h-8l-10 -6v-27l18 -18l25 -95l28 -61h8l7 -35h36l-8 -8l51 -37l37 -129v-27l25 -18l18 -16l9 10v-19 l24 -18l19 -18l43 12l43 6h45l16 -25l18 -8l15 -18l-15 -78l-53 -18h-69l-7 -9l-18 19l-43 -10h-64l-16 28l-70 -10l-24 -8l-27 -10h-18l-19 18l-6 -8l-37 8l-6 35l-18 18l6 58l37 18l43 -6h8l18 43l-8 6h-10v27l18 18l-18 35l-18 18l10 9l-10 6h-9l-24 18l-10 107l-43 77 l-17 17h-16l-19 -27v-61l-51 -25l-18 -26l-11 -7l11 -12l-11 -61l-14 -25l-18 -18l6 -6v-19l-6 10l-11 -43l-26 -37l37 -18l43 -6l43 -12l8 -7h18l19 -69h-13l-14 -35l-147 -8l-45 -19l-11 9h-14v10h-117h-118l-25 24l-12 -6l-33 33zM90 1104l27 18v19l43 24l43 9l18 -19 h113h53h33l61 -6l88 -8l6 -62l-32 -43l-68 25l-37 -6l62 -150l-11 -55l-14 -14l-37 8l-43 51l-26 61l-17 19l6 6l-43 18v25l-32 18l-105 -18l-61 18z" />
<glyph unicode="Y" d="M49 1104l8 45v16l131 19l129 8l37 25l105 -33l26 -10l7 -25v-19l36 -26l9 8l34 -43v-8l-16 -19h-63l-50 -51v-67l25 -29l25 -59l36 -29l52 -25l69 68h17l26 37v8l-8 10l18 19l-10 24l19 19l-9 8l33 49v18l-43 37l-51 6l-25 45l7 25v10l26 27l359 6v-6l18 -8l49 -35v-51 l-35 -13l-59 -16l-43 -45h-18l-25 -25l6 -24v-27h-35l-14 -24l-18 -19v-37l-19 -18l6 -6l19 -25l-33 -18l-16 -19v-18l-37 10l-9 -10v-14h-10l-8 -62l-16 -55v-33l-9 -10v-15l-10 7l-33 -43v-52h-10l-16 -43l16 -98v-76l10 -10l25 -51l27 -10l16 -15h125l33 -28h16l-6 -9 l6 -6l19 -55l-11 -25v-18h-14l-10 -18l-94 -9l-64 -6h-43l-6 6l-12 -6l-95 -10l-24 -8v8l-10 10l-19 -18l-26 18h-7l-10 -10v10l-8 6l-8 -6v-10h-29v10l-49 6h-94l-13 -6l-24 25l-37 51l37 70l24 28h156l45 6l10 113l19 43l14 19l-26 51l12 61l14 43l-26 80l-7 8l-10 37 l-45 25h-14l8 6l-18 31v24l-19 19l10 6l-10 8l10 10l-10 8l-6 37l-27 17l-37 77l-61 86l-68 19l-18 6l-14 18l-80 19l6 8z" />
<glyph unicode="Z" d="M172 55l14 62h11l18 37l68 86l8 26l10 -8l33 43l10 70h16l29 75h14l19 43l18 19l-8 10l25 27l8 43l10 18h14l37 43v27l25 16l12 51l58 37l10 86l76 78v53l-15 27h-53h-27l-24 -27l-43 9h-19l-18 24l-6 -6v6l-62 19l-37 -62h-26l-17 -26l17 -50h-17l-8 -18l-24 -27l6 -80 l-25 -16v-18l-43 -15l-37 33v43l-14 37l6 31l19 45v114l8 45v15h10l14 35l11 -7l32 33h37l19 19l43 -9v-10h32l62 19l27 16l34 -10l37 -6l94 -9h37l6 9l27 -19l43 19h25l61 -37h27l28 -43l-10 -33h10v-27h-10l-33 -34v-19l-37 -33l19 -18l-19 -18l7 -7l-43 -30l-33 -76 l-19 -19v-6l9 -10l-43 -27l-33 9l-37 -52l10 -8h-10l-18 -71l12 -7h-12l-7 -8l7 -10l-76 -51l-10 -62l-60 -8l-10 -18l-19 -25v-43h-14l-10 -29l-43 -26l-78 -86l-10 -43l-25 -45v-19l-18 -14l37 -29l24 29v27l8 6l29 -19h6l8 13v-19l29 -8h70l33 14l28 19l25 -6v-19l43 -18 h33l12 10l76 14l10 13l61 61l15 33v53l18 51l-6 37l-12 25v26l43 43h12l6 -8l19 14l36 -6v-18l-10 -8l17 -17l-7 -125l-28 -49l-15 -37l15 -94l-8 -18l-7 -70l-61 -24l-45 8l-19 16l-16 -16l-8 10l-37 -29l12 -8h-45v8l-16 19l-27 -19l-53 11l-8 -11v-14l-25 -12v12l-61 33 l-80 -19l-51 29l-123 -10l-8 -8l-19 -11z" />
<glyph unicode="\" d="M29 1360l6 45l37 10l32 -24l43 -13l29 -24l45 -94l68 -107l61 -190l27 -9l33 -61l-9 -43l37 -55l101 -146l36 -104l-8 -10l95 -95l45 -106l49 -76l-6 -10l79 -150l43 -24l15 -62l-6 -43l24 -26h10l27 -62l-18 -24l18 -27l6 8l37 -8v-25l43 -53l19 -69l-29 -9l-51 33 l-52 117l-61 33l-18 37l8 6l-25 37l10 6l-28 26h-8l-7 35v19l-36 51h-19l-24 55l-9 49l-10 37l-51 25l-10 26h-9l-18 80l-33 43l-104 217l-70 43l-28 103l-43 55l-25 86l-51 61l-25 58l-74 98v43l-24 33l-76 117l-12 -11v25l12 29z" />
<glyph unicode="^" d="M154 1298l118 175l31 12l43 49l137 113l62 -19l8 12l86 -26l70 -72l43 -88l43 -31v-26l98 -72l-10 -102v-11l-60 -24l-43 6l-98 80l-33 51l-86 61l-55 11l-33 51l-86 -25l-10 -12l-45 29l-6 -97l-37 -77l-62 -62l-51 19z" />
<glyph unicode="_" d="M-14 -268l6 -6l8 51v24l29 11l75 32h25v-6l125 -8l18 27l62 -19v-8l33 -10l16 18l27 -8h43h55l24 -18l7 8l18 -19l18 19h19v-8h43l102 8h29h25l32 10l29 8l27 -26l24 26l70 -18h18l35 37v-13l45 -6h25l18 19l25 -27l-6 4l10 10l4 -6l-8 -8l26 -18l25 -68l-6 -55l-12 -6 v-27l-44 -10l-32 -8h-113l-10 8l-33 -19h-141h-113l-80 -6h-14v6h-62l-122 -6l-164 -8h-86l-13 8l-6 -8v-10l-37 18l-18 -18l-68 53l-32 43v33z" />
<glyph unicode="`" d="M248 1229v74l28 51l76 49l107 -25h49l31 -24l6 6v-33l24 -18v-19l37 -30l8 -31l35 -33v-16l33 -19l45 -69l29 -19v-129l-29 -26l-33 -19l-55 19h-25l-8 26l-43 25h-24l-31 37v24l-43 43h-25l-8 27l-10 10l-14 18l-43 -10l-56 53h-18l-15 43z" />
<glyph unicode="a" d="M90 221l27 45l-19 35l11 51l43 19l51 75l18 19h33l37 10v14l-70 19v18l-10 9l-33 71v43l-12 33v43l31 37l-13 8l19 16l-6 27h14l10 10l19 15h14l10 -7l51 35l19 15l18 -15l6 8l70 19l80 -12l6 -7l12 7l111 12v-12l88 -7l37 -18l-12 -6l36 -12h19l33 -52l10 -6h-10l-9 -10 l33 -33l12 -55v-242v-106l7 -43h-7l-12 -8l19 -35l10 -8h14v-11l19 -14l55 25l43 8h25v-8l18 -19l-18 -129l-11 -8v-29l-43 -43v-14l-119 -18l-26 18l-10 -12l-70 45l-25 43l-18 -19l-61 -8l-43 -35h-52l-18 -14h-70l-10 6l-6 -6l-45 -18l-19 18l-6 -12v12h-43l-12 -12 l-25 26l-75 -8l-80 80h-19v14l-24 19l6 24l-14 31zM283 258l8 -61l24 -25h25l18 -18h19v6l8 12h72l86 -12l32 37h37l52 51l-9 10l27 25h18l17 26h-29l-33 25l9 12l18 43l6 -12v18l-24 8v-8l-89 -18l-24 -6h-51v6h-29l-6 -6h-80l-16 -19l-11 8v-14l-6 -12l-12 12h-25l-8 -12 h-16l-8 -25l14 -18zM297 545l10 -27l131 -10l19 37h8l6 -10v-9l10 9l62 16l16 37h29l67 -10l19 36l26 17l31 -17v50l-24 36h-33l-29 19v18l-102 6l-17 19h-88l-18 -19l-35 9l-16 -33l16 -37l-8 -6l37 -70l-62 -55z" />
<glyph unicode="b" d="M37 1110l69 80l44 -10l192 -9l57 -69l-14 -68l8 -61l6 -55l-14 -15l-10 -98h-8l-11 -6l19 -19v-8l-8 -10l26 -19h17l32 43l13 -6l16 43l78 27l24 16l99 -16l67 10l9 6v8l36 -14l25 -43v-37l10 -8l15 -29l12 13l18 -19l-12 -8l37 -18v-25l33 -55v-86l18 -27l10 -6l-10 -10 l10 -8v-37l-18 -62v-86l-19 -14l9 -29l-43 -78v-16l-121 -131l-53 -37h-27l-16 -14h-17l-10 -10v10h-70l-6 -10l-18 18h-25l-37 25l-51 36l-18 19l-105 -64h-37l-24 64l18 43l-8 43v24l14 19l-6 76l-8 12l14 24l-14 43l-10 9v147l18 19l-8 45h8v24l-8 8h8l6 29l-14 33v141 l-10 43l-8 113l-11 6l-24 27l-95 10l-45 24l-16 27zM367 395l8 -24v-70l61 -86l25 -8l61 -62l43 -10l27 -14l43 14l61 29v14l9 10h10l8 33l53 62l8 26l7 43l12 29l-19 51l-8 8l-18 43l18 35l-28 45v68l-43 18l-27 43l-33 27l-16 -27h-80v19h-27l-18 -19v-6l-33 -37l-29 -67 h-6l-43 -64l-8 -35h-10l18 -14l-8 -12h-10l18 -17l-8 -8z" />
<glyph unicode="c" d="M141 414v10l19 16v54l8 51l68 112l26 19l-8 10h8l19 33l43 24l10 29l14 14l-4 -2l-10 7l8 8l6 -13h12l7 13l98 24l6 -6l27 14l53 19l8 -8l6 18v-10l19 -8l80 -11h26l17 -14l32 6l64 -61h10l6 10l45 -35v-18l6 -8h19l-8 -11l8 -8l37 -35v-26l18 -17l-18 -26l6 -6h12 l-31 -80v-8l13 -11h-19l-61 -51l-62 8l-26 17l-19 -17l-24 11l-8 24v8l-11 11v51l62 69l-6 17l-56 37l-6 24l-80 27l-59 10l-10 -10l-43 -27l-43 -16h-27l-35 -33l-59 -61v-13l-29 -24l10 -8v-25h-10v-29l29 -121l8 -10h-8v-57l43 -80h33l45 -61l43 -19l61 -33l62 7l61 36h8 l6 -10l19 53h18l62 64l-11 6l105 37l69 -19v-55l-8 -24l19 -19l-37 -43l-25 -14l6 -12l-49 -62l-18 -14h-27l-16 -29h-8l-11 10l-26 -24h-33l-18 -29h-35l-27 -14l-35 6l-8 -6l-37 -19l-24 19l-6 -10l-19 16h-61l-45 27l-129 79l-27 25l-18 37l-25 43l-18 33l-7 -9l-26 27 l8 6v19l-8 12l-10 100z" />
<glyph unicode="d" d="M139 309l11 10l-11 9l11 129l6 45l8 24l18 19l-8 10l19 14v45l14 17v12l-6 6h6l18 43l19 27l8 -8l86 75l37 19h43l43 26l80 -14h32v-12l37 -6h25v-27l18 -16l52 6l18 24v19l6 -6l10 6v12l-16 14v29l-27 33l27 43l-27 43l-24 18h-29l-8 -6l-113 6l-61 70l8 -8l18 51l17 37 l8 -12l18 30l62 -18h61l9 -12h16l18 18l70 -6l43 -19l18 -43l7 -139v-86l-17 -29l17 -120l-7 -62v-18l7 -6v-43v-45v-35l-7 -8v-11l19 -14l-12 -88l18 -19v-53l8 -121v-16l29 -27h51l18 -24h50l26 -19l19 -18l10 -61l-72 -52h-51l-18 -18l-33 8l-10 10h-27l-6 -10h-62 l-26 29l-10 -10v-9l-43 19l-27 33l-35 -33h-33l-45 -62l-43 9h-10l-14 16l-19 -16h-61l6 10l-14 14h-72l-25 43l-18 19l-8 -9l-51 52v12l8 6l-43 70l-37 43l10 43l-10 12zM287 502l8 -70l10 -113l25 -67h26l37 -31v-14l49 -80l-6 -6h62l6 14h8l18 37l25 6l18 29l37 8l62 61 v19l14 33h10l9 61l-27 51l-6 11l6 118l-16 37l-52 8l-45 54l-35 8l-94 10l-43 -29l-26 -51h-19l-18 -43l-25 -26z" />
<glyph unicode="e" d="M158 440v35l24 8l19 35v70h10l33 69v19l55 43l68 33v28l43 25l8 -10l24 28l19 -18l18 26l123 -8l121 -18l16 -19h27v-16l10 -8h27l16 -43l51 -43v-27l37 -71l25 -27l-10 -6l18 -27l-8 -10v-25h-10l-9 -37v-6l9 -8l-9 -43h-67v6l-19 8h-24l-12 -8l-52 -35l-61 43l-86 -26 l-19 -25l-6 -6h-18v25l-27 18l-112 -12l-54 -17l-26 11l-6 6l-25 -25l25 -43l-19 -18l25 -33l-6 -10l32 -62l54 -26v-6l88 -37l24 -25h51v-8l11 -10l45 24h67l27 19l25 55l43 25l55 51l33 10l34 -43l-6 -43l-37 -45l-18 -35l-49 -37l-27 -32l-104 -19l-27 -24h-43l-18 -19 l-25 6l-29 19l-120 12l-62 43v14l-6 11h-18v18l-25 14l-12 11l-6 45l-45 32l-25 43l-10 62l-8 98zM375 526l18 -43l17 -8v-10h26l43 -8l43 22l21 10l16 -6l25 -26l18 18h14l19 27l10 -13h45l6 142l-43 61l-8 27l-10 -19h-6l-13 9v10l-49 -10l-18 -17l-8 8v9h-19l-6 10v6h-37 l-24 -25l6 -36l-19 -15v-10l-6 -43q0 -2 -5 -9t-9 -16l-12 -20l-25 -16z" />
<glyph unicode="f" d="M137 33l8 26l19 19l-8 6v8l102 43h29l6 19l80 -45l26 12h25l25 43l12 76l6 155v13l8 6l-8 10v88l18 14l-24 88l6 62l-61 43h-25h-27l-18 -19h-78l-33 19l-12 -8l-43 32l-6 19v24l24 31l43 -12l43 -6h27l10 6l33 12h62l36 -31h7l26 31v25l10 8l-18 53l18 43v8l-10 7l29 30 v15l43 43v36h8l25 25h36l33 10l-8 8l43 25l27 -18h18v-15l16 -10l9 -8h10l-19 -25h-43l-18 -18l-6 8l-29 -27l-51 -24l-37 -25v-18h-6l-8 -45l-10 -62l10 -6l43 -43v-18l33 -19l55 6l43 31l33 -12l37 -6h24v-19l19 -18v-33l-99 -10l-6 -8v8h-37h-43l-26 10h-25l-37 -37 l19 -209l-7 -43l7 -8l18 -43l-18 -113l10 -10v-33l8 -98l51 10l10 9h25l18 -27l19 18h94l8 9l54 -33l18 -19v-98l-80 -43l-43 29h-8l-19 -19l9 -10h-76l-43 -8v8l-19 19l-55 -9l-76 -10l-18 -14l-6 6h-19v8l-18 19l-8 -9l-97 -18l-26 -6h-6l-13 -10l-16 16h-16l-11 -6v6 l-18 18l-49 9l-8 10zM791 1110l24 10l43 33l45 -43l25 -8l112 -96l-14 -95l-12 -8l-31 -29l-80 11l-8 8v53l25 70v24l-11 9l-14 36l-37 -8h-35l-14 15l-12 -7z" />
<glyph unicode="g" d="M98 -109l6 62v18l19 19v43l27 51l-9 8v10l15 19l-6 43l-19 43l10 8v18l-10 7v69l53 80h43h27l25 19v43l-25 24l6 8l-6 11v120l-10 11l71 104h7l8 8l55 49h16l9 13l-9 -8l-6 12l6 2l9 -6l24 43l62 24l18 -16l51 10h25l45 -37h29l6 8l26 -26l11 12l8 -31l43 -30l24 6l19 43 l18 18h25l8 8l43 19l61 -8l19 -43l37 -27l6 -29v-75l-6 -11v-14h-19l-10 -12l-51 -25l-27 25l-16 18l6 8l-25 62h-18v10h-33l-18 -43v-10l-6 -8l14 -19l18 -80v-43l-8 -8l8 -6l-18 -43l10 -12l-37 -17l-18 -26l-14 -43l-72 -33l10 -10l-61 -33l-95 -12l-86 18l-45 45h-10 l-18 -18h-43l-15 -19l-71 -69l28 -25l7 6l36 -14l7 -29h79l52 37h36l7 6v-6l79 -8h27l25 26h8l18 -18l11 6l14 -14l10 8l51 -43h11l8 16h51h61l68 -43l12 -10h19l24 -57l19 -74v-33l14 -10l10 -57l-18 -19v-26h-6l-19 -17l-18 -88l-6 8l-31 -32l-6 6h-27l-10 -19h-6l-19 -18 l-18 12h-25l-8 -12l-69 -49l-29 18l-33 -12l8 -6l-26 -8l-17 -19l-121 27l-43 -19h-36l-35 37l-78 6l8 11l-51 8l-18 18l-7 -12l-55 37l-6 -6l-27 6l-10 26l-43 25v10l10 8l-10 11l-18 51zM272 -53l33 -10v-9h17l8 -10l-15 -33l7 -12v-6h8l28 -19l60 -6l10 -26l68 8l18 -27 l33 8h61l19 19l43 6l26 -14l25 14l10 12l8 -12h25l55 37v6l25 12v6l26 62l-26 51l-6 -6h-29l-45 35v8h-25l-43 6l-26 -24h-25l-24 43l-117 -19v-14l-8 -10h-35l-15 36h-18l-18 -12l-9 -6l-79 -8l-7 -29l-36 -14zM385 614l16 -77l17 -19v-24l-8 -11l-9 -51l17 -18l10 -6v-13 h33l10 13l8 -13h68h61l113 62l18 37l-8 24l-10 80l18 33l-18 18l10 8l-24 29l-19 6l-98 64l-31 -19l-63 25l-43 -6l-43 -27l-19 -53zM602 -29l6 9h13v-9h-19z" />
<glyph unicode="h" d="M33 1059l30 61l-12 8l62 37l51 -18l43 -12l45 -7h29l6 7h45l6 -7l29 -36l-11 -58l-8 -37l-10 -6l29 -55l-11 -51l-18 -19l18 -86h-8l-10 -37v-57l18 -29l43 11l37 51l25 10h8l35 51l63 43h31l12 8l25 11v8l43 16v-6l45 -29l86 -8l37 -24v-43l24 -19l19 -8l8 -43v-18 l6 -11l10 -32l9 -174h10v-19h-10l-9 -43v-131l19 -123v-8l45 -6h57h53l9 -12l18 -50l-8 -36l-29 -70l-86 8h-33h-61l-37 10h-33l-36 -18v8h-62l-43 -24l-43 34l-8 -10v19l-25 24v19l-26 24l-35 -33l-8 -24l-19 -19l-43 9l-43 -33l-18 6h-43l-19 -16l-43 10l-26 24l-35 -24 h-27v6l-6 8l-12 -8l-6 8h-8l-11 -14l-88 14l-31 19l-18 18v25l18 18v61l95 7v-7h61l17 25l-11 45v25l11 10l-17 14l17 31v31l8 12l-8 6l-17 27l6 96l11 8l-17 19l6 61l11 6l-17 27l-12 43l18 37l11 75l8 11l-19 18l11 94l-17 19l25 112l-8 37l-62 15h-35l-8 -9l-18 9l-35 10 zM338 309l18 -26v-43h-8l8 -33l11 -10v-62l43 -26l26 18l51 -18l17 18l26 -18l19 -43l49 12l64 49h61l6 8l12 -8l25 -6l-8 100l14 45l-24 53l10 9l8 18l6 49l19 19l-7 88l-18 16v107l-18 32h-19l-6 11v18l-8 -10h-29l-24 16l-64 8l-57 -51l8 -6l-8 -12l-54 -17l-8 -51 l-80 -61l-32 -70h-11v-24l-8 -13z" />
<glyph unicode="i" d="M166 63l10 62l45 27h49l27 18l123 -8h94v57l-14 31h-19l8 14h11l6 -8l26 43l-8 8l19 131l-11 35l-8 156h8l11 45l8 35v8l-27 24l-24 -6l-56 -51l-16 25l-27 26h-51l-18 -18h-43l-35 43l10 12l-10 6l-16 25l8 63h24v17l88 -17l11 6v-6l75 -8l80 -10h19l8 -8l18 18l68 -10 l37 -70v-198l6 -80v-62l-16 -32l10 -132l6 -43l18 -55v-6l19 -18l43 10l51 8h123l51 -8l25 -43l-6 -29v-8l18 -19l-12 -32l-17 -35l-45 -19l-86 -8v8l-33 19l-36 -8h-62h-57l-10 -11l-19 19l-45 -19h-76l-53 -24l-27 16l-16 19l-8 -11l-150 11v8l-6 6l-10 -6l-45 6l-25 12z M463 1104l2 4l12 -6l25 43h8l25 24l10 -6h8l10 6l43 19l70 -37l24 -61l9 -76l-58 -43h-12l-6 6l-12 -6h-76l-62 6l-6 98v27l-8 -8z" />
<glyph unicode="j" d="M197 -195l18 156l6 10l43 43l8 -10l29 29l8 -10l6 10l29 14l94 -67l8 -52l19 -43v-26l-8 8l-19 -37l-18 -25h-25l-8 11l-43 -29v-14l33 -29h18v-8h80l6 8l80 10v33l51 43h9l18 18l-8 62l18 27l-10 43l-18 24l10 29l-19 8l19 18l-10 7v12l18 14l-4 -4l-10 6l6 8l8 -10v53 l-8 43l-10 78v53l18 27l-18 78l10 8l-10 8v72l10 57l18 19l-10 26v17l-33 26l-74 19l-43 -19v-8h-131l-24 27h-8l-11 -8l-14 18l-10 -10l-27 24l19 56l43 24v19l18 6l51 -6l37 -13l119 -6h141l8 6l25 13l43 -37l27 -70l-9 -6v-18l19 -19h-10v-155v-54v-51l10 -8l-19 -29 l-6 -145l-12 -10v-25l18 -18l-6 -52l-12 -61l18 -18l-6 -138l-37 -55v-51l-18 -49v-37l-6 6l-45 -57l-68 -37l-12 8l-25 -14l-8 -11v-18l-29 10l-6 -10l-69 10l-43 8l-37 11h-25l-18 -29l-62 104l-8 -6l-18 17l-6 -11l-11 37l-26 25zM518 979v18h8l6 37l29 43l27 15l6 10v18 l61 27l45 -19l35 -43h27l6 -26l27 -19v-79l-52 -33v-17h-18l-25 -26l-36 8l-9 10l-6 -10l-80 18l-43 68h-8zM532 -63l29 10l45 -19l-12 -24l-33 -31h-29v64z" />
<glyph unicode="k" d="M68 33l10 33l26 26l7 -8l18 18l94 19l37 33l-8 10h-10v24h10l14 33v74l13 6l-19 18v43l-8 27h8l6 43v51l-6 72v27h19l18 32l-12 86l18 19l-18 24l12 80l-12 8l-19 19l19 111l-25 63l-94 10v6l-80 27v35l43 33l43 -7h8l10 -8l19 15l119 -7l12 -8h14v-35l11 -8l8 8l-8 -51 l-19 -37l19 -43l-11 -61v-51v-25v-125l19 -6l-19 -55l-14 -25l6 -43l8 -8h19l10 -80l25 -18l45 -17l32 17v12l35 14l62 62l32 53h37l8 8l11 -51l-70 -72l27 -88l49 -6l12 -8h14l29 -35l14 -106l56 -33l16 -53l27 -33l67 -19l9 -10l28 29l33 -12l43 -7h18l19 -24l-10 -12 l18 -33l-18 -19l10 -10v-6l-10 6l-15 -14h-55l-119 -10v10h-125l-24 -10v-9l-19 -18l-24 8h-19l-61 62l-8 55h51l26 31h17v36l-17 62h-8l-24 26v43l-37 19l10 57l-18 19l-11 43l-14 18l-43 -24l6 -13h-6l-18 -33h-27l-10 -10l-25 -24v-19h-8l-10 -8v-18h-19l-6 12l-18 -19 v-61l18 -27v-10l-18 -14l18 -55l49 -7l80 -10l27 -14v-64l-8 -16l-25 -37l-80 37l-26 -18h-35l-27 -27l-67 8h-70l-43 -8l-19 -6h-24zM582 756v16l88 27l18 -19h25l8 -24v-19h24l43 43l37 19l86 -13l-6 13v-37v-25l-61 -26l-19 -19l-112 -6l-11 -29h-8l-6 11h6l19 32v11 l-43 18l-70 -18l-10 -11zM948 772l33 14l10 -6h27l-19 -51l-43 14v19z" />
<glyph unicode="l" d="M186 4l19 19l-10 10l18 33h10l15 36l79 -10l80 35l25 -6h27l36 43l15 14l-15 62l15 61l28 18v19l15 14l-51 56h-7v24l43 51l25 80l-10 94v11l-8 8h18l27 53l-19 14l-18 62h10v55l-10 174l-51 -18l-19 18h-104l-58 -28l6 10l-6 8h-12l-6 -8l-70 33l-18 28v51l61 19l8 -12 l7 18l159 -6v-12l15 -15l80 8l8 7h43l28 -15l27 -10l25 -51l-9 -174l-16 -43l16 -19l-16 -24v-56l6 -6v-69l19 -70l-19 -16l-6 -158l-12 -10l18 -19v-43l10 -6l-16 -18v-62l25 -88l-9 -6l9 -8l18 -55l18 -17h33l10 10l25 19l45 -43l43 -12l6 12l80 14l45 -26l17 -33l-11 -29 v-6l-69 -45h-35l-60 -16l-34 16l-45 -16l-35 16v8h-33l-27 -14l-10 6h-18v8l-113 10l-6 -10l-61 -8l-43 -16l-27 10h-19v6l-129 8z" />
<glyph unicode="m" d="M29 53l30 53l19 -18l16 10l45 37l35 -8h27l18 27l-8 6l14 26v142l11 43l8 69v62l-25 33l17 61l18 43l-10 10l-8 33l-35 37l-33 -19l-62 37v6l-12 9h-14l-10 28l-7 6l68 64l43 6l19 -18l8 12l18 -19h25l69 -36l17 -25l12 10l14 -18l54 33l8 28l10 -10l45 37h31l12 6 l14 -18l29 12l86 -98h17l16 18l37 -8l33 18l10 6v19l78 26l43 7l71 -25l43 -18l-10 -9l25 -16l12 -70l18 -18l-12 -104l-6 -52l-27 -94l27 -72v-200l18 -51l49 -11l9 11v8l43 -19l10 -43l-25 -51l-43 -18l-55 12h-86h-33l-149 6l-10 -18v12l-58 6h-28l-17 -18l-123 18 l-6 -18l-43 18l-18 37l6 33l26 10l29 14l6 -6l27 25l24 18l-6 6h6l19 37l-19 43l-6 27l17 18l-11 6l19 37l-33 62l33 75l10 11l-10 8l-19 24v56l-6 6l49 55v15l-6 10l-8 -10l-18 18l-11 25l-43 12l-51 16l-6 8l-12 -8l-51 -28l-35 -43l-8 -58h-19l-24 -61l18 -107v-217 l14 -24v-19l-8 -8l45 -10l35 -33l-18 -53v-33l-123 -12l-43 -6h-62v18l-125 -6zM645 221l51 -61l-6 -6v-27l6 -10v-8l27 8l43 10l18 -35h7l28 17h33l37 18v8l-10 25l-9 80l37 43v26l-18 113l33 67l-15 19l6 10l19 70l-19 26l-16 43l-8 -8h-10l-15 15l-12 28l-61 27l-25 -10 v-27l-8 -33h-19l9 -10l-25 -25h-8l-37 -69v-37l-25 -51l43 -62l-6 -6v-12l-12 -49l-6 -27v-29z" />
<glyph unicode="n" d="M68 -2v43h6l18 43l27 25h49l55 26l25 -8l8 27l18 34v27l-8 6l27 31l-19 24l11 -10v115l-11 8l-8 25v112v62l-10 10l18 16v29l-51 6l-24 8v29l-88 57l-11 37l-8 37l51 49l80 -24l8 8v-8l43 -11l43 35h11l8 27l6 -27h18v-16l37 -33h33l10 -12h19v-25h76l55 43h24l9 8l53 35 l26 8l17 -14h16l10 6v8l43 -14l9 6h16l64 -49h16l70 -106h-11v-54l11 -51l24 -51v-18l-35 -43l11 -373l43 -29l8 10l53 -104l-35 -18l-8 -9l-29 27h-69h-49l-13 -8l-112 -10l-17 18h-69l-19 25l10 69l9 -8l10 8l33 10l141 7l14 18l-6 8h-8l14 19l-6 10l-27 88l9 49l24 27 l-24 34l10 27v19l-19 6l9 61l10 70l-29 43v43l-76 61l-26 8h-29l-24 -24l-62 -33h-33l-18 -37l8 -8l-51 -80v-24l-8 8h-19l-16 -27l6 -24l-6 6l-51 -119l6 -43l8 -37l10 -51l-24 -19v-34l24 -45l131 -7l19 19l6 -12h18l-36 -17l-17 -69l-51 -52l-43 19l-27 -10l-24 -9v9h-74 h-86l-8 10h-17l-18 -19l-27 19l-43 -10l-6 -9v-10l-26 19l-29 24l-8 -6h-6z" />
<glyph unicode="o" d="M172 266l10 86v19l8 6l-8 12l15 51v105l36 61v15h7l18 55h12l6 6v18h9l34 43l89 80l51 8l10 7l43 18l104 -6l46 24l49 -8l45 -43l6 8h12l17 -18h26v-18l33 -33l10 8l51 -70l-8 -8l33 -43l18 -18l-6 -10l31 -33l12 -25v-12l6 -6l-18 -19l18 -24v-56l13 -32v-80l-19 -25 l-18 -104v-19l-25 -14l-12 -12v-25l-33 -37l8 -6l-26 -26l-68 -54l-12 -26l-76 -19l-61 -30h-19l13 6l-19 18l-104 -8h-80l-17 33l-61 18l-62 62l-49 43l-30 45h-15l-35 32l7 11l-15 24zM328 518l18 -61l10 -54l9 -102l24 -29v-14l80 -117l43 -6v-8h94l56 33h24l19 -19 l24 31l-10 6l61 62v26l-6 6l25 29l18 14v56l25 51l-25 61l-18 19l6 33l-14 16h-11l-6 70l-63 36v7l-35 12v6l-33 10l-43 33l6 -6l-43 -19l-8 -8l-10 8l-25 -18l-88 -6l-43 -37l-24 -33l-9 -55z" />
<glyph unicode="p" d="M72 -264l10 69l33 25l10 -6l8 6h43l10 -6l33 14l43 -8h19l26 27l-8 61v25h8v98v51h10v25l-10 24l17 31l-7 43h-18l-18 33l26 86l17 43v158l18 34l-10 156h-25l-51 -6v-10l-18 -17l-43 17l-37 10l-33 43l8 69l68 25l12 18l68 -8l26 -16h62l6 6l18 -18h25l12 -33l62 -25 l6 6l26 -6l19 15h35l32 36h19l37 35l86 -10l8 -6h24l27 -27l29 15l57 -25l10 -8l27 -23l-31 -61l60 -12l22 -33l43 -62l10 -51l9 -149v-62l-9 -37v-14l19 -18l14 -25l-51 -10l-6 -43l-29 -33l-8 -45h-19l-32 -35l-11 -37h-8l-10 -8l10 -6l-35 -18l-8 8l-53 -33l10 -31v-6 l-24 -24l-31 6l-25 10l-43 8l-8 -8l-35 14l-32 -30v-27l-13 -10l-6 24l-37 19l11 10l-11 8h-18v19l-25 24l-8 -6l-35 -12l-18 -25l10 -104l19 -19h24v-8l33 -18l29 18l51 -25l26 -18l25 8v-78l-8 -10v-24l-6 10l-29 -29h-78l-10 10h-14l-29 -24l-70 24l-24 -24l-43 6 l-19 -18l-61 12l-8 6l-19 -18l-76 12l9 6l-70 18l-43 33l6 10zM463 422l35 -51l-6 -11l43 -51v-26l-19 -17v-26l19 -19l32 -24l19 -43l6 6l55 -43l70 -8l16 18l19 27h45l30 24v37l19 14l8 19l-27 24l-6 29l25 33h26l11 -6v32l-56 43v19l19 24l26 56l-26 16l-6 45l24 25 l-18 33l-43 18v10l-43 27l-37 -19l-6 -8l-45 8l-25 7l-37 -15l-67 -71l-8 -43h-11v-27l-8 -19l-10 13l-4 -8l8 -7l6 2l-24 -24h-19z" />
<glyph unicode="q" d="M145 360v72v76l7 -6l8 16v27h10l18 33l15 18v35h10l18 33l76 73h19l8 6l86 52l29 -15l32 15l56 -15l69 6l17 -34l45 -9l24 -6l33 25l10 8h88l6 -33l19 -37l-6 -61l6 -8l8 -43h-8l-19 -37l19 -25v-43l18 -26v-35l-10 10l-8 -86l18 -18l-10 -70v-10l16 -19h-6l-10 -75 l-8 -70l18 -18v-35l19 -70l-13 -43v-45l13 -61l51 -17l49 17l31 -7h14v-10l53 -33l-18 -79l-25 -27v-18l-43 -17l-36 17l-25 -7v7l-8 12l-10 -12l-62 -7l-33 -18l-37 8l-8 10l-10 -10l-51 10l-6 -10h-56l-32 -8h-29l-14 18l-54 7l-32 36v33l6 10v27h8l10 6h-10v19h10v-7 l8 -12l17 19h26l11 10l51 26l18 -18l51 -8l17 78v24h8l10 29v8l-10 6l-25 29l11 8v6l-37 19h-43l-37 -33l-25 -10l-26 -25l8 -8l-43 8l-14 19h-88l-62 16l-53 59l-51 62l-19 43l-8 10l-10 27h-15l-10 32l-8 11l-10 75l-8 37v25l8 12zM301 309l25 -61l43 -51l-7 -11l15 -14 v-18l37 -19v6l6 13l12 -13l17 -24l112 -8l19 18l-11 8l19 37l49 25v32l37 37l26 6v19l17 104l-17 19v8l-32 10l-13 -10l-18 18l12 6l-18 19l24 24l-18 37l-6 25v27l-51 10l-29 26v35l-25 27l-18 -19l-45 7l-43 -58h-25l-61 -43v-123l-33 -37v-94z" />
<glyph unicode="r" d="M119 47l6 37l8 8l29 25l112 18l19 19v-13l76 -24l24 18l-14 37v25h24l19 32v62v69l-10 11h10l8 69l6 25v18l13 6l-37 29l10 27l8 51l6 35v8l-24 25l10 12v6l-29 27h-51l-6 10l-10 -10l-78 -17h-10l-7 -10l-18 27l-8 -9l-37 43v52l27 55l79 -12l43 -7h86h52l55 -45l25 -43 v-51l-19 -35l8 -8l11 -28l18 -15l33 43v8l-8 7l63 28l6 60l80 28l33 33h80l6 10l18 15h37l51 12l43 -37v-18l43 -25l9 10l18 -37v-24v-62l-18 -18v-51l-70 -43l-62 43l-8 33l-6 10v26l6 7l-35 55h-69l-6 -10l-88 -60l-54 -71l-14 -15l6 -12l-51 -33l-29 -53l11 -43l-25 -33 l8 -12h-8l-10 -49l-8 -13l26 -14l6 -29v-57v-37l11 -6l32 -45l19 14h37l6 13v-13l12 -6h25v-8l88 -18l24 -17l8 6v-86l-45 -32h-49l-45 -19l8 -8h-43l-14 14h-45l-10 13l-33 -19h-37l-6 -18l-74 18l-14 6h-35l-18 -14h-27l-6 -10l-62 -6v6l-26 10h-29l-24 27l-9 -13l-24 31z " />
<glyph unicode="s" d="M178 74v67l6 88l13 37l6 6l-6 11l-13 32v31l13 14l14 29l43 6l43 -43v-18l43 -33h18l-6 -10l43 -19h25l8 -24l-14 -27l43 -24l24 8l27 16l35 -35l-11 -32l11 -13h16l10 31h62l14 -18h10l27 24l-8 27l8 10l25 -29l36 11l7 24l12 62l33 18l10 8v6l-10 13l-9 24l-69 51 l-35 11l-45 32l-6 -6h-29l-14 17l-13 -11l-75 -14l-35 14l-88 11l-80 61h-14l-11 -10l-45 61l-16 70l-8 53v27l69 112l25 7l141 55l43 -12l8 -7l19 19l61 -19h52l43 -36l61 -7l18 -26h19l33 51h10l14 18l37 -8l6 -10h12l-8 8l11 6l4 -4l-7 -10v-18l7 -7l24 -61l-24 -70 l-7 -8l17 -16h-10v-27l18 -43l-18 -28h-43l10 10l-62 61l-18 51l-113 86l-53 -6v6l-43 9l-45 10h-43l-43 -10l-88 -70l-14 -16l26 -33v-19h-12l-6 7l-19 -25l19 -18v-33l43 -37h104l45 -6l86 -10v-9l43 -24l33 16l98 -10l62 -51h33l18 -54l51 -51v-69l-8 -62v-24l-24 -25 l-37 -37v-18l-7 10l-79 -80l-88 -16l-7 -8l-63 -19l-16 -18l-9 12l-24 -18l-56 43l-6 -11h-26l-19 19l-10 -8l-43 24l-76 -6l-98 -29h-27z" />
<glyph unicode="t" d="M80 752l10 10l-10 8v80l53 43l19 -12h26l6 18l88 -6l43 -27l43 27v260l11 27l45 24l49 -8l8 -10h29l14 -25v-33l29 -18h8l-43 -86l24 -70l-24 -55l24 -25h166l52 7v12l18 -19h43l43 -36l-6 -58l-10 -10v-18l-33 -15l-29 6h-88l-6 -6l-113 6l-26 -24v-43l-35 -19l-19 -18 l25 -76v-80l43 -43l-25 -18l-24 -27v-18l35 -17h32l-6 -8l6 -6l-18 -45l-14 -35l14 -26l18 -19h37l19 80l6 27l-19 18l13 43h14v-74l19 -14h18l25 45h18l68 76l69 -19h10l9 -43v-94l-9 -8v-29h-10l-8 -14l-35 -37l10 -6h-10l-14 -55v-8l-37 -17v-26l-18 -19l10 -6l-72 -10 l-24 -19l-19 -32h-14l-13 -13l-24 31l-105 -12l-18 -19l-33 37l6 37l-67 43l-27 76h-10l-6 12v25l24 24l-18 94l18 99l11 149l8 86v88l-27 15l-43 -9l-43 -6h-43h-43l-18 -18l-37 24l-8 -6l-17 15h-18z" />
<glyph unicode="u" d="M-6 813l16 41l31 14l22 -4l46 8l4 -10l24 -31l6 7l-6 -4l-8 8l8 8l6 -12l9 18l71 -33h45l-12 -10l37 -18l18 -15l-10 -10l16 -33l-24 -88v-71v-250l8 -142l53 -32l8 6v-6l25 -13l37 -6l33 19l10 -13h25l79 80l45 51l7 74l36 14v35h7l26 51l-8 56l18 16v51l9 62l43 45 l-43 43l-158 6l-35 18l10 62l70 26l104 -8l33 -18l25 8h55l25 -27v-129v-36v-43v-52l8 -94l10 -123l-10 6v-32l18 -78v-8l43 -19h25l18 -24l19 -19h43l18 -18h25l8 -25v-69l-8 -11v-14h-6l-11 -18h-45l-6 6h-26l-11 -6l-32 -19h-29v6l-76 13l-43 18h-70v14l-28 29l-94 -10 v-8l-37 -19h-6l-9 8l-36 -26l-111 -25l-12 -8l-68 51h-45v19l-33 8h-35l7 10l-15 14l-10 123l-18 70l18 35v88v164v71l-18 43l-7 45l-20 27l-47 4l-23 -14l-30 12l-29 51z" />
<glyph unicode="v" d="M14 762l19 18l-10 51l43 35h43l18 19h18v-11l19 -14l155 6h35h60h28l33 -16l25 -8h12l6 -70l-76 -61l-43 -11l-18 -14l6 -37l64 -104l6 -43h55l6 10l19 -37l-19 -51l27 -29l10 13l-10 -56l-27 -24l37 -33l43 94l-10 35l-8 8h18l18 37v6l-10 8h10l7 19h18l33 61l12 86 l16 19v24l-28 19l-15 18l-10 -10l-69 43l8 43l71 61h33l19 -16l6 10v-10h37l37 16l14 -16h117h100l37 -27v-18l6 -6l12 -43l-45 -19l-35 -8l-32 -18h-80l-25 -25l-12 -55l-25 -25v-69l-26 -43l-6 -54l-29 -45l10 -33h-10l-8 -24l-25 -43l-18 -62l-25 -18l6 -51l10 -10v-33 l-28 6l-6 8l-19 -14l10 -74l9 12l-27 -36l-53 -52l-33 -18l-55 8l-6 10l-27 27h-10l-6 25l-9 55l-10 24l-8 25l-18 61l-7 -10l-12 43l-16 19v26l-9 10l-8 62l-35 33l7 69l-25 29v14l10 11l-35 51l-26 53v45l-37 68l-16 18h-27l-18 -18l-58 18l-43 8h-10z" />
<glyph unicode="w" d="M37 770l12 16l17 27l26 10l68 -18h106l6 -10v-43l-43 -43l37 -60l-12 -61l-14 -19l45 -67l-31 -88l31 -54l24 -8l51 -51l35 14l45 107l-12 10l-14 25v45l26 24l49 -8l19 -29v-43l-35 -32l-8 -25l8 -12v-137l-33 -43l19 -25l-13 -12l19 -33l-25 -72v-32l-26 -43l-29 -13 h-6v-24l-8 10l-11 -10h-32l-62 98l-18 14l6 131l-25 35v62l-18 18l10 94h8v37l-24 14l-8 99l-11 6h-18v45l-14 10l-19 51l-10 35l-33 33h-18zM428 770v16h80h61l52 19l69 -10v-58h-43l-8 -12l-25 -6l7 -80l-25 -8l-8 78l-53 -33h-19v24l-8 9l-25 28l-37 6zM602 518v27l37 18 l8 -55l10 -25l52 -69v-25l10 -43l6 -12l27 -62l24 -6h19l43 62v61l36 25l9 8l-9 10l-18 113v33l18 71l-10 8h10v52l-24 28l-19 -18l-10 24v37l10 6l62 19l57 18v8l80 -8v-18l19 -10l8 -9h-8l-11 -6v-18h-14l-12 -10l-25 -27v-49l6 -12h-6l-24 -50v-51l-19 -18v-43l-26 -45 l-35 -35l10 -27v-35l-10 11l-19 -37l19 -19l-9 -49l-24 -61l14 -51l-8 -88v-25h-6l-12 -37h-7l-10 -24h-69l-27 6l-35 45l-14 96v70l-19 18l-10 57l-16 62l16 18v37l10 25l-10 8h-16v18l-17 6l7 62l-7 10h-12z" />
<glyph unicode="x" d="M90 41l8 25l43 43l80 12l8 6l62 8l6 10l18 19l9 24l28 9l33 36v33l25 17h28l45 36v19l25 14l24 10l19 19l-10 8l18 19l-8 49l-25 18h-18l-10 27l-52 61l-51 68l-18 55l-25 25h-73l-68 -11h-18l-9 -8l-16 27h-27l-18 24l18 56l43 6l150 12h24l52 -18l61 6l61 12l46 -37 v-43h-46l-49 -8v-29l15 -24l16 -19h12l6 11l19 -70l-10 -10l10 -6h18l9 -37l6 -33l43 6l37 37v14l18 19l-10 10l61 33l35 37l45 43l-37 32l-51 -32h-25l-12 -11l-16 56v49l43 26h28l76 -45l99 13l69 6l62 12l32 -31v-43l11 -6l-80 -26l-62 8l-8 10h-18l-35 -43l-27 -10 l-49 -27v-51l-27 -16v-19l-18 -18l8 -8l-33 -11l-18 -14l8 -10l-51 -88l6 -25v-18l37 -19l43 -43l8 10l43 -53l10 -26h9l8 -43v-19l43 -24l18 -27l11 8l14 -14h29l69 -12l25 -7l8 -10l10 10l25 -10l26 -45l-18 -57l-119 -19h-26l-19 19h-24l-19 -19h-86h-55l-15 19l-28 -19 l-58 19h7l8 8l-15 35l7 51v18l104 7l-80 69l-16 43l10 12l-10 7l-45 88l-33 -9l-16 -18v-61h-19l-8 -7v-18h-10l-27 -94l55 -37v-6l9 -12l-9 -62l-37 -33l-43 19l-24 -10l-19 -19l-43 37l-8 -8l-28 -10l-217 -9l-15 19h-31l13 8z" />
<glyph unicode="y" d="M98 -127l37 98l25 27h18l6 6l-6 -4l-8 8l8 6l6 -10l19 29l51 -10l10 -9h27l24 -24l-6 -10l49 -89h-6l-18 -18l-43 -43v-25l61 -26l15 -17l53 54l33 14l36 74l-6 6l31 37l37 43l8 51l-18 6h10v45l-10 53l-33 19v8l-10 6l-9 80l-43 61v9l7 10l-25 24l18 19l-43 76v37l-8 88 l-10 6h-18v18l-25 25l-8 45l-25 43v24l-37 13l-131 6l-6 37h-12l61 32l95 -26l45 18l34 8v-8l9 -6h10l18 14v-8l15 -6v-61l-7 -13l17 -32l-17 -19l17 -16l-10 -78l28 -16l33 -131l12 -27l6 8v-18l37 -19l15 -49v-8l-9 -10l19 -19v-33l18 -43h15l-6 -26l16 -19l33 19l28 26 l-10 7l19 18l8 61l10 43v27h6l37 105l27 24v51l34 62l-10 12l19 33l6 35l-33 51l-80 -6l-16 16l-8 51l18 19l25 -11l45 -8l34 -6h27v-12l6 -6h27l10 6h43l25 -19h45l18 19l17 -19h14v-43l-14 -14l-17 14h-37l11 13l-19 6h-24l-19 -51h-10l-8 -11v-14h-7l-28 -29l10 -43v-26 h-10l-17 -70l-28 -16l12 -62h-12l-25 -78l-18 -24v-10l10 -9l-25 -36l-36 -43l8 -19v-24h-8l-25 -76l6 -37l-16 -18l16 -19l-6 -24l-37 -86v-33l-51 -74l-16 -14l6 -11h-6l-9 -18v-25h-10l-18 -18v-8l10 -6h-10l-9 -13v-18l-6 12h-12l-25 -26l-61 -35h-61l-33 -19h-37 l-18 19l-76 18l-25 31l-10 -6v18l-18 19v-13h-15v13h6l9 6l-27 18v33l-6 10zM438 799l51 24l43 -24l-6 -27l-37 8l-24 19h-27z" />
<glyph unicode="z" d="M115 84h8l10 14l8 37l62 70l-8 10l26 6h25l37 45l43 43l26 19l-12 6h18l43 43v12l-6 6l19 19l43 18l32 43l11 14l88 89v10l57 26l10 7v18l27 10l61 70v6l-55 12l-14 -18l-19 6h-37l-217 -16h-49l-18 -27l6 -6l-14 -19v-149l-11 -33l-8 -10h-18l-6 -19l-19 -24l-10 -8v-11 h-27l13 11l-19 18l-26 33v149l8 43l18 19v94l19 16l-13 9l37 36l8 -8l11 8l24 25h19l8 -6l18 16l31 -16h74l207 -12l34 -7h27l6 7h131v-7l10 -8h19l8 -43v-43l-43 -37l-27 -8l-43 -53v-25h-10l-8 -8v-18h-43l-27 -43l19 -27l-19 -43h-24l-37 -43l-6 -37l-62 -24l-26 -56 l-35 -6l-37 -18l-8 -25l-25 -26l25 -68l18 -18l51 18v-12l19 -19l24 13l13 24l24 -6l6 -12h13l6 12v14l8 -8l10 8v19l33 -45h62l18 80h18l19 18v70l57 86h29l33 -25l18 -29v-69v-76v-29l-24 -14v-18l6 -13l18 -24v-8l-24 -25v-37l-46 -67l-79 18l-31 -12l-37 -33h-37l-24 33 l-113 -6l-19 -56l-24 -33l-19 9v67h-75l-56 -6l-43 -51l-8 8l-18 35v27l-6 6l-19 -19l-55 -6l-14 19h-35l-19 18h-18v33z" />
<glyph unicode="|" d="M432 831v19l33 39l-4 22l-21 13v14h6v27l-14 16l14 25v20l3 66l-3 30l-8 43v11l15 18l8 31l-4 4v31v22v27h4l4 28l22 19h9l22 -53h8l-12 -43v-5l8 -6l-12 -35v-28l8 -19l-4 -30v-23l18 -37v-14l15 -19l-21 -49v-4l6 -6l-6 -20l-8 -9l10 -28l-2 -4l15 -33l-4 -14l-5 -46h5 l4 -112l-9 -51l-4 -25v-12l19 -27l-6 -14l6 -17l-2 -32l8 -9l-8 -30l2 -31h-2l-8 -72l24 -47l-14 -26l8 -9l-2 -14l10 -18l-2 -13v-4l6 -8l4 -10l-8 -29l4 -10l8 -35l5 -12l-9 -19h-4v-49l-4 -20l8 -27l4 -18v-35l-12 -23l-2 -20l-14 -2l-2 -17l-4 -2v-8h-15l-4 -4l-24 -4 l-23 27l-4 30l-10 35v39l-4 2l8 12l-8 27l12 18l-12 25v33v20l8 19l-16 33l16 40l-8 27v39l-8 2l12 35v31l4 22l-16 27l8 8l-11 27v38h3l4 31h4v27l-4 4v53v27l4 39l-8 6l12 55l-23 60z" />
<glyph unicode="~" d="M252 489l8 58l2 63l21 27l22 37h39l35 24l59 2l31 17l33 -2l4 4l51 -29l4 -37l17 -12l14 12l43 -22l47 -43l6 -6h12l-4 -9l29 86l6 27l31 25l49 -9l16 -34l15 -21l-19 -47l-26 -22h10l24 -9h-10l-43 -34l-28 -7l-11 -30l-8 4l-22 -17h-31l-8 -8l-23 12l-24 -12l-35 12 h-10l-48 13l-47 43l-26 28l-15 33l-77 -6l-5 -53l-12 -62h-12l-12 -12l-11 12l-22 -8l-33 21z" />
<glyph unicode="&#xa0;" />
<glyph unicode="&#xa1;" d="M383 985v53l18 33l-12 55l37 25h18l9 8h122l58 -45v-16l10 -8l27 -37l-8 -43l-11 -33h-8l-10 -10v-27h-8l-7 -6v-25h-18l-10 -12l6 8l8 -12l-4 -2l-10 6l-15 -25l-12 7l-16 -15l-94 8l-37 19l-8 61zM401 125v70l25 51l8 80l19 24l-19 113l10 53l9 121l6 10l-15 15l9 28 l-9 8l15 52l18 18l70 -8l43 -25v-55l18 -86l10 -121l-18 -18v-54v-26l18 -17v-51l7 -8l18 -35v-26l-10 -11l10 -8l8 -35l-18 -32l10 -13h-10l-25 -94l-51 -43l-88 8l-16 43z" />
<glyph unicode="&#xa2;" d="M141 680v10l19 17v53l8 51l68 113l26 18l-8 10h8l19 33l43 25l10 28l14 15l-4 -2l-10 6l8 8l6 -12h12l7 12l98 25l6 -7l27 15l53 18l8 -8l6 18v-10l19 -8l80 -10h26l17 -15l32 7l64 -62h10l6 10l45 -34v-19l6 -8h19l-8 -10l8 -9l37 -34v-27l18 -16l-18 -27l6 -6h12 l-31 -80v-8l13 -10h-19l-61 -52l-62 9l-26 16l-19 -16l-24 10l-8 24v9l-11 10v51l62 70l-6 16l-56 37l-6 24l-80 27l-59 10l-10 -10l-43 -27l-43 -16h-27l-35 -33l-59 -61v-12l-29 -25l10 -8v-25h-10v-28l29 -121l8 -11h-8v-57l43 -80h33l45 -61l43 -19l61 -32l62 6l61 37h8 l6 -11l19 54h18l62 63l-11 6l105 37l69 -18v-56l-8 -24l19 -19l-37 -43l-25 -14l6 -12l-49 -62l-18 -14h-27l-16 -29h-8l-11 11l-26 -25h-33l-18 -29h-35l-27 -14l-35 6l-8 -6l-37 -18l-24 18l-6 -10l-19 16h-61l-45 27l-129 80l-27 24l-18 37l-25 43l-18 33l-7 -8l-26 26 l8 6v19l-8 12l-10 100zM483 883v18l33 39l-4 23l-20 12v14h6v27l-15 16l15 25v20l2 66l-2 31l-9 43v10l15 18l8 31l-4 4v31v22v27h4l4 29l23 18h8l22 -53h9l-13 -43v-4l8 -7l-12 -34v-29l8 -18l-4 -31v-23l19 -37v-14l14 -18l-20 -49v-5l6 -6l-6 -20l-9 -8l11 -29l-2 -4 l14 -33l-4 -14l-4 -45h4l4 -113l-8 -51l-4 -25v-12l18 -27l-6 -14l6 -16l-2 -33l8 -8l-8 -31l2 -31h-2l-8 -71l24 -48l-14 -26l8 -8l-2 -15l10 -18l-2 -12v-5l6 -8l5 -10l-9 -29l4 -10l9 -35l4 -12l-8 -18h-5v-50l-4 -20l9 -27l4 -18v-35l-13 -22l-2 -21l-14 -2l-2 -16 l-4 -2v-9h-14l-5 -4l-24 -4l-23 27l-4 31l-10 34v39l-4 2l8 13l-8 26l12 19l-12 24v33v21l8 18l-16 33l16 41l-8 26v39l-8 2l12 35v31l4 22l-16 27l8 8l-10 27v39h2l4 30h4v27l-4 4v53v27l4 39l-8 6l12 55l-23 60z" />
<glyph unicode="&#xa7;" d="M174 649l6 174h8l19 33l35 25l26 55l6 33l13 10v18l32 9l29 34l-12 27l-33 76v18l8 10l-18 15l10 61l16 19v37l11 -13l18 19v26l25 19l8 6l68 37l28 24l51 13l80 -13l27 -18h49l61 -86l9 -8l28 -35l-18 -27v-76l-25 -10l-10 -8l-45 -25h-33v15l-28 18l-7 -8l-26 43l8 64 l43 43l25 14l-7 10l-8 27h-28l-7 6l-18 -14l10 -11l-28 -26l-25 26l-61 -8l-17 -24v-29l-16 -27l-19 -18v-33l-8 -25l8 -10l35 -61l27 -45l-10 -6l43 -43l18 -19l10 10l51 -43l95 -141l34 -18l19 -43l33 -15l43 -61l18 -19l12 7l7 -43l8 -7l28 -45v-67l7 -27v-29h-7l-18 -14 l18 -18l-43 -54l-45 -94l-43 -26v-25v-117l25 -43l-10 -8v-6l18 -18l-18 -19v-37l-15 -24v-43l-61 -70l-19 -25l-43 -10l-51 -51l-147 6l-27 12l-80 17l8 8l-112 51l-19 19l11 10v14l8 -8l10 64v6l-18 10h8l10 59l33 19v16l26 27v18l-8 6l105 19l26 -25l7 6l28 -43l8 11 l19 -35h18v-19l6 -8l9 -24l28 -27h15l55 70l-12 75l-58 56l-10 -13l-27 74v43l-51 25v18l-86 88l-10 -12l-62 69h-16l-10 -6l-6 35l-19 43h-18v27l-43 43l10 8zM354 719l19 -27l24 -28l9 -43l36 -15l25 -43l18 -18l43 -37l27 -62l43 -32v-11l10 -43l8 -32l7 6h12l16 -19v-6 h15l12 -8l18 14l-12 13l18 18v31l43 55l-6 8v6l15 19v37l-9 6l-24 18l8 9v16l-27 27l9 10l-27 61l-6 8l-62 52l-18 43h-27l-16 18v53h-27l-6 8v7l-61 12l-12 31l-7 -15h-26l-25 8l-29 -24l-8 -19v-69v-43z" />
<glyph unicode="&#xa8;" d="M254 1245l25 37l104 18l61 -10l27 -51l-18 -37l10 -6l-25 -18l-18 -45l-10 -7l18 -18l-51 -10l-10 -8v-19l-33 27l-45 18v43l-25 19zM731 1202v27l27 16l-8 37h8l18 18l10 -10l15 17l71 8l33 -15l19 -36l18 -19l6 -104l-67 -58l-62 7l-26 18l-50 76z" />
<glyph unicode="&#xad;" d="M47 469l43 76l78 53h80l31 8l12 8l33 -8l61 -18l10 -6h15l10 6l45 10h76h98h76l80 -16l24 16l150 -10l35 -6l16 -19l10 6l25 -24l-6 6l18 18l6 -6l-10 -8l10 -10h19l-11 -137l-8 -62l-37 -45l-43 -18h-24l-19 -17h-8l-10 10l-8 -10l-43 10l-95 19l-34 -12l-19 18l-33 -18 l-88 12l-28 -29l-52 10l-86 19l-26 -19l-25 7l-159 12l-58 6l-74 27l-30 34l-13 62v27z" />
<glyph unicode="&#xb0;" d="M141 414v10l19 16v54l8 51l68 112l26 19l-8 10h8l19 33l43 24l10 29l14 14l-4 -2l-10 7l8 8l6 -13h12l7 13l98 24l6 -6l27 14l53 19l8 -8l6 18v-10l19 -8l80 -11h26l17 -14l32 6l64 -61h10l6 10l45 -35v-18l6 -8h19l-8 -11l8 -8l37 -35v-26l18 -17l-18 -26l6 -6h12 l-31 -80v-8l13 -11h-19l-61 -51l-62 8l-26 17l-19 -17l-24 11l-8 24v8l-11 11v51l62 69l-6 17l-56 37l-6 24l-80 27l-59 10l-10 -10l-43 -27l-43 -16h-27l-35 -33l-59 -61v-13l-29 -24l10 -8v-25h-10v-29l29 -121l8 -10h-8v-57l43 -80h33l45 -61l43 -19l61 -33l62 7l61 36h8 l6 -10l19 53h18l62 64l-11 6l105 37l69 -19v-55l-8 -24l19 -19l-37 -43l-25 -14l6 -12l-49 -62l-18 -14h-27l-16 -29h-8l-11 10l-26 -24h-33l-18 -29h-35l-27 -14l-35 6l-8 -6l-37 -19l-24 19l-6 -10l-19 16h-61l-45 27l-129 79l-27 25l-18 37l-25 43l-18 33l-7 -9l-26 27 l8 6v19l-8 12l-10 100zM365 -469l6 35l18 2l14 39l5 12l36 -6l43 -4l25 8l33 2l4 -27l10 -28l21 6l22 12l14 37l41 37l-24 27l-17 -13l-14 35l-20 12l-17 2l-53 -20l-18 20l-29 31l-23 -18l-39 32l5 29l-17 14l58 21l34 22l-20 37l31 21v53l2 29l20 63l29 29h57l14 -100 l15 -138l55 -10l12 -16l2 -19l15 2l12 -14l27 -23v-45l4 -18l10 -18l2 -29l10 -57l-16 -19l-12 -10l8 -19l-6 -18l-11 -43l-38 -43l-58 6l-14 -37l-51 -2l-19 -14l-33 -25l-43 4l-22 19l-8 -25l-29 2l-20 19v30l-27 33l-10 19z" />
<glyph unicode="&#xb4;" d="M344 1065l25 33l24 53l99 106l8 -12l10 12l-18 25h8l18 18v25l49 70l99 51l24 -14l94 -13l37 -33l19 -43h-11l-8 -10l19 -18l-25 -8l6 -25l-24 -18l6 -7v-18h-43l-76 -70l-37 -10l-18 -26l-17 -17l11 -8l-56 -43l13 -37l-45 -43l8 -24l-19 -19l-32 -27l-25 9l-43 28 l-12 -10h-19l-43 43h10l9 10l-19 27l10 25z" />
<glyph unicode="&#xb7;" d="M309 379h6v24l-6 95l43 80l62 45h14l29 24l59 19l10 -11h19l6 17l113 -49l43 -45l26 -25v-37l10 -6l19 -43l-29 -74v-43h-8l-6 -33v-24l-80 -37l-51 -37h-37l-6 -6l-19 16l-37 -16l-6 -8l-26 8l-43 43l-11 -8h-26l-25 33l-24 88z" />
<glyph unicode="&#xb8;" d="M365 -315l6 34l18 2l14 39l5 13l36 -6l43 -5l25 9l33 2l4 -27l10 -29l21 7l22 12l14 37l41 37l-24 26l-17 -12l-14 35l-20 12l-17 2l-53 -20l-18 20l-29 31l-23 -19l-39 33l5 29l-17 14l58 21l34 22l-20 37l31 20v54l2 28l20 64l29 29h57l14 -101l15 -137l55 -10l12 -17 l2 -18l15 2l12 -14l27 -23v-45l4 -18l10 -19l2 -29l10 -57l-16 -18l-12 -11l8 -18l-6 -18l-11 -43l-38 -43l-58 6l-14 -37l-51 -2l-19 -15l-33 -24l-43 4l-22 18l-8 -24l-29 2l-20 18v31l-27 33l-10 18z" />
<glyph unicode="&#xbf;" d="M96 197l51 86l11 12l51 49l94 94l29 13h24l52 32l18 19l-8 61l-17 25v43l31 69l125 -8l6 -6h19l24 -43l12 -12l-18 -19v-32l18 -17l19 -26v-19h-12l-7 -35l-18 -26h-18l-9 -19h-24l-53 -86h-27l-18 -24l-33 -19l-53 -8l-33 -51v-53l6 -9l8 -67l29 -45l43 -17v-12l26 -24 l156 -9l37 -10l43 43h14l29 29l-61 26l-44 52l7 24l12 10l-19 19l19 14l-12 12h12l6 25l8 -8l29 26h43l25 19l8 6h18l25 -25l43 19l55 -37l8 -70h-8l-10 -34l-8 -45l-11 -62l-57 -67v-19l-80 -51l-45 -19l-6 -6l-37 -12l-80 -14l-33 -19l-67 8l-62 11l-18 14l-88 12l-19 25 h-49l-69 104l-29 70l-27 18l13 86l-13 9h-6zM303 911l10 43l25 43l8 9h29v-9h26l31 25l74 12l14 6h29l57 -34l31 10l43 -27l14 -10v-61l-8 10l-24 -54l-113 -94l-29 -37h-8l-16 19h-27l-80 43l-6 -6l-18 24l6 -8l-11 -6l-4 6l9 8l-33 37l-10 25v8z" />
<glyph unicode="&#xc0;" d="M33 25l14 36v50l29 18h24l33 12l19 15l10 -9l8 9l43 -9l61 80v52l9 24l10 27l8 35l6 18l37 51l-8 10l26 27v76l7 35l26 36l-8 27h8l11 49l6 -6h12l25 43v76l18 43l8 37l25 43l10 37l14 24l-6 8l25 11h26v-11l11 -8h6l18 19l-18 32l-6 -6l-27 33l8 43v18l25 11l61 -19 l27 -24v-37l24 -70v-35l19 -26l18 -94l-8 -11l33 -61l12 -43l25 -121l32 -35l-8 -8l27 -53l-8 -27l18 -18v-6l-10 -9l18 -18v-86l6 -10l19 -27v-43l18 -8l6 -35l13 -45l43 -43h76l28 -18l45 -15l15 -43l-9 -28v-15h-18l-6 -10l-12 -8l-58 -37l-80 12h-37h-43l-24 6h-27 l-16 -18v12l-121 6l-72 62v18l43 25l-8 8l27 18v19l80 24l6 62l-17 18l-16 33h-16l-19 25l-254 -15l-14 -18l6 -80l45 -16v-9l6 -6h19v-30l24 -33h13l6 8l26 -51l-16 -25l8 -10h-37l-6 -18l-61 -27l-164 12l-10 6h-27l-43 -43l-25 19l-12 -12l-57 36h-37l-35 37zM94 1556v74 l29 51l76 50l106 -25h49l31 -25l6 7v-33l25 -19v-18l37 -31l8 -31l35 -32v-17l32 -18l45 -70l29 -18v-129l-29 -27l-32 -18l-56 18h-24l-8 27l-43 24h-25l-31 37v25l-43 43h-24l-8 26l-11 11l-14 18l-43 -10l-55 53h-19l-14 43zM481 453h19l53 -19l88 37l14 -18l11 6h8 l24 37l-6 61l-8 8v35l-53 33v18l-8 25l24 45h8l-32 115l-11 8v18l19 68l-19 26l-8 -8l-6 -18l6 -6l-18 -19l-17 -18l-16 -19l8 -112l-24 -43h-19l-8 -43v-70l-18 -18v-50v-36h-11v-43z" />
<glyph unicode="&#xc1;" d="M33 25l14 36v50l29 18h24l33 12l19 15l10 -9l8 9l43 -9l61 80v52l9 24l10 27l8 35l6 18l37 51l-8 10l26 27v76l7 35l26 36l-8 27h8l11 49l6 -6h12l25 43v76l18 43l8 37l25 43l10 37l14 24l-6 8l25 11h26v-11l11 -8h6l18 19l-18 32l-6 -6l-27 33l8 43v18l25 11l61 -19 l27 -24v-37l24 -70v-35l19 -26l18 -94l-8 -11l33 -61l12 -43l25 -121l32 -35l-8 -8l27 -53l-8 -27l18 -18v-6l-10 -9l18 -18v-86l6 -10l19 -27v-43l18 -8l6 -35l13 -45l43 -43h76l28 -18l45 -15l15 -43l-9 -28v-15h-18l-6 -10l-12 -8l-58 -37l-80 12h-37h-43l-24 6h-27 l-16 -18v12l-121 6l-72 62v18l43 25l-8 8l27 18v19l80 24l6 62l-17 18l-16 33h-16l-19 25l-254 -15l-14 -18l6 -80l45 -16v-9l6 -6h19v-30l24 -33h13l6 8l26 -51l-16 -25l8 -10h-37l-6 -18l-61 -27l-164 12l-10 6h-27l-43 -43l-25 19l-12 -12l-57 36h-37l-35 37zM481 453h19 l53 -19l88 37l14 -18l11 6h8l24 37l-6 61l-8 8v35l-53 33v18l-8 25l24 45h8l-32 115l-11 8v18l19 68l-19 26l-8 -8l-6 -18l6 -6l-18 -19l-17 -18l-16 -19l8 -112l-24 -43h-19l-8 -43v-70l-18 -18v-50v-36h-11v-43zM539 1352l24 32l25 54l98 106l8 -12l11 12l-19 25h8l19 18 v25l49 69l98 52l25 -15l94 -12l37 -33l18 -43h-10l-8 -10l18 -18l-24 -9l6 -24l-25 -19l6 -6v-18h-43l-75 -70l-37 -10l-19 -27l-16 -16l10 -8l-55 -43l12 -37l-45 -43l8 -25l-18 -18l-33 -27l-24 8l-44 29l-12 -10h-18l-43 43h10l8 10l-18 27l10 24z" />
<glyph unicode="&#xc2;" d="M33 25l14 36v50l29 18h24l33 12l19 15l10 -9l8 9l43 -9l61 80v52l9 24l10 27l8 35l6 18l37 51l-8 10l26 27v76l7 35l26 36l-8 27h8l11 49l6 -6h12l25 43v76l18 43l8 37l25 43l10 37l14 24l-6 8l25 11h26v-11l11 -8h6l18 19l-18 32l-6 -6l-27 33l8 43v18l25 11l61 -19 l27 -24v-37l24 -70v-35l19 -26l18 -94l-8 -11l33 -61l12 -43l25 -121l32 -35l-8 -8l27 -53l-8 -27l18 -18v-6l-10 -9l18 -18v-86l6 -10l19 -27v-43l18 -8l6 -35l13 -45l43 -43h76l28 -18l45 -15l15 -43l-9 -28v-15h-18l-6 -10l-12 -8l-58 -37l-80 12h-37h-43l-24 6h-27 l-16 -18v12l-121 6l-72 62v18l43 25l-8 8l27 18v19l80 24l6 62l-17 18l-16 33h-16l-19 25l-254 -15l-14 -18l6 -80l45 -16v-9l6 -6h19v-30l24 -33h13l6 8l26 -51l-16 -25l8 -10h-37l-6 -18l-61 -27l-164 12l-10 6h-27l-43 -43l-25 19l-12 -12l-57 36h-37l-35 37zM176 1081 v25l29 27l8 43l51 61l-8 12v6l43 9l8 28l-14 15l33 -9l10 37h6l8 33l29 25l27 55h30l19 33h69l62 35l-6 18l16 -18l14 18l31 -18l6 8v10h19v-18l32 -17l54 17l69 -43h8v-19l17 -43h18l8 -51l37 -10h-8l-10 -7v-8l24 -10l56 -61v-27l49 -68l12 -63l6 -6l-18 -19l12 -24v-19 l-37 -18l-18 -25h12v-18h-12v10l-68 8l-51 17l-43 45h-37v18l-26 25v24l-86 70l-25 10l-45 27h-29v6l-14 18l-37 -24l-24 -27v-10l8 -8l-19 -17v-8h-8l-18 15l-19 -25l13 -8v-19l-56 -24v-37l-14 -19l14 -14l-33 -10v-33h-10l-14 -18l-88 8v10l-17 14l-12 -6v17l-14 18z M481 453h19l53 -19l88 37l14 -18l11 6h8l24 37l-6 61l-8 8v35l-53 33v18l-8 25l24 45h8l-32 115l-11 8v18l19 68l-19 26l-8 -8l-6 -18l6 -6l-18 -19l-17 -18l-16 -19l8 -112l-24 -43h-19l-8 -43v-70l-18 -18v-50v-36h-11v-43z" />
<glyph unicode="&#xc3;" d="M33 25l14 36v50l29 18h24l33 12l19 15l10 -9l8 9l43 -9l61 80v52l9 24l10 27l8 35l6 18l37 51l-8 10l26 27v76l7 35l26 36l-8 27h8l11 49l6 -6h12l25 43v76l18 43l8 37l25 43l10 37l14 24l-6 8l25 11h26v-11l11 -8h6l18 19l-18 32l-6 -6l-27 33l8 43v18l25 11l61 -19 l27 -24v-37l24 -70v-35l19 -26l18 -94l-8 -11l33 -61l12 -43l25 -121l32 -35l-8 -8l27 -53l-8 -27l18 -18v-6l-10 -9l18 -18v-86l6 -10l19 -27v-43l18 -8l6 -35l13 -45l43 -43h76l28 -18l45 -15l15 -43l-9 -28v-15h-18l-6 -10l-12 -8l-58 -37l-80 12h-37h-43l-24 6h-27 l-16 -18v12l-121 6l-72 62v18l43 25l-8 8l27 18v19l80 24l6 62l-17 18l-16 33h-16l-19 25l-254 -15l-14 -18l6 -80l45 -16v-9l6 -6h19v-30l24 -33h13l6 8l26 -51l-16 -25l8 -10h-37l-6 -18l-61 -27l-164 12l-10 6h-27l-43 -43l-25 19l-12 -12l-57 36h-37l-35 37zM195 1176 l8 84l6 90l29 36l32 56h56l49 35l86 4l45 22l47 -2l4 4l74 -39l8 -55l23 -16l20 16l61 -31l70 -61l8 -10h17l-4 -13l40 125l9 37l43 37l71 -12l25 -51l20 -29l-28 -68l-37 -30h16l33 -13h-14l-62 -53l-41 -6l-14 -45l-12 6l-33 -23h-45l-12 -12l-31 17l-35 -17l-51 17h-14 l-68 18l-68 61l-37 41l-22 47l-111 -8l-8 -75l-16 -89h-19l-16 -20l-14 20l-35 -12l-47 29zM481 453h19l53 -19l88 37l14 -18l11 6h8l24 37l-6 61l-8 8v35l-53 33v18l-8 25l24 45h8l-32 115l-11 8v18l19 68l-19 26l-8 -8l-6 -18l6 -6l-18 -19l-17 -18l-16 -19l8 -112 l-24 -43h-19l-8 -43v-70l-18 -18v-50v-36h-11v-43z" />
<glyph unicode="&#xc4;" d="M33 25l14 36v50l29 18h24l33 12l19 15l10 -9l8 9l43 -9l61 80v52l9 24l10 27l8 35l6 18l37 51l-8 10l26 27v76l7 35l26 36l-8 27h8l11 49l6 -6h12l25 43v76l18 43l8 37l25 43l10 37l14 24l-6 8l25 11h26v-11l11 -8h6l18 19l-18 32l-6 -6l-27 33l8 43v18l25 11l61 -19 l27 -24v-37l24 -70v-35l19 -26l18 -94l-8 -11l33 -61l12 -43l25 -121l32 -35l-8 -8l27 -53l-8 -27l18 -18v-6l-10 -9l18 -18v-86l6 -10l19 -27v-43l18 -8l6 -35l13 -45l43 -43h76l28 -18l45 -15l15 -43l-9 -28v-15h-18l-6 -10l-12 -8l-58 -37l-80 12h-37h-43l-24 6h-27 l-16 -18v12l-121 6l-72 62v18l43 25l-8 8l27 18v19l80 24l6 62l-17 18l-16 33h-16l-19 25l-254 -15l-14 -18l6 -80l45 -16v-9l6 -6h19v-30l24 -33h13l6 8l26 -51l-16 -25l8 -10h-37l-6 -18l-61 -27l-164 12l-10 6h-27l-43 -43l-25 19l-12 -12l-57 36h-37l-35 37zM244 1399 l24 37l105 18l61 -10l27 -51l-19 -37l11 -6l-25 -19l-18 -45l-11 -6l19 -18l-51 -11l-11 -8v-18l-32 26l-45 19v43l-25 18zM481 453h19l53 -19l88 37l14 -18l11 6h8l24 37l-6 61l-8 8v35l-53 33v18l-8 25l24 45h8l-32 115l-11 8v18l19 68l-19 26l-8 -8l-6 -18l6 -6l-18 -19 l-17 -18l-16 -19l8 -112l-24 -43h-19l-8 -43v-70l-18 -18v-50v-36h-11v-43zM721 1356v26l27 17l-9 37h9l18 18l10 -10l15 16l71 8l33 -14l18 -37l19 -18l6 -105l-68 -57l-61 6l-27 19l-49 75z" />
<glyph unicode="&#xc5;" d="M33 25l14 36v50l29 18h24l33 12l19 15l10 -9l8 9l43 -9l61 80v52l9 24l10 27l8 35l6 18l37 51l-8 10l26 27v76l7 35l26 36l-8 27h8l11 49l6 -6h12l25 43v76l18 43l8 37l25 43l10 37l14 24l-6 8l25 11h26v-11l11 -8h6l18 19l-18 32l-6 -6l-27 33l8 43v18l25 11l61 -19 l27 -24v-37l24 -70v-35l19 -26l18 -94l-8 -11l33 -61l12 -43l25 -121l32 -35l-8 -8l27 -53l-8 -27l18 -18v-6l-10 -9l18 -18v-86l6 -10l19 -27v-43l18 -8l6 -35l13 -45l43 -43h76l28 -18l45 -15l15 -43l-9 -28v-15h-18l-6 -10l-12 -8l-58 -37l-80 12h-37h-43l-24 6h-27 l-16 -18v12l-121 6l-72 62v18l43 25l-8 8l27 18v19l80 24l6 62l-17 18l-16 33h-16l-19 25l-254 -15l-14 -18l6 -80l45 -16v-9l6 -6h19v-30l24 -33h13l6 8l26 -51l-16 -25l8 -10h-37l-6 -18l-61 -27l-164 12l-10 6h-27l-43 -43l-25 19l-12 -12l-57 36h-37l-35 37zM391 1180 l8 61l19 19v6l-8 8l51 61l-8 27v16h32l27 56l43 6l18 18l62 8l18 11l6 -11h27l-8 -8v-10l70 -25l24 -51h10l19 -37l8 -6h18l-12 -55v-25l12 -8h17l-17 -24v-89l-26 -18v-16l8 -9l-37 -18l-14 -25l-19 -18l-98 -55l-43 18l-14 -18l-43 12l-88 104l-11 33zM481 453h19l53 -19 l88 37l14 -18l11 6h8l24 37l-6 61l-8 8v35l-53 33v18l-8 25l24 45h8l-32 115l-11 8v18l19 68l-19 26l-8 -8l-6 -18l6 -6l-18 -19l-17 -18l-16 -19l8 -112l-24 -43h-19l-8 -43v-70l-18 -18v-50v-36h-11v-43zM565 1188l51 -51l19 18l24 16l-6 52h-18l-27 18l-24 8l-19 -26 l19 -25l-11 -10h-8zM590 1171v13h16v-13h-16zM590 1329l18 -26l8 8l-18 18h-8z" />
<glyph unicode="&#xc6;" d="M-262 25l14 36v50l29 18h24l33 12l19 15l10 -9l8 9l43 -9l62 80v52l8 24l10 27l8 35l6 18l37 51l-8 10l27 27v76l6 35l26 36l-8 27h8l11 49l6 -6h12l25 43v76l18 43l8 37l25 43l10 37l14 24l-6 8l25 11l12 14h-27l-16 49l29 45l82 -24l41 -33l8 -29l53 21l-24 49l12 49 l35 -8l10 10l131 -35l43 10h43h94l27 15h43l18 -25l35 -8h27l18 18l14 -18l43 25l72 -7l59 -28l11 -27l18 -86v-76l15 -18v-107l18 -34l-33 -33l-29 6l-45 80l-6 61l-18 45l10 7v18l-10 8l-19 35l-32 27h-19l-6 24l-29 25l-8 -6l-43 36l6 7h-32l-17 -19l-88 -6l-18 -27h-76 l-10 -10v-6h-19v6h-33l-36 -18v-226l-17 -24l17 -53l26 -45l54 -7v-8h51l24 43h31l33 27v61h10l14 33v18l29 7h14l37 -33l6 8v-43l13 -61l6 -60l-25 -43v-61v-43l6 -37l13 -43v-27l-99 -43l-24 62v104l-27 33l-6 -6l-18 18l-156 6l-37 -43l18 -51l21 -172v-43l18 -8l7 -35 l12 -45l57 -33l82 -4h72h24l21 -18l53 -8l14 26l43 25v26h11l18 43l14 19l-6 53l43 45v49l19 19v26h49l-2 6l6 9l8 -9l-12 -6l12 -8h25l18 -61v-19h-10l-27 -69l9 -166l-15 -19v-32l-12 8l-6 -43l-11 -27l-14 -18l-37 18h-61l-8 8l-54 -26l-32 -6l-43 -5l-144 -20l-123 12 h-24h-37l-49 25l-158 -6h-33l-53 -6l-8 20h-23l-6 -18l-61 -27l-164 12l-10 6h-27l-43 -43l-24 19l-13 -12l-57 36h-37l-35 37zM129 252l6 -80l45 -16v-9l6 -6h19h65l62 -14l76 8l22 4l16 4l13 13v6l-6 10l8 12l4 25l-16 18l-17 33h-16l-19 25l-254 -15zM186 453h19l53 -19 l88 37l14 -18l11 6h8l24 37l-6 61l-8 8v35l-53 33v18l-8 25l24 45h8l-32 115l-11 8v18l-26 43l-17 -18l-16 -19l8 -112l-24 -43h-19l-8 -43v-70l-18 -18v-50v-36h-11v-43z" />
<glyph unicode="&#xc7;" d="M156 426l10 51l8 55l10 7l-28 26l10 236l8 35l19 26v25l-9 8l25 29l8 -11l25 43v19l-6 6l43 37l8 61l61 43l25 43h55l94 33h43l10 12h76l19 -26l18 -10h25l26 -25h25v-8l43 -19l45 43h29l6 9l26 18l25 -18l18 -70h-8l-10 -49l-14 -19l8 -45l-19 -16l11 -27h-11l-26 -43 v-18l8 -6l29 -56l32 -61l-8 -88l-10 -6v-25h-14l-43 25l-29 24l-27 19h-18l18 18l-32 70v6l14 18l-33 43l8 56l-24 43l-8 -11v11l-19 14l-10 -6l-8 6l-6 -6v-19h-29l10 25l-24 55l-31 6l-58 13l-10 6h-8l-18 -19l-50 13l-30 -31v-33l-49 -24l-9 8l-10 -8l-51 -54l-18 -32 v-37l-43 -62v-112v-43l-9 -9v-28l9 -8l8 -25l-17 -43l33 -43l19 -45l8 -80l18 -49l53 -55v-15l27 -18l16 -19v-24l52 -19l94 9l43 34l31 27l49 10l61 70l-10 43h10l19 18l8 -12l37 45l-13 53l-6 9l33 34l43 9h18l25 -25h18v-37l19 -24l-8 -37l-19 -60l19 -16l-19 -45l8 -10 l-61 -25l-14 -33v-12l6 -6l-80 -88l-14 -25l-11 -43h-18l-14 -18l-37 18l-17 -18l11 -10l-74 -9h-76l-18 19l-43 -10h-25v10l-43 8h-27v35l-43 33l-55 55l-43 18v58l-18 18v25l-6 10h-27v18l-25 27l-18 49l8 45zM354 70l17 86l32 51v18l37 19l37 35l6 -11l62 43h26l19 -18 l61 12v-12l6 -6h27l-8 -8l26 -19h17v-10l33 -14h18v-29l37 -57l6 6v-43v-37h-6l-19 -101v-45v-71l-8 10l-16 -43h-19l-51 -80l8 -6l-36 -37l10 -8l-62 -68l-69 -55l-86 -18h-43l-56 98l29 94h14l13 18l18 19l-12 6l18 18v27h27l25 25v28l10 9l-35 6l-8 10h-19l-6 27l-12 6 h-19l-6 37l-18 18l10 6l-10 12z" />
<glyph unicode="&#xc8;" d="M63 41l19 68l43 32l61 -14l76 8l37 6l18 19l-10 12l35 49v107v49l8 55l10 8v6l-10 11l-18 32l10 324v53l-10 121l-8 25h-68l-10 -6h-33h-37l10 6l-71 12h-27l-16 49l28 45l43 25h164l10 10l132 -35l43 10h43h94l26 15h43l19 -25l35 -8h26l19 18l14 -18l43 25l72 -7 l59 -28l10 -27l19 -86v-76l14 -18v-107l19 -34l-33 -33l-29 6l-45 80l-6 61l-19 45l11 7v18l-11 8l-18 35l-33 27h-18l-6 24l-29 25l-8 -6l-43 36l6 7h-33l-16 -19l-88 -6l-19 -27h-75l-11 -10v-6h-18v6h-33l-37 -18v-226l-16 -24l16 -53l27 -45l53 -7v-8h51l25 43h31l32 27 v61h11l14 33v18l29 7h14l37 -33l6 8v-43l12 -61l6 -60l-24 -43v-61v-43l6 -37l12 -43v-27l-98 -43l-25 62v104l-26 33l-6 -6l-19 18l-155 6l-37 -43l18 -51l6 -80l-16 -18v-105l35 -43l-6 -51l-13 -6l37 -37l94 -8l25 -18l63 18l43 8h25v-8l74 -18l14 26l43 25v26h10l19 43 l14 19l-6 53l43 45v49l18 19v26h49l-2 6l7 9l8 -9l-13 -6l13 -8h24l19 -61v-19h-10l-27 -69l8 -166l-14 -19v-32l-13 8l-6 -43l-10 -27l-14 -18l-37 18h-62l-8 8l-53 -26l-33 -6l-26 18l-80 -12h-94h-123l-35 -6h-60l-53 -13l-26 31l-19 -18l-61 6h-33l-53 -6l-15 32h-18z M166 1536v74l29 51l75 49l107 -24h49l31 -25l6 6v-33l24 -18v-19l37 -30l8 -31l35 -33v-16l33 -19l45 -69l29 -19v-129l-29 -26l-33 -19l-55 19h-25l-8 26l-43 25h-24l-31 37v24l-43 43h-25l-8 27l-10 10l-14 19l-43 -11l-56 54h-18l-14 43z" />
<glyph unicode="&#xc9;" d="M63 41l19 68l43 32l61 -14l76 8l37 6l18 19l-10 12l35 49v107v49l8 55l10 8v6l-10 11l-18 32l10 324v53l-10 121l-8 25h-68l-10 -6h-33h-37l10 6l-71 12h-27l-16 49l28 45l43 25h164l10 10l132 -35l43 10h43h94l26 15h43l19 -25l35 -8h26l19 18l14 -18l43 25l72 -7 l59 -28l10 -27l19 -86v-76l14 -18v-107l19 -34l-33 -33l-29 6l-45 80l-6 61l-19 45l11 7v18l-11 8l-18 35l-33 27h-18l-6 24l-29 25l-8 -6l-43 36l6 7h-33l-16 -19l-88 -6l-19 -27h-75l-11 -10v-6h-18v6h-33l-37 -18v-226l-16 -24l16 -53l27 -45l53 -7v-8h51l25 43h31l32 27 v61h11l14 33v18l29 7h14l37 -33l6 8v-43l12 -61l6 -60l-24 -43v-61v-43l6 -37l12 -43v-27l-98 -43l-25 62v104l-26 33l-6 -6l-19 18l-155 6l-37 -43l18 -51l6 -80l-16 -18v-105l35 -43l-6 -51l-13 -6l37 -37l94 -8l25 -18l63 18l43 8h25v-8l74 -18l14 26l43 25v26h10l19 43 l14 19l-6 53l43 45v49l18 19v26h49l-2 6l7 9l8 -9l-13 -6l13 -8h24l19 -61v-19h-10l-27 -69l8 -166l-14 -19v-32l-13 8l-6 -43l-10 -27l-14 -18l-37 18h-62l-8 8l-53 -26l-33 -6l-26 18l-80 -12h-94h-123l-35 -6h-60l-53 -13l-26 31l-19 -18l-61 6h-33l-53 -6l-15 32h-18z " />
<glyph unicode="&#xca;" d="M63 41l19 68l43 32l61 -14l76 8l37 6l18 19l-10 12l35 49v107v49l8 55l10 8v6l-10 11l-18 32l10 324v53l-10 121l-8 25h-68l-10 -6h-33h-37l10 6l-71 12h-27l-16 49l28 45l43 25h164l10 10l132 -35l43 10h43h94l26 15h43l19 -25l35 -8h26l19 18l14 -18l43 25l72 -7 l59 -28l10 -27l19 -86v-76l14 -18v-107l19 -34l-33 -33l-29 6l-45 80l-6 61l-19 45l11 7v18l-11 8l-18 35l-33 27h-18l-6 24l-29 25l-8 -6l-43 36l6 7h-33l-16 -19l-88 -6l-19 -27h-75l-11 -10v-6h-18v6h-33l-37 -18v-226l-16 -24l16 -53l27 -45l53 -7v-8h51l25 43h31l32 27 v61h11l14 33v18l29 7h14l37 -33l6 8v-43l12 -61l6 -60l-24 -43v-61v-43l6 -37l12 -43v-27l-98 -43l-25 62v104l-26 33l-6 -6l-19 18l-155 6l-37 -43l18 -51l6 -80l-16 -18v-105l35 -43l-6 -51l-13 -6l37 -37l94 -8l25 -18l63 18l43 8h25v-8l74 -18l14 26l43 25v26h10l19 43 l14 19l-6 53l43 45v49l18 19v26h49l-2 6l7 9l8 -9l-13 -6l13 -8h24l19 -61v-19h-10l-27 -69l8 -166l-14 -19v-32l-13 8l-6 -43l-10 -27l-14 -18l-37 18h-62l-8 8l-53 -26l-33 -6l-26 18l-80 -12h-94h-123l-35 -6h-60l-53 -13l-26 31l-19 -18l-61 6h-33l-53 -6l-15 32h-18z M145 1276v24l29 27l8 43l51 62l-8 12v6l43 8l8 29l-14 14l33 -8l10 37h6l8 33l29 24l27 55h31l18 33h70l61 35l-6 19l16 -19l15 19l30 -19l6 8v11h19v-19l33 -16l53 16l70 -43h8v-18l16 -43h19l8 -52l37 -10h-9l-10 -6v-8l25 -10l55 -62v-26l49 -68l12 -64l7 -6l-19 -18 l12 -25v-18l-36 -19l-19 -24h12v-19h-12v11l-67 8l-52 16l-43 45h-36v19l-27 24v25l-86 70l-25 10l-45 26h-28v7l-15 18l-37 -25l-24 -26v-10l8 -9l-18 -16v-8h-9l-18 14l-18 -24l12 -9v-18l-56 -25v-37l-14 -18l14 -14l-32 -11v-32h-11l-14 -19l-88 8v11l-16 14l-13 -6v16 l-14 19z" />
<glyph unicode="&#xcb;" d="M63 41l19 68l43 32l61 -14l76 8l37 6l18 19l-10 12l35 49v107v49l8 55l10 8v6l-10 11l-18 32l10 324v53l-10 121l-8 25h-68l-10 -6h-33h-37l10 6l-71 12h-27l-16 49l28 45l43 25h164l10 10l132 -35l43 10h43h94l26 15h43l19 -25l35 -8h26l19 18l14 -18l43 25l72 -7 l59 -28l10 -27l19 -86v-76l14 -18v-107l19 -34l-33 -33l-29 6l-45 80l-6 61l-19 45l11 7v18l-11 8l-18 35l-33 27h-18l-6 24l-29 25l-8 -6l-43 36l6 7h-33l-16 -19l-88 -6l-19 -27h-75l-11 -10v-6h-18v6h-33l-37 -18v-226l-16 -24l16 -53l27 -45l53 -7v-8h51l25 43h31l32 27 v61h11l14 33v18l29 7h14l37 -33l6 8v-43l12 -61l6 -60l-24 -43v-61v-43l6 -37l12 -43v-27l-98 -43l-25 62v104l-26 33l-6 -6l-19 18l-155 6l-37 -43l18 -51l6 -80l-16 -18v-105l35 -43l-6 -51l-13 -6l37 -37l94 -8l25 -18l63 18l43 8h25v-8l74 -18l14 26l43 25v26h10l19 43 l14 19l-6 53l43 45v49l18 19v26h49l-2 6l7 9l8 -9l-13 -6l13 -8h24l19 -61v-19h-10l-27 -69l8 -166l-14 -19v-32l-13 8l-6 -43l-10 -27l-14 -18l-37 18h-62l-8 8l-53 -26l-33 -6l-26 18l-80 -12h-94h-123l-35 -6h-60l-53 -13l-26 31l-19 -18l-61 6h-33l-53 -6l-15 32h-18z M244 1358l24 37l105 18l61 -10l27 -51l-19 -37l11 -6l-25 -19l-18 -45l-11 -6l19 -18l-51 -11l-11 -8v-18l-32 26l-45 19v43l-25 18zM721 1315v26l27 17l-9 37h9l18 18l10 -10l15 16l71 8l33 -14l18 -37l19 -18l6 -105l-68 -57l-61 6l-27 19l-49 75z" />
<glyph unicode="&#xcc;" d="M145 1556v74l29 51l76 50l106 -25h50l30 -25l6 7v-33l25 -19v-18l37 -31l8 -31l35 -32v-17l33 -18l45 -70l28 -18v-129l-28 -27l-33 -18l-55 18h-25l-8 27l-43 24h-25l-30 37v25l-44 43h-24l-8 26l-11 11l-14 18l-43 -10l-55 53h-19l-14 43zM156 66l10 26v6l76 29l43 8 h30l68 25h33l18 -19l10 13l15 -13l12 -6l18 25l-12 12h12l7 33v61l-7 80h7v25l-7 6l15 18v70l10 10v14l-18 19l18 43l-10 37v88v104v33l16 53l-16 15l10 45l6 10l-16 18v43l-78 9h-16l-19 -19l10 -8h-28v8l-88 10l-58 9l-37 34v70h9l10 8l51 25l150 10h-9l-10 -10l105 -8 l24 18h98l60 -10l16 18l56 10l24 -18l51 8l62 -8l61 -10v-8l19 -17l-11 -63l-32 -31h-29l-70 -27l-18 15l-6 -6l-19 18l-43 -18v-9h-18l-27 27l-43 -18h-6v-37l17 -58l-11 -45l-6 -10l17 -25l-17 -18l6 -164l11 -209l16 -139l-8 -10l8 -8l29 -123l51 12h24v-12l80 -6l94 -13 l62 -67l-51 -76l-43 -31h-72l-139 -6v6h-51h-29h-43l-15 -6h-28l-15 19l-36 -13v-6h-25l6 6l-24 19l-70 -19l-25 13l-55 -19l-18 6l-15 13l-18 18h-68l-10 57z" />
<glyph unicode="&#xcd;" d="M156 66l10 26v6l76 29l43 8h30l68 25h33l18 -19l10 13l15 -13l12 -6l18 25l-12 12h12l7 33v61l-7 80h7v25l-7 6l15 18v70l10 10v14l-18 19l18 43l-10 37v88v104v33l16 53l-16 15l10 45l6 10l-16 18v43l-78 9h-16l-19 -19l10 -8h-28v8l-88 10l-58 9l-37 34v70h9l10 8 l51 25l150 10h-9l-10 -10l105 -8l24 18h98l60 -10l16 18l56 10l24 -18l51 8l62 -8l61 -10v-8l19 -17l-11 -63l-32 -31h-29l-70 -27l-18 15l-6 -6l-19 18l-43 -18v-9h-18l-27 27l-43 -18h-6v-37l17 -58l-11 -45l-6 -10l17 -25l-17 -18l6 -164l11 -209l16 -139l-8 -10l8 -8 l29 -123l51 12h24v-12l80 -6l94 -13l62 -67l-51 -76l-43 -31h-72l-139 -6v6h-51h-29h-43l-15 -6h-28l-15 19l-36 -13v-6h-25l6 6l-24 19l-70 -19l-25 13l-55 -19l-18 6l-15 13l-18 18h-68l-10 57zM477 1382l25 33l24 53l99 107l8 -12l10 12l-18 24h8l18 19v24l49 70l99 51 l24 -14l95 -12l36 -33l19 -43h-10l-9 -10l19 -19l-25 -8l6 -25l-24 -18l6 -6v-19h-43l-76 -69l-37 -10l-18 -27l-17 -16l11 -9l-56 -43l13 -36l-45 -43l8 -25l-19 -18l-32 -27l-25 8l-43 29l-12 -10h-19l-43 43h11l8 10l-19 26l11 25z" />
<glyph unicode="&#xce;" d="M135 1317v24l29 27l8 43l51 62l-8 12v6l43 8l8 29l-14 14l33 -8l10 37h6l8 33l29 24l27 55h30l19 33h69l62 35l-6 18l16 -18l14 18l31 -18l6 8v10h19v-18l32 -16l54 16l69 -43h8v-18l17 -43h18l8 -52l37 -10h-8l-10 -6v-8l24 -10l56 -62v-26l49 -68l12 -64l6 -6l-18 -18 l12 -25v-18l-37 -19l-18 -24h12v-19h-12v11l-68 8l-51 16l-43 45h-37v19l-26 24v25l-86 70l-25 10l-45 26h-29v7l-14 18l-37 -25l-24 -26v-10l8 -9l-19 -16v-8h-8l-18 14l-19 -25l13 -8v-18l-56 -25v-37l-14 -18l14 -14l-33 -11v-32h-10l-14 -19l-88 8v11l-17 14l-12 -6v16 l-14 19zM156 66l10 26v6l76 29l43 8h30l68 25h33l18 -19l10 13l15 -13l12 -6l18 25l-12 12h12l7 33v61l-7 80h7v25l-7 6l15 18v70l10 10v14l-18 19l18 43l-10 37v88v104v33l16 53l-16 15l10 45l6 10l-16 18v43l-78 9h-16l-19 -19l10 -8h-28v8l-88 10l-58 9l-37 34v70h9l10 8 l51 25l150 10h-9l-10 -10l105 -8l24 18h98l60 -10l16 18l56 10l24 -18l51 8l62 -8l61 -10v-8l19 -17l-11 -63l-32 -31h-29l-70 -27l-18 15l-6 -6l-19 18l-43 -18v-9h-18l-27 27l-43 -18h-6v-37l17 -58l-11 -45l-6 -10l17 -25l-17 -18l6 -164l11 -209l16 -139l-8 -10l8 -8 l29 -123l51 12h24v-12l80 -6l94 -13l62 -67l-51 -76l-43 -31h-72l-139 -6v6h-51h-29h-43l-15 -6h-28l-15 19l-36 -13v-6h-25l6 6l-24 19l-70 -19l-25 13l-55 -19l-18 6l-15 13l-18 18h-68l-10 57z" />
<glyph unicode="&#xcf;" d="M156 66l10 26v6l76 29l43 8h30l68 25h33l18 -19l10 13l15 -13l12 -6l18 25l-12 12h12l7 33v61l-7 80h7v25l-7 6l15 18v70l10 10v14l-18 19l18 43l-10 37v88v104v33l16 53l-16 15l10 45l6 10l-16 18v43l-78 9h-16l-19 -19l10 -8h-28v8l-88 10l-58 9l-37 34v70h9l10 8 l51 25l150 10h-9l-10 -10l105 -8l24 18h98l60 -10l16 18l56 10l24 -18l51 8l62 -8l61 -10v-8l19 -17l-11 -63l-32 -31h-29l-70 -27l-18 15l-6 -6l-19 18l-43 -18v-9h-18l-27 27l-43 -18h-6v-37l17 -58l-11 -45l-6 -10l17 -25l-17 -18l6 -164l11 -209l16 -139l-8 -10l8 -8 l29 -123l51 12h24v-12l80 -6l94 -13l62 -67l-51 -76l-43 -31h-72l-139 -6v6h-51h-29h-43l-15 -6h-28l-15 19l-36 -13v-6h-25l6 6l-24 19l-70 -19l-25 13l-55 -19l-18 6l-15 13l-18 18h-68l-10 57zM233 1409l25 37l104 18l62 -10l27 -51l-19 -37l10 -6l-24 -19l-19 -45 l-10 -6l19 -18l-52 -10l-10 -9v-18l-33 27l-45 18v43l-24 18zM711 1366v27l26 16l-8 37h8l19 18l10 -10l14 16l72 9l33 -15l18 -37l19 -18l6 -104l-68 -58l-61 6l-27 19l-49 76z" />
<glyph unicode="&#xd1;" d="M20 1059l62 37l45 43v-11l6 -8l19 33h36l7 12v-12l112 -25l55 11h50l63 -37l6 8l56 -43l24 10v-37l8 -6v-18l-8 8l-18 -16l-6 8l-27 -37l14 -43l13 10v-18l49 -49l12 -37h-12v-62l26 -43l11 -75l51 -74v-6l18 -9l-8 -61v-25l8 -12l-8 -18v-25l14 -8l19 -25h24l19 -18h26 l29 -10l14 -15l29 15l-10 37l-8 43l-19 24l8 62l-8 8h-6l25 18l-19 19l8 61v86l-8 27v24l8 11l-8 8l-6 43l-18 24l8 88l-27 25h-67l-27 18l-37 -6h-24l-19 43v51h8l11 11v14l-7 -4l-8 8l4 6l11 -10l24 29h70l24 14v-6h37l107 6h180l10 -6h27v-8l6 -11h18v-18l9 -8l10 8v18 l-62 -120h-8l-18 -17v-18l-43 6h-53l-33 -14v-29v-33l33 -53l-33 -33l-13 -45l19 -16l-25 -88l6 -52l13 -79l-19 -19v-110h-18l-6 -9v-18l24 -19l-8 -6l14 -18v-80l-6 -6l25 -37v-33l12 -28l15 -76l-15 -19l6 -8v-28l-37 -52h-14l-10 -6h-33l-61 25l-11 -10v10l-8 8h-18 l-19 86v10l-57 8l-29 7l-8 55l-6 -10l-10 34v19l16 18l27 -10l43 37l-43 43l-33 -12l-10 -25h-27v37l-18 18v49l-6 9h-11v18l11 -8l6 8l37 10l24 -28l-6 -33l6 -10l37 28v33l-18 35l-11 8h-14l-10 37l-19 18l-14 15l-29 16l-8 37l-18 51l10 10l-29 46l13 6l-45 43l-43 -62 l-19 37h-6l-12 6l-25 -61v-6l8 -9h-8v-34l19 -19v-45l-19 -16l19 -88l-11 -43v-15l17 -18l-6 -10l18 -15v-30l-12 -7l12 -8v-35l-18 -18l18 -88l100 -18h45l17 -7v7h26v-7h-8l-6 -8l6 -10v-104l-43 -27l-61 12h-183l9 6h-105l-51 -18l-51 27l-29 -9l-43 19v33l29 18v43 l94 43l-8 12h26l19 15v71l6 27v24l-6 7l-12 45l26 28v52l-14 16h6v88l-18 61l26 9l17 16l-31 70l6 94l8 10v-10l35 -14l18 14l-24 43l-12 -6l-7 43l-18 18l-6 105l-37 8l-27 6v12l-34 6h-27v11l-49 26v19zM123 1196l8 84l6 90l29 37l33 55h55l49 35l86 4l45 23l47 -2l4 4 l74 -39l8 -55l23 -17l20 17l62 -31l69 -62l9 -10h16l-4 -12l41 125l8 37l43 37l72 -13l24 -51l21 -29l-29 -67l-37 -31h17l32 -12h-14l-61 -53l-41 -7l-15 -45l-12 6l-33 -22h-45l-12 -12l-31 16l-35 -16l-51 16h-14l-68 18l-67 62l-37 41l-23 47l-110 -8l-9 -76l-16 -88 h-18l-17 -21l-14 21l-35 -12l-47 28zM395 737l11 -8l24 -18l19 26l26 -26v-6v67l-26 8l-19 -24h-35v-19zM727 588l45 131l6 -8l19 -129h-11l-8 -37l-18 -15zM735 903h6l13 -10v-8l-13 -6z" />
<glyph unicode="&#xd2;" d="M90 514v25h12l7 131l26 112l53 105h9l10 26v25h14l19 18v25l24 37v24l55 43l7 13l26 -19l99 62l32 24l43 -10h29v-6l14 -19h37l35 -18h14v-14l56 -19l24 6l70 -49l18 -18l70 -51l25 -99l43 -61v-14l-7 -11l43 -26l7 -105l18 -24v-52l-18 -28l18 -15v-61l-25 -18l-18 -37 v-25l10 -8v-37l-28 -43l-7 -61l-45 -52l-6 9l-43 -103l-31 -28l-6 10l-8 -10v-15h-16l-13 -10v-18l-6 10l-18 -25l-8 6l-19 -24l-16 -19l10 -6l-61 -12l-19 -25h-18l-6 -8l-64 -10h-78l-59 18l-62 52h-36l-43 34l-19 19l12 8v18l-36 7l-19 18l-33 80l9 6l-52 55l-18 58v28 l-18 17l18 35l-18 45l-7 43zM125 1556v74l29 51l75 50l107 -25h49l31 -25l6 7v-33l24 -19v-18l37 -31l9 -31l34 -32v-17l33 -18l45 -70l29 -18v-129l-29 -27l-33 -18l-55 18h-24l-9 27l-43 24h-24l-31 37v25l-43 43h-25l-8 26l-10 11l-14 18l-43 -10l-56 53h-18l-14 43z M258 688l18 -141l7 -156l18 -61h8l53 -51l-10 -9l54 -71l45 -33l-13 -10l37 -33l37 -19l-12 -8h18l8 8l43 -18l19 10l10 8h8l25 -8l61 33l19 37h8l-8 6l43 45v53l45 103v61l30 43v37l-14 43v61h8l-8 33l14 37l-24 19v75l-25 11l-45 94l-6 8l6 10l-35 25h-26l-19 18l13 8 l-27 43h-29l-51 19l-6 -8h-43l-74 -19h-32l-68 -53v-43l-37 -14l8 -13l-16 -18l-29 -57z" />
<glyph unicode="&#xd3;" d="M90 514v25h12l7 131l26 112l53 105h9l10 26v25h14l19 18v25l24 37v24l55 43l7 13l26 -19l99 62l32 24l43 -10h29v-6l14 -19h37l35 -18h14v-14l56 -19l24 6l70 -49l18 -18l70 -51l25 -99l43 -61v-14l-7 -11l43 -26l7 -105l18 -24v-52l-18 -28l18 -15v-61l-25 -18l-18 -37 v-25l10 -8v-37l-28 -43l-7 -61l-45 -52l-6 9l-43 -103l-31 -28l-6 10l-8 -10v-15h-16l-13 -10v-18l-6 10l-18 -25l-8 6l-19 -24l-16 -19l10 -6l-61 -12l-19 -25h-18l-6 -8l-64 -10h-78l-59 18l-62 52h-36l-43 34l-19 19l12 8v18l-36 7l-19 18l-33 80l9 6l-52 55l-18 58v28 l-18 17l18 35l-18 45l-7 43zM258 688l18 -141l7 -156l18 -61h8l53 -51l-10 -9l54 -71l45 -33l-13 -10l37 -33l37 -19l-12 -8h18l8 8l43 -18l19 10l10 8h8l25 -8l61 33l19 37h8l-8 6l43 45v53l45 103v61l30 43v37l-14 43v61h8l-8 33l14 37l-24 19v75l-25 11l-45 94l-6 8l6 10 l-35 25h-26l-19 18l13 8l-27 43h-29l-51 19l-6 -8h-43l-74 -19h-32l-68 -53v-43l-37 -14l8 -13l-16 -18l-29 -57zM426 1372l25 33l24 53l98 107l9 -13l10 13l-19 24h9l18 19v24l49 70l99 51l24 -14l94 -13l37 -32l19 -43h-11l-8 -11l19 -18l-25 -8l6 -25l-24 -18l6 -6v-19 h-43l-76 -69l-37 -11l-18 -26l-17 -17l11 -8l-56 -43l13 -37l-46 -43l9 -24l-19 -19l-33 -26l-24 8l-43 29l-12 -11h-19l-43 43h10l9 11l-19 26l10 25z" />
<glyph unicode="&#xd4;" d="M90 514v25h12l7 131l26 112l53 105h9l10 26v25h14l19 18v25l24 37v24l55 43l7 13l26 -19l99 62l32 24l43 -10h29v-6l14 -19h37l35 -18h14v-14l56 -19l24 6l70 -49l18 -18l70 -51l25 -99l43 -61v-14l-7 -11l43 -26l7 -105l18 -24v-52l-18 -28l18 -15v-61l-25 -18l-18 -37 v-25l10 -8v-37l-28 -43l-7 -61l-45 -52l-6 9l-43 -103l-31 -28l-6 10l-8 -10v-15h-16l-13 -10v-18l-6 10l-18 -25l-8 6l-19 -24l-16 -19l10 -6l-61 -12l-19 -25h-18l-6 -8l-64 -10h-78l-59 18l-62 52h-36l-43 34l-19 19l12 8v18l-36 7l-19 18l-33 80l9 6l-52 55l-18 58v28 l-18 17l18 35l-18 45l-7 43zM115 1174v24l28 27l9 43l51 61l-8 12v7l43 8l8 28l-15 15l33 -8l10 36h7l8 33l28 25l27 55h31l18 33h70l61 35l-6 18l17 -18l14 18l31 -18l6 8v10h18v-18l33 -17l53 17l70 -43h8v-19l16 -43h19l8 -51l37 -10h-8l-11 -6v-9l25 -10l55 -61v-27 l49 -67l13 -64l6 -6l-19 -18l13 -25v-19l-37 -18l-19 -25h13v-18h-13v10l-67 8l-51 17l-43 45h-37v18l-27 25v25l-86 69l-24 10l-45 27h-29v6l-14 19l-37 -25l-25 -27v-10l8 -8l-18 -16v-9h-8l-19 15l-18 -25l12 -8v-18l-55 -25v-37l-15 -18l15 -15l-33 -10v-33h-10l-15 -18 l-88 8v10l-16 15l-12 -7v17l-15 18zM258 688l18 -141l7 -156l18 -61h8l53 -51l-10 -9l54 -71l45 -33l-13 -10l37 -33l37 -19l-12 -8h18l8 8l43 -18l19 10l10 8h8l25 -8l61 33l19 37h8l-8 6l43 45v53l45 103v61l30 43v37l-14 43v61h8l-8 33l14 37l-24 19v75l-25 11l-45 94 l-6 8l6 10l-35 25h-26l-19 18l13 8l-27 43h-29l-51 19l-6 -8h-43l-74 -19h-32l-68 -53v-43l-37 -14l8 -13l-16 -18l-29 -57z" />
<glyph unicode="&#xd5;" d="M90 514v25h12l7 131l26 112l53 105h9l10 26v25h14l19 18v25l24 37v24l55 43l7 13l26 -19l99 62l32 24l43 -10h29v-6l14 -19h37l35 -18h14v-14l56 -19l24 6l70 -49l18 -18l70 -51l25 -99l43 -61v-14l-7 -11l43 -26l7 -105l18 -24v-52l-18 -28l18 -15v-61l-25 -18l-18 -37 v-25l10 -8v-37l-28 -43l-7 -61l-45 -52l-6 9l-43 -103l-31 -28l-6 10l-8 -10v-15h-16l-13 -10v-18l-6 10l-18 -25l-8 6l-19 -24l-16 -19l10 -6l-61 -12l-19 -25h-18l-6 -8l-64 -10h-78l-59 18l-62 52h-36l-43 34l-19 19l12 8v18l-36 7l-19 18l-33 80l9 6l-52 55l-18 58v28 l-18 17l18 35l-18 45l-7 43zM152 1196l8 84l6 90l29 37l32 55h56l49 35l86 4l45 23l47 -2l4 4l74 -39l8 -55l22 -17l21 17l61 -31l70 -62l8 -10h17l-4 -12l40 125l9 37l43 37l71 -13l25 -51l20 -29l-28 -67l-37 -31h16l33 -12h-14l-62 -53l-41 -7l-14 -45l-12 6l-33 -22h-45 l-12 -12l-31 16l-35 -16l-51 16h-15l-67 18l-68 62l-37 41l-22 47l-111 -8l-8 -76l-16 -88h-19l-16 -21l-14 21l-35 -12l-47 28zM258 688l18 -141l7 -156l18 -61h8l53 -51l-10 -9l54 -71l45 -33l-13 -10l37 -33l37 -19l-12 -8h18l8 8l43 -18l19 10l10 8h8l25 -8l61 33l19 37 h8l-8 6l43 45v53l45 103v61l30 43v37l-14 43v61h8l-8 33l14 37l-24 19v75l-25 11l-45 94l-6 8l6 10l-35 25h-26l-19 18l13 8l-27 43h-29l-51 19l-6 -8h-43l-74 -19h-32l-68 -53v-43l-37 -14l8 -13l-16 -18l-29 -57z" />
<glyph unicode="&#xd6;" d="M90 514v25h12l7 131l26 112l53 105h9l10 26v25h14l19 18v25l24 37v24l55 43l7 13l26 -19l99 62l32 24l43 -10h29v-6l14 -19h37l35 -18h14v-14l56 -19l24 6l70 -49l18 -18l70 -51l25 -99l43 -61v-14l-7 -11l43 -26l7 -105l18 -24v-52l-18 -28l18 -15v-61l-25 -18l-18 -37 v-25l10 -8v-37l-28 -43l-7 -61l-45 -52l-6 9l-43 -103l-31 -28l-6 10l-8 -10v-15h-16l-13 -10v-18l-6 10l-18 -25l-8 6l-19 -24l-16 -19l10 -6l-61 -12l-19 -25h-18l-6 -8l-64 -10h-78l-59 18l-62 52h-36l-43 34l-19 19l12 8v18l-36 7l-19 18l-33 80l9 6l-52 55l-18 58v28 l-18 17l18 35l-18 45l-7 43zM182 1358l25 37l104 18l62 -10l26 -51l-18 -37l10 -6l-24 -19l-19 -45l-10 -6l18 -18l-51 -11l-10 -8v-18l-33 26l-45 19v43l-24 18zM258 688l18 -141l7 -156l18 -61h8l53 -51l-10 -9l54 -71l45 -33l-13 -10l37 -33l37 -19l-12 -8h18l8 8l43 -18 l19 10l10 8h8l25 -8l61 33l19 37h8l-8 6l43 45v53l45 103v61l30 43v37l-14 43v61h8l-8 33l14 37l-24 19v75l-25 11l-45 94l-6 8l6 10l-35 25h-26l-19 18l13 8l-27 43h-29l-51 19l-6 -8h-43l-74 -19h-32l-68 -53v-43l-37 -14l8 -13l-16 -18l-29 -57zM659 1315v26l27 17l-8 37 h8l19 18l10 -10l14 16l72 8l33 -14l18 -37l18 -18l7 -105l-68 -57l-61 6l-27 19l-49 75z" />
<glyph unicode="&#xd8;" d="M-31 -307l25 76l26 26l11 43l51 62v37h6l12 30l43 64l25 61l37 35l14 27l37 86l6 18h12l7 14l18 56l-6 6l33 18l-9 8l33 62v18l29 6h8l35 80l33 37l12 51l25 25l-11 10l62 76l18 70l78 98l8 43l37 51v19h14l11 18l26 61l25 15v10l-8 8h18l14 17l-6 51l25 43l10 -6l51 67 v27l80 80h8l25 24v27l18 16l25 -6h18l43 -55l-6 -49l-10 -45l16 -19l-24 -30l-43 -37l6 -9l-33 -28l-10 -51l-25 -43l-8 8l-37 -33l-6 -98l-43 -43l-45 -88l-29 -15v-10l13 -8h-13l-14 -19v-24l-35 -43v-10l6 -9h-6l-8 -18l-29 -25l11 -8h-11l-8 -28l-18 -33l-17 -19 l-32 -43l-13 -24v-13l-14 -14v-29l-43 -75h-10l-19 -19v-6l11 -12l8 12l-62 -88l-8 -18l-18 -25l-19 -18v-37l-6 -33v-18l-8 8l-35 -43v-8l6 -11l-33 -32l-34 -99v-14l-52 -72l-12 -26l-33 -43l-16 -62l-27 -51l-34 -18l-33 -7l-99 -43v6l-32 11l6 8l-17 18v33l11 10z M90 514v25h12l7 131l26 112l53 105h9l10 26v25h14l19 18v25l24 37v24l55 43l7 13l26 -19l99 62l32 24l43 -10h29v-6l14 -19h37l35 -18h14v-14l56 -19l24 6l70 -49l18 -18l70 -51l25 -99l43 -61v-14l-7 -11l43 -26l7 -105l18 -24v-52l-18 -28l18 -15v-61l-25 -18l-18 -37v-25 l10 -8v-37l-28 -43l-7 -61l-45 -52l-6 9l-43 -103l-31 -28l-6 10l-8 -10v-15h-16l-13 -10v-18l-6 10l-18 -25l-8 6l-19 -24l-16 -19l10 -6l-61 -12l-19 -25h-18l-6 -8l-64 -10h-78l-59 18l-62 52h-36l-43 34l-19 19l12 8v18l-36 7l-19 18l-33 80l9 6l-52 55l-18 58v28 l-18 17l18 35l-18 45l-7 43zM258 688l18 -141l7 -156l18 -61h8l53 -51l-10 -9l54 -71l45 -33l-13 -10l37 -33l37 -19l-12 -8h18l8 8l43 -18l19 10l10 8h8l25 -8l61 33l19 37h8l-8 6l43 45v53l45 103v61l30 43v37l-14 43v61h8l-8 33l14 37l-24 19v75l-25 11l-45 94l-6 8l6 10 l-35 25h-26l-19 18l13 8l-27 43h-29l-51 19l-6 -8h-43l-74 -19h-32l-68 -53v-43l-37 -14l8 -13l-16 -18l-29 -57z" />
<glyph unicode="&#xd9;" d="M57 1118h11l8 10l16 15l8 -8h29l14 18v-10l37 -15l51 15l11 -8h6l18 18l45 -18h6l11 8l-11 10l43 -18l19 18l70 -10l53 -25v-78l-10 -10l-95 -18v12h-43l-26 -45l8 -53l18 -15l-8 -30l-35 -43l6 -7l-14 -18l8 -8l25 -25l-19 -88v-71l-14 -33l8 -10l17 -43l-11 -60h-6v-61 l17 -19l-11 -6l19 -18l-19 -19l19 -51l24 8l-6 -8l6 -10h19v-25l12 -8l-18 -18l6 -25v-18l55 -25l51 -12v-6l17 -19l131 6l51 13l53 61l-16 14l16 19h33l37 43l-10 10l-9 14l19 19l-10 12l-9 76l-18 18v62l12 -13l15 62v45l18 18l-18 25v37l-9 24l9 9l-9 10l-6 61h6l9 6 l-27 45l12 35l-8 -6l-6 6l2 8l12 -8l25 45l-10 43l-15 15l-12 28l-33 27h-71l-58 6l-18 37l6 6v19h12l25 43h51l18 18h19l16 -18l45 8l25 10h18v-10l52 -33l24 18h62l18 15h25l18 -8l33 -7l37 -36v-62l-95 -18l-28 18l-45 -18l-25 -25l10 -94l9 -62l6 -94h-6l-25 -45l16 -61 v-113l15 -16h-6l-9 -125l-10 -76l25 -35v-26h-6l-9 -35h-10l-18 -19v-26l-15 -19l-18 -57l-10 -29l-33 -24l-10 10l-15 -37l-12 8l-6 -8l-27 -24l-53 -13l-27 -30h-24v6l-25 24l-45 -14l-43 14h-53l-45 19v12l-49 6l-37 19l-33 86v8l-55 61l-25 70v192l37 35l-43 88l25 51 l-19 123h19v49l-19 45l8 7l-8 12v31l8 12l-8 6l8 12l-14 33v62l-31 43l-32 -25l-25 16l-61 9l8 6l-8 12zM125 1556v74l29 51l75 50l107 -25h49l31 -25l6 7v-33l24 -19v-18l37 -31l9 -31l34 -32v-17l33 -18l45 -70l29 -18v-129l-29 -27l-33 -18l-55 18h-24l-9 27l-43 24h-24 l-31 37v25l-43 43h-25l-8 26l-10 11l-14 18l-43 -10l-56 53h-18l-14 43zM702 422l43 -19v-8l9 -6l-45 -18z" />
<glyph unicode="&#xda;" d="M57 1118h11l8 10l16 15l8 -8h29l14 18v-10l37 -15l51 15l11 -8h6l18 18l45 -18h6l11 8l-11 10l43 -18l19 18l70 -10l53 -25v-78l-10 -10l-95 -18v12h-43l-26 -45l8 -53l18 -15l-8 -30l-35 -43l6 -7l-14 -18l8 -8l25 -25l-19 -88v-71l-14 -33l8 -10l17 -43l-11 -60h-6v-61 l17 -19l-11 -6l19 -18l-19 -19l19 -51l24 8l-6 -8l6 -10h19v-25l12 -8l-18 -18l6 -25v-18l55 -25l51 -12v-6l17 -19l131 6l51 13l53 61l-16 14l16 19h33l37 43l-10 10l-9 14l19 19l-10 12l-9 76l-18 18v62l12 -13l15 62v45l18 18l-18 25v37l-9 24l9 9l-9 10l-6 61h6l9 6 l-27 45l12 35l-8 -6l-6 6l2 8l12 -8l25 45l-10 43l-15 15l-12 28l-33 27h-71l-58 6l-18 37l6 6v19h12l25 43h51l18 18h19l16 -18l45 8l25 10h18v-10l52 -33l24 18h62l18 15h25l18 -8l33 -7l37 -36v-62l-95 -18l-28 18l-45 -18l-25 -25l10 -94l9 -62l6 -94h-6l-25 -45l16 -61 v-113l15 -16h-6l-9 -125l-10 -76l25 -35v-26h-6l-9 -35h-10l-18 -19v-26l-15 -19l-18 -57l-10 -29l-33 -24l-10 10l-15 -37l-12 8l-6 -8l-27 -24l-53 -13l-27 -30h-24v6l-25 24l-45 -14l-43 14h-53l-45 19v12l-49 6l-37 19l-33 86v8l-55 61l-25 70v192l37 35l-43 88l25 51 l-19 123h19v49l-19 45l8 7l-8 12v31l8 12l-8 6l8 12l-14 33v62l-31 43l-32 -25l-25 16l-61 9l8 6l-8 12zM467 1372l25 33l24 53l98 107l9 -13l10 13l-19 24h9l18 19v24l49 70l98 51l25 -14l94 -13l37 -32l19 -43h-11l-8 -11l19 -18l-25 -8l6 -25l-24 -18l6 -6v-19h-43 l-76 -69l-37 -11l-18 -26l-17 -17l10 -8l-55 -43l12 -37l-45 -43l9 -24l-19 -19l-33 -26l-24 8l-43 29l-12 -11h-19l-43 43h10l9 11l-19 26l10 25zM702 422l43 -19v-8l9 -6l-45 -18z" />
<glyph unicode="&#xdb;" d="M57 1118h11l8 10l16 15l8 -8h29l14 18v-10l37 -15l51 15l11 -8h6l18 18l45 -18h6l11 8l-11 10l43 -18l19 18l70 -10l53 -25v-78l-10 -10l-95 -18v12h-43l-26 -45l8 -53l18 -15l-8 -30l-35 -43l6 -7l-14 -18l8 -8l25 -25l-19 -88v-71l-14 -33l8 -10l17 -43l-11 -60h-6v-61 l17 -19l-11 -6l19 -18l-19 -19l19 -51l24 8l-6 -8l6 -10h19v-25l12 -8l-18 -18l6 -25v-18l55 -25l51 -12v-6l17 -19l131 6l51 13l53 61l-16 14l16 19h33l37 43l-10 10l-9 14l19 19l-10 12l-9 76l-18 18v62l12 -13l15 62v45l18 18l-18 25v37l-9 24l9 9l-9 10l-6 61h6l9 6 l-27 45l12 35l-8 -6l-6 6l2 8l12 -8l25 45l-10 43l-15 15l-12 28l-33 27h-71l-58 6l-18 37l6 6v19h12l25 43h51l18 18h19l16 -18l45 8l25 10h18v-10l52 -33l24 18h62l18 15h25l18 -8l33 -7l37 -36v-62l-95 -18l-28 18l-45 -18l-25 -25l10 -94l9 -62l6 -94h-6l-25 -45l16 -61 v-113l15 -16h-6l-9 -125l-10 -76l25 -35v-26h-6l-9 -35h-10l-18 -19v-26l-15 -19l-18 -57l-10 -29l-33 -24l-10 10l-15 -37l-12 8l-6 -8l-27 -24l-53 -13l-27 -30h-24v6l-25 24l-45 -14l-43 14h-53l-45 19v12l-49 6l-37 19l-33 86v8l-55 61l-25 70v192l37 35l-43 88l25 51 l-19 123h19v49l-19 45l8 7l-8 12v31l8 12l-8 6l8 12l-14 33v62l-31 43l-32 -25l-25 16l-61 9l8 6l-8 12zM125 1317v24l29 27l8 43l51 62l-8 12v6l43 8l8 29l-14 14l32 -8l11 37h6l8 33l29 24l26 55h31l18 33h70l62 35l-7 18l17 -18l14 18l31 -18l6 8v10h18v-18l33 -16l53 16 l70 -43h8v-18l17 -43h18l8 -52l37 -10h-8l-10 -6v-8l24 -10l56 -62v-26l49 -68l12 -64l6 -6l-18 -18l12 -25v-18l-37 -19l-18 -24h12v-19h-12v11l-68 8l-51 16l-43 45h-37v19l-27 24v25l-86 70l-24 10l-45 26h-29v7l-14 18l-37 -25l-25 -26v-10l9 -9l-19 -16v-8h-8l-19 14 l-18 -25l12 -8v-18l-55 -25v-37l-14 -18l14 -14l-33 -11v-32h-10l-14 -19l-88 8v11l-17 14l-12 -6v16l-14 19zM702 422l43 -19v-8l9 -6l-45 -18z" />
<glyph unicode="&#xdc;" d="M57 1118h11l8 10l16 15l8 -8h29l14 18v-10l37 -15l51 15l11 -8h6l18 18l45 -18h6l11 8l-11 10l43 -18l19 18l70 -10l53 -25v-78l-10 -10l-95 -18v12h-43l-26 -45l8 -53l18 -15l-8 -30l-35 -43l6 -7l-14 -18l8 -8l25 -25l-19 -88v-71l-14 -33l8 -10l17 -43l-11 -60h-6v-61 l17 -19l-11 -6l19 -18l-19 -19l19 -51l24 8l-6 -8l6 -10h19v-25l12 -8l-18 -18l6 -25v-18l55 -25l51 -12v-6l17 -19l131 6l51 13l53 61l-16 14l16 19h33l37 43l-10 10l-9 14l19 19l-10 12l-9 76l-18 18v62l12 -13l15 62v45l18 18l-18 25v37l-9 24l9 9l-9 10l-6 61h6l9 6 l-27 45l12 35l-8 -6l-6 6l2 8l12 -8l25 45l-10 43l-15 15l-12 28l-33 27h-71l-58 6l-18 37l6 6v19h12l25 43h51l18 18h19l16 -18l45 8l25 10h18v-10l52 -33l24 18h62l18 15h25l18 -8l33 -7l37 -36v-62l-95 -18l-28 18l-45 -18l-25 -25l10 -94l9 -62l6 -94h-6l-25 -45l16 -61 v-113l15 -16h-6l-9 -125l-10 -76l25 -35v-26h-6l-9 -35h-10l-18 -19v-26l-15 -19l-18 -57l-10 -29l-33 -24l-10 10l-15 -37l-12 8l-6 -8l-27 -24l-53 -13l-27 -30h-24v6l-25 24l-45 -14l-43 14h-53l-45 19v12l-49 6l-37 19l-33 86v8l-55 61l-25 70v192l37 35l-43 88l25 51 l-19 123h19v49l-19 45l8 7l-8 12v31l8 12l-8 6l8 12l-14 33v62l-31 43l-32 -25l-25 16l-61 9l8 6l-8 12zM213 1348l25 36l104 19l61 -10l27 -52l-18 -36l10 -7l-25 -18l-18 -45l-10 -6l18 -19l-51 -10l-10 -8v-18l-33 26l-45 19v43l-25 18zM690 1305v26l27 17l-8 36h8l18 19 l10 -10l15 16l71 8l33 -14l19 -37l18 -18l6 -105l-67 -57l-62 6l-26 18l-50 76zM702 422l43 -19v-8l9 -6l-45 -18z" />
<glyph unicode="&#xdf;" d="M178 -14v37l27 43l71 26l15 17v32l-15 19l9 61l-27 45l8 86l37 105v78l-27 16v18l-18 9v10l-10 8h10l18 68l-10 61v55v25l-8 18v27l18 16l-10 33l53 70l15 55h18l62 61h18l19 15l32 18h80l43 17h33l10 8l64 -15l30 -18l13 8l14 -18h29l14 -8l37 -25l35 -55l16 -25l-8 -8 l37 -25l6 -104l8 -12l-14 -15l6 -10l-25 -43l7 -8h-7l-10 -70l-33 -43h-18l-8 -10v-18h-11v-43l99 -70l-12 -6l36 -45v-17l9 -8l24 -43l-14 -18v-37l14 -19v-32l10 -11l-24 -51v-24l8 -25l-18 -31l-9 -24l-43 -51l-26 -43v-19l-11 8l-43 -32l-24 -13l-8 -14l-11 8l-75 -37 h-19l-12 -6l-86 19l-8 -13h-17l-8 29h-18l8 33l-14 18l-31 -18v-19l-14 -14h-11l-8 8l-16 -18l-8 10h-11l-8 -10l-18 -19l-43 19h-43h-131v10l-7 8zM371 395l18 -18v-6l8 -43v-70l17 -18v-35l18 -19l-24 -26l-19 -25l33 -18l43 -43h18l25 53h-6l-8 8l26 70l43 53h25l61 -10 l8 10l43 -43l13 -88l-56 -43l11 -10l59 -27l16 19h13v18l6 8l26 17l19 -25h16l8 8l-18 17v18l10 8h19l32 70l-18 16l12 27l-26 112l14 43l-86 62v18l-43 25l-14 -19l-13 13l-18 -19h-25l-18 25l-131 10l-33 27l-10 51l29 35l26 -10l43 18l76 10h55l43 27l6 -12l27 45l10 16 h8l35 37v33l-10 123l-25 26l-8 -8l-24 18l6 7l-6 8l-8 -11l8 -4l-19 15v10h-24l-64 8l-24 -18l-29 28l-25 -10l-26 19l-43 -45h-19l-24 -7l-8 -28h-11l-8 10v-37l-10 -6h-8l-17 -43l-8 -186v-43h33l18 -15v-18l-18 -19h-33l-18 -24l18 -80l8 -43z" />
<glyph unicode="&#xe0;" d="M90 221l27 45l-19 35l11 51l43 19l51 75l18 19h33l37 10v14l-70 19v18l-10 9l-33 71v43l-12 33v43l31 37l-13 8l19 16l-6 27h14l10 10l19 15h14l10 -7l51 35l19 15l18 -15l6 8l70 19l80 -12l6 -7l12 7l111 12v-12l88 -7l37 -18l-12 -6l36 -12h19l33 -52l10 -6h-10l-9 -10 l33 -33l12 -55v-242v-106l7 -43h-7l-12 -8l19 -35l10 -8h14v-11l19 -14l55 25l43 8h25v-8l18 -19l-18 -129l-11 -8v-29l-43 -43v-14l-119 -18l-26 18l-10 -12l-70 45l-25 43l-18 -19l-61 -8l-43 -35h-52l-18 -14h-70l-10 6l-6 -6l-45 -18l-19 18l-6 -12v12h-43l-12 -12 l-25 26l-75 -8l-80 80h-19v14l-24 19l6 24l-14 31zM111 1270v73l28 52l76 49l107 -25h49l30 -24l7 6v-33l24 -18v-19l37 -31l8 -30l35 -33v-16l33 -19l45 -69l28 -19v-129l-28 -27l-33 -18l-55 18h-25l-8 27l-43 25h-25l-30 37v24l-43 43h-25l-8 27l-10 10l-15 18l-43 -10 l-55 53h-18l-15 43zM283 258l8 -61l24 -25h25l18 -18h19v6l8 12h72l86 -12l32 37h37l52 51l-9 10l27 25h18l17 26h-29l-33 25l9 12l18 43l6 -12v18l-24 8v-8l-89 -18l-24 -6h-51v6h-29l-6 -6h-80l-16 -19l-11 8v-14l-6 -12l-12 12h-25l-8 -12h-16l-8 -25l14 -18zM297 545 l10 -27l131 -10l19 37h8l6 -10v-9l10 9l62 16l16 37h29l67 -10l19 36l26 17l31 -17v50l-24 36h-33l-29 19v18l-102 6l-17 19h-88l-18 -19l-35 9l-16 -33l16 -37l-8 -6l37 -70l-62 -55z" />
<glyph unicode="&#xe1;" d="M90 221l27 45l-19 35l11 51l43 19l51 75l18 19h33l37 10v14l-70 19v18l-10 9l-33 71v43l-12 33v43l31 37l-13 8l19 16l-6 27h14l10 10l19 15h14l10 -7l51 35l19 15l18 -15l6 8l70 19l80 -12l6 -7l12 7l111 12v-12l88 -7l37 -18l-12 -6l36 -12h19l33 -52l10 -6h-10l-9 -10 l33 -33l12 -55v-242v-106l7 -43h-7l-12 -8l19 -35l10 -8h14v-11l19 -14l55 25l43 8h25v-8l18 -19l-18 -129l-11 -8v-29l-43 -43v-14l-119 -18l-26 18l-10 -12l-70 45l-25 43l-18 -19l-61 -8l-43 -35h-52l-18 -14h-70l-10 6l-6 -6l-45 -18l-19 18l-6 -12v12h-43l-12 -12 l-25 26l-75 -8l-80 80h-19v14l-24 19l6 24l-14 31zM283 258l8 -61l24 -25h25l18 -18h19v6l8 12h72l86 -12l32 37h37l52 51l-9 10l27 25h18l17 26h-29l-33 25l9 12l18 43l6 -12v18l-24 8v-8l-89 -18l-24 -6h-51v6h-29l-6 -6h-80l-16 -19l-11 8v-14l-6 -12l-12 12h-25l-8 -12 h-16l-8 -25l14 -18zM297 545l10 -27l131 -10l19 37h8l6 -10v-9l10 9l62 16l16 37h29l67 -10l19 36l26 17l31 -17v50l-24 36h-33l-29 19v18l-102 6l-17 19h-88l-18 -19l-35 9l-16 -33l16 -37l-8 -6l37 -70l-62 -55zM416 1116l24 33l25 53l98 107l8 -13l11 13l-19 24h8l19 19 v24l49 70l98 51l25 -14l94 -13l37 -32l18 -43h-10l-8 -11l18 -18l-24 -8l6 -25l-25 -18l6 -6v-19h-43l-75 -69l-37 -11l-19 -26l-16 -17l10 -8l-55 -43l12 -37l-45 -43l8 -24l-18 -19l-33 -26l-24 8l-43 29l-13 -11h-18l-43 43h10l8 11l-18 26l10 25z" />
<glyph unicode="&#xe2;" d="M80 1030v25l29 26l8 43l51 62l-8 12v6l43 8l8 29l-14 14l32 -8l11 37h6l8 33l29 24l26 56h31l18 33h70l61 34l-6 19l17 -19l14 19l31 -19l6 9v10h18v-19l33 -16l53 16l70 -43h8v-18l17 -43h18l8 -51l37 -11h-8l-10 -6v-8l24 -10l55 -62v-26l50 -68l12 -63l6 -6l-18 -19 l12 -24v-19l-37 -18l-18 -25h12v-18h-12v10l-68 8l-51 17l-43 45h-37v18l-27 25v24l-86 70l-24 10l-45 27h-29v6l-14 18l-37 -24l-25 -27v-10l8 -8l-18 -17v-8h-8l-19 14l-18 -24l12 -8v-19l-55 -24v-37l-14 -19l14 -14l-33 -10v-33h-10l-14 -18l-88 8v10l-17 14l-12 -6v17 l-14 18zM90 221l27 45l-19 35l11 51l43 19l51 75l18 19h33l37 10v14l-70 19v18l-10 9l-33 71v43l-12 33v43l31 37l-13 8l19 16l-6 27h14l10 10l19 15h14l10 -7l51 35l19 15l18 -15l6 8l70 19l80 -12l6 -7l12 7l111 12v-12l88 -7l37 -18l-12 -6l36 -12h19l33 -52l10 -6h-10 l-9 -10l33 -33l12 -55v-242v-106l7 -43h-7l-12 -8l19 -35l10 -8h14v-11l19 -14l55 25l43 8h25v-8l18 -19l-18 -129l-11 -8v-29l-43 -43v-14l-119 -18l-26 18l-10 -12l-70 45l-25 43l-18 -19l-61 -8l-43 -35h-52l-18 -14h-70l-10 6l-6 -6l-45 -18l-19 18l-6 -12v12h-43 l-12 -12l-25 26l-75 -8l-80 80h-19v14l-24 19l6 24l-14 31zM283 258l8 -61l24 -25h25l18 -18h19v6l8 12h72l86 -12l32 37h37l52 51l-9 10l27 25h18l17 26h-29l-33 25l9 12l18 43l6 -12v18l-24 8v-8l-89 -18l-24 -6h-51v6h-29l-6 -6h-80l-16 -19l-11 8v-14l-6 -12l-12 12h-25 l-8 -12h-16l-8 -25l14 -18zM297 545l10 -27l131 -10l19 37h8l6 -10v-9l10 9l62 16l16 37h29l67 -10l19 36l26 17l31 -17v50l-24 36h-33l-29 19v18l-102 6l-17 19h-88l-18 -19l-35 9l-16 -33l16 -37l-8 -6l37 -70l-62 -55z" />
<glyph unicode="&#xe3;" d="M86 1022l8 84l6 90l29 37l33 55h55l49 35l86 4l45 23l47 -2l5 4l73 -39l8 -56l23 -16l20 16l62 -30l70 -62l8 -10h16l-4 -12l41 125l8 37l43 36l72 -12l24 -51l21 -29l-29 -67l-37 -31h17l33 -12h-15l-61 -54l-41 -6l-15 -45l-12 6l-33 -22h-45l-12 -12l-31 16l-35 -16 l-51 16h-14l-68 18l-67 62l-37 41l-23 47l-110 -8l-8 -76l-17 -88h-18l-17 -21l-14 21l-35 -12l-47 28zM90 221l27 45l-19 35l11 51l43 19l51 75l18 19h33l37 10v14l-70 19v18l-10 9l-33 71v43l-12 33v43l31 37l-13 8l19 16l-6 27h14l10 10l19 15h14l10 -7l51 35l19 15 l18 -15l6 8l70 19l80 -12l6 -7l12 7l111 12v-12l88 -7l37 -18l-12 -6l36 -12h19l33 -52l10 -6h-10l-9 -10l33 -33l12 -55v-242v-106l7 -43h-7l-12 -8l19 -35l10 -8h14v-11l19 -14l55 25l43 8h25v-8l18 -19l-18 -129l-11 -8v-29l-43 -43v-14l-119 -18l-26 18l-10 -12l-70 45 l-25 43l-18 -19l-61 -8l-43 -35h-52l-18 -14h-70l-10 6l-6 -6l-45 -18l-19 18l-6 -12v12h-43l-12 -12l-25 26l-75 -8l-80 80h-19v14l-24 19l6 24l-14 31zM283 258l8 -61l24 -25h25l18 -18h19v6l8 12h72l86 -12l32 37h37l52 51l-9 10l27 25h18l17 26h-29l-33 25l9 12l18 43 l6 -12v18l-24 8v-8l-89 -18l-24 -6h-51v6h-29l-6 -6h-80l-16 -19l-11 8v-14l-6 -12l-12 12h-25l-8 -12h-16l-8 -25l14 -18zM297 545l10 -27l131 -10l19 37h8l6 -10v-9l10 9l62 16l16 37h29l67 -10l19 36l26 17l31 -17v50l-24 36h-33l-29 19v18l-102 6l-17 19h-88l-18 -19 l-35 9l-16 -33l16 -37l-8 -6l37 -70l-62 -55z" />
<glyph unicode="&#xe4;" d="M66 221l26 45l-18 35l10 51l43 19l51 75l19 19h32l37 10v14l-69 19v18l-11 9l-32 71v43l-13 33v43l31 37l-12 8l18 16l-6 27h14l11 10l18 15h14l11 -7l51 35l18 15l19 -15l6 8l69 19l80 -12l6 -7l13 7l110 12v-12l88 -7l37 -18l-12 -6l37 -12h18l33 -52l10 -6h-10l-8 -10 l33 -33l12 -55v-242v-106l6 -43h-6l-12 -8l18 -35l10 -8h15v-11l18 -14l55 25l43 8h25v-8l18 -19l-18 -129l-10 -8v-29l-43 -43v-14l-119 -18l-27 18l-10 -12l-70 45l-24 43l-19 -19l-61 -8l-43 -35h-51l-19 -14h-69l-11 6l-6 -6l-45 -18l-18 18l-6 -12v12h-43l-13 -12 l-24 26l-76 -8l-80 80h-18v14l-25 19l6 24l-14 31zM115 1133l24 36l105 19l61 -10l27 -52l-19 -36l11 -7l-25 -18l-18 -45l-11 -6l19 -19l-51 -10l-11 -8v-19l-32 27l-45 19v43l-25 18zM258 258l8 -61l25 -25h24l19 -18h18v6l8 12h72l86 -12l33 37h37l51 51l-8 10l26 25h19 l16 26h-28l-33 25l8 12l18 43l7 -12v18l-25 8v-8l-88 -18l-25 -6h-51v6h-29l-6 -6h-80l-16 -19l-10 8v-14l-6 -12l-13 12h-24l-8 -12h-17l-8 -25l14 -18zM272 545l11 -27l131 -10l18 37h8l6 -10v-9l11 9l61 16l17 37h28l68 -10l18 36l27 17l31 -17v50l-25 36h-33l-28 19v18 l-103 6l-16 19h-88l-19 -19l-35 9l-16 -33l16 -37l-8 -6l37 -70l-61 -55zM592 1090v26l26 17l-8 36h8l19 19l10 -10l15 16l71 8l33 -14l18 -37l19 -18l6 -105l-68 -57l-61 6l-27 18l-49 76z" />
<glyph unicode="&#xe5;" d="M90 221l27 45l-19 35l11 51l43 19l51 75l18 19h33l37 10v14l-70 19v18l-10 9l-33 71v43l-12 33v43l31 37l-13 8l19 16l-6 27h14l10 10l19 15h14l10 -7l51 35l19 15l18 -15l6 8l70 19l80 -12l6 -7l12 7l111 12v-12l88 -7l37 -18l-12 -6l36 -12h19l33 -52l10 -6h-10l-9 -10 l33 -33l12 -55v-242v-106l7 -43h-7l-12 -8l19 -35l10 -8h14v-11l19 -14l55 25l43 8h25v-8l18 -19l-18 -129l-11 -8v-29l-43 -43v-14l-119 -18l-26 18l-10 -12l-70 45l-25 43l-18 -19l-61 -8l-43 -35h-52l-18 -14h-70l-10 6l-6 -6l-45 -18l-19 18l-6 -12v12h-43l-12 -12 l-25 26l-75 -8l-80 80h-19v14l-24 19l6 24l-14 31zM272 1231l9 61l18 19v6l-8 8l51 61l-8 27v17h33l26 55l43 6l19 18l61 9l19 10l6 -10h26l-8 -9v-10l70 -24l24 -52h11l18 -37l8 -6h19l-13 -55v-25l13 -8h16l-16 -24v-88l-27 -19v-16l8 -8l-37 -19l-14 -24l-18 -19l-99 -55 l-43 18l-14 -18l-43 12l-88 105l-10 32zM283 258l8 -61l24 -25h25l18 -18h19v6l8 12h72l86 -12l32 37h37l52 51l-9 10l27 25h18l17 26h-29l-33 25l9 12l18 43l6 -12v18l-24 8v-8l-89 -18l-24 -6h-51v6h-29l-6 -6h-80l-16 -19l-11 8v-14l-6 -12l-12 12h-25l-8 -12h-16l-8 -25 l14 -18zM297 545l10 -27l131 -10l19 37h8l6 -10v-9l10 9l62 16l16 37h29l67 -10l19 36l26 17l31 -17v50l-24 36h-33l-29 19v18l-102 6l-17 19h-88l-18 -19l-35 9l-16 -33l16 -37l-8 -6l37 -70l-62 -55zM446 1239l52 -51l18 18l25 17l-6 51h-19l-27 18l-24 8l-19 -26l19 -25 l-10 -10h-9zM471 1223v12h16v-12h-16zM471 1380l18 -26l9 8l-19 18h-8z" />
<glyph unicode="&#xe6;" d="M-115 221l27 45l-18 35l10 51l43 19l51 75l18 19h33l37 10v14l-70 19v18l-10 9l-33 71v43l-12 33v43l31 37l-12 8l18 16l-6 27h14l10 10l19 15h14l10 -7l52 35l18 15l18 -15l7 8l69 19l80 -12l6 -7l13 7l110 12v-12l88 -7l37 -18l-12 -6l37 -12h18l43 -58l33 25l8 -10 l25 28l18 -18l18 26l123 -8l121 -18l17 -19h26v-16l10 -8h27l16 -43l52 -43v-27l37 -71l24 -27l-10 -6l18 -27l-8 -10v-25h-10l-8 -37v-6l8 -8l-8 -43h-68v6l-18 8h-25l-12 -8l-51 -35l-62 43l-86 -26l-18 -25l-6 -6h-19v25l-27 18l-129 -10l11 -45l6 -43h-6l-13 -8l19 -35 l10 -8h14v-11l19 -14l55 25l43 8h25v-8l18 -19l-51 -98l2 -21q2 -2 7 -4t9 -6l13 -8l10 -10l45 24h68l26 19l25 55l43 25l55 51l33 10l35 -43l-6 -43l-37 -45l-19 -35l-49 -37l-27 -32l-104 -19l-27 -24h-43l-18 -19l-25 6l-28 19q-2 2 -4 6q-6 6 -5 6l-118 -18l-27 18 l-10 -12l-70 45l-24 43l-19 -19l-61 -8l-43 -35h-51l-19 -14h-70l-10 6l-6 -6l-45 -18l-18 18l-7 -12v12h-43l-12 -12l-24 26l-76 -8l-80 80h-18v14l-25 19l6 24l-14 31zM78 258l8 -61l25 -25h24l19 -18h18v6l8 12h72l86 -12l33 37h37l51 51l4 20q4 20 4 23l-8 98l-88 -12 l-25 -6h-51v6h-29l-6 -6h-80l-16 -19l-10 8v-14l-7 -12l-12 12h-24l-9 -12h-16l-8 -25l14 -18zM92 545l10 -27l131 -10l19 37h8l6 -10v-9l10 9l62 16l16 37h29l68 -10l18 36l27 17l30 -17v50l-24 36h-33l-29 19v18l-102 6l-16 19h-89l-18 -19l-35 9l-16 -33l16 -37l-8 -6 l37 -70l-62 -55zM641 526l18 -43l17 -8v-10h26l43 -8l43 22l21 10l16 -6l25 -26l18 18h15l18 27l10 -13h45l7 142l-43 61l-9 27l-10 -19h-6l-12 9v10l-49 -10l-19 -17l-8 8v9h-19l-6 10v6h-37l-24 -25l6 -36l-18 -15v-10l-7 -43q0 -2 -5 -9t-9 -16l-12 -20l-25 -16z" />
<glyph unicode="&#xe7;" d="M141 414v10l19 16v54l8 51l68 112l26 19l-8 10h8l19 33l43 24l10 29l14 14l-4 -2l-10 7l8 8l6 -13h12l7 13l98 24l6 -6l27 14l53 19l8 -8l6 18v-10l19 -8l80 -11h26l17 -14l32 6l64 -61h10l6 10l45 -35v-18l6 -8h19l-8 -11l8 -8l37 -35v-26l18 -17l-18 -26l6 -6h12 l-31 -80v-8l13 -11h-19l-61 -51l-62 8l-26 17l-19 -17l-24 11l-8 24v8l-11 11v51l62 69l-6 17l-56 37l-6 24l-80 27l-59 10l-10 -10l-43 -27l-43 -16h-27l-35 -33l-59 -61v-13l-29 -24l10 -8v-25h-10v-29l29 -121l8 -10h-8v-57l43 -80h33l45 -61l43 -19l61 -33l62 7l61 36h8 l6 -10l19 53h18l62 64l-11 6l105 37l69 -19v-55l-8 -24l19 -19l-37 -43l-25 -14l6 -12l-49 -62l-18 -14h-27l-16 -29h-8l-11 10l-26 -24h-33l-18 -29h-35l-27 -14l-35 6l-8 -6l-37 -19l-24 19l-6 -10l-19 16h-61l-45 27l-129 79l-27 25l-18 37l-25 43l-18 33l-7 -9l-26 27 l8 6v19l-8 12l-10 100zM354 8l17 86l32 51v19l37 18l37 35l6 -10l62 43h26l19 -19l61 13v-13l6 -6h27l-8 -8l26 -18h17v-11l33 -14h18v-29l37 -57l6 6v-43v-37h-6l-19 -100v-45v-72l-8 10l-16 -43h-19l-51 -79l8 -7l-36 -36l10 -9l-62 -67l-69 -55l-86 -19h-43l-56 98l29 95 h14l13 18l18 18l-12 7l18 18v27h27l25 24v29l10 8l-35 6l-8 10h-19l-6 27l-12 6h-19l-6 37l-18 19l10 6l-10 12z" />
<glyph unicode="&#xe8;" d="M63 1229v74l29 51l76 49l106 -25h50l30 -24l6 6v-33l25 -18v-19l37 -30l8 -31l35 -33v-16l33 -19l45 -69l28 -19v-129l-28 -26l-33 -19l-55 19h-25l-8 26l-43 25h-25l-30 37v24l-43 43h-25l-8 27l-10 10l-15 18l-43 -10l-55 53h-19l-14 43zM158 440v35l24 8l19 35v70h10 l33 69v19l55 43l68 33v28l43 25l8 -10l24 28l19 -18l18 26l123 -8l121 -18l16 -19h27v-16l10 -8h27l16 -43l51 -43v-27l37 -71l25 -27l-10 -6l18 -27l-8 -10v-25h-10l-9 -37v-6l9 -8l-9 -43h-67v6l-19 8h-24l-12 -8l-52 -35l-61 43l-86 -26l-19 -25l-6 -6h-18v25l-27 18 l-112 -12l-54 -17l-26 11l-6 6l-25 -25l25 -43l-19 -18l25 -33l-6 -10l32 -62l54 -26v-6l88 -37l24 -25h51v-8l11 -10l45 24h67l27 19l25 55l43 25l55 51l33 10l34 -43l-6 -43l-37 -45l-18 -35l-49 -37l-27 -32l-104 -19l-27 -24h-43l-18 -19l-25 6l-29 19l-120 12l-62 43 v14l-6 11h-18v18l-25 14l-12 11l-6 45l-45 32l-25 43l-10 62l-8 98zM375 526l18 -43l17 -8v-10h26l43 -8l43 22l21 10l16 -6l25 -26l18 18h14l19 27l10 -13h45l6 142l-43 61l-8 27l-10 -19h-6l-13 9v10l-49 -10l-18 -17l-8 8v9h-19l-6 10v6h-37l-24 -25l6 -36l-19 -15v-10 l-6 -43q0 -2 -5 -9t-9 -16l-12 -20l-25 -16z" />
<glyph unicode="&#xe9;" d="M158 440v35l24 8l19 35v70h10l33 69v19l55 43l68 33v28l43 25l8 -10l24 28l19 -18l18 26l123 -8l121 -18l16 -19h27v-16l10 -8h27l16 -43l51 -43v-27l37 -71l25 -27l-10 -6l18 -27l-8 -10v-25h-10l-9 -37v-6l9 -8l-9 -43h-67v6l-19 8h-24l-12 -8l-52 -35l-61 43l-86 -26 l-19 -25l-6 -6h-18v25l-27 18l-112 -12l-54 -17l-26 11l-6 6l-25 -25l25 -43l-19 -18l25 -33l-6 -10l32 -62l54 -26v-6l88 -37l24 -25h51v-8l11 -10l45 24h67l27 19l25 55l43 25l55 51l33 10l34 -43l-6 -43l-37 -45l-18 -35l-49 -37l-27 -32l-104 -19l-27 -24h-43l-18 -19 l-25 6l-29 19l-120 12l-62 43v14l-6 11h-18v18l-25 14l-12 11l-6 45l-45 32l-25 43l-10 62l-8 98zM375 526l18 -43l17 -8v-10h26l43 -8l43 22l21 10l16 -6l25 -26l18 18h14l19 27l10 -13h45l6 142l-43 61l-8 27l-10 -19h-6l-13 9v10l-49 -10l-18 -17l-8 8v9h-19l-6 10v6h-37 l-24 -25l6 -36l-19 -15v-10l-6 -43q0 -2 -5 -9t-9 -16l-12 -20l-25 -16zM553 1065l25 33l24 53l98 106l9 -12l10 12l-19 25h9l18 18v25l49 70l98 51l25 -14l94 -13l37 -33l19 -43h-11l-8 -10l19 -18l-25 -8l6 -25l-24 -18l6 -7v-18h-43l-76 -70l-37 -10l-18 -26l-17 -17 l10 -8l-55 -43l12 -37l-45 -43l9 -24l-19 -19l-33 -27l-24 9l-43 28l-12 -10h-19l-43 43h10l9 10l-19 27l10 25z" />
<glyph unicode="&#xea;" d="M135 918v24l29 27l8 43l51 61l-8 12v7l43 8l8 28l-14 15l33 -8l10 36h6l8 33l29 25l27 55h30l19 33h69l62 35l-6 18l16 -18l14 18l31 -18l6 8v10h19v-18l32 -17l54 17l69 -43h8v-19l17 -43h18l8 -51l37 -10h-8l-10 -6v-9l24 -10l56 -61v-27l49 -67l12 -64l6 -6l-18 -18 l12 -25v-19l-37 -18l-18 -25h12v-18h-12v10l-68 8l-51 17l-43 45h-37v18l-26 25v25l-86 69l-25 10l-45 27h-29v6l-14 19l-37 -25l-24 -27v-10l8 -8l-19 -16v-9h-8l-18 15l-19 -25l13 -8v-18l-56 -25v-37l-14 -18l14 -15l-33 -10v-33h-10l-14 -18l-88 8v10l-17 15l-12 -7v17 l-14 18zM158 440v35l24 8l19 35v70h10l33 69v19l55 43l68 33v28l43 25l8 -10l24 28l19 -18l18 26l123 -8l121 -18l16 -19h27v-16l10 -8h27l16 -43l51 -43v-27l37 -71l25 -27l-10 -6l18 -27l-8 -10v-25h-10l-9 -37v-6l9 -8l-9 -43h-67v6l-19 8h-24l-12 -8l-52 -35l-61 43 l-86 -26l-19 -25l-6 -6h-18v25l-27 18l-112 -12l-54 -17l-26 11l-6 6l-25 -25l25 -43l-19 -18l25 -33l-6 -10l32 -62l54 -26v-6l88 -37l24 -25h51v-8l11 -10l45 24h67l27 19l25 55l43 25l55 51l33 10l34 -43l-6 -43l-37 -45l-18 -35l-49 -37l-27 -32l-104 -19l-27 -24h-43 l-18 -19l-25 6l-29 19l-120 12l-62 43v14l-6 11h-18v18l-25 14l-12 11l-6 45l-45 32l-25 43l-10 62l-8 98zM375 526l18 -43l17 -8v-10h26l43 -8l43 22l21 10l16 -6l25 -26l18 18h14l19 27l10 -13h45l6 142l-43 61l-8 27l-10 -19h-6l-13 9v10l-49 -10l-18 -17l-8 8v9h-19 l-6 10v6h-37l-24 -25l6 -36l-19 -15v-10l-6 -43q0 -2 -5 -9t-9 -16l-12 -20l-25 -16z" />
<glyph unicode="&#xeb;" d="M158 440v35l24 8l19 35v70h10l33 69v19l55 43l68 33v28l43 25l8 -10l24 28l19 -18l18 26l123 -8l121 -18l16 -19h27v-16l10 -8h27l16 -43l51 -43v-27l37 -71l25 -27l-10 -6l18 -27l-8 -10v-25h-10l-9 -37v-6l9 -8l-9 -43h-67v6l-19 8h-24l-12 -8l-52 -35l-61 43l-86 -26 l-19 -25l-6 -6h-18v25l-27 18l-112 -12l-54 -17l-26 11l-6 6l-25 -25l25 -43l-19 -18l25 -33l-6 -10l32 -62l54 -26v-6l88 -37l24 -25h51v-8l11 -10l45 24h67l27 19l25 55l43 25l55 51l33 10l34 -43l-6 -43l-37 -45l-18 -35l-49 -37l-27 -32l-104 -19l-27 -24h-43l-18 -19 l-25 6l-29 19l-120 12l-62 43v14l-6 11h-18v18l-25 14l-12 11l-6 45l-45 32l-25 43l-10 62l-8 98zM211 1051l25 36l104 19l61 -10l27 -52l-18 -36l10 -7l-25 -18l-18 -45l-10 -6l18 -19l-51 -10l-10 -8v-18l-33 26l-45 19v43l-25 18zM375 526l18 -43l17 -8v-10h26l43 -8 l43 22l21 10l16 -6l25 -26l18 18h14l19 27l10 -13h45l6 142l-43 61l-8 27l-10 -19h-6l-13 9v10l-49 -10l-18 -17l-8 8v9h-19l-6 10v6h-37l-24 -25l6 -36l-19 -15v-10l-6 -43q0 -2 -5 -9t-9 -16l-12 -20l-25 -16zM688 1008v26l27 17l-8 36h8l18 19l10 -10l15 16l71 8l33 -14 l19 -37l18 -18l6 -105l-67 -57l-62 6l-26 18l-50 76z" />
<glyph unicode="&#xec;" d="M86 1219v73l29 51l75 50l107 -25h49l31 -25l6 7v-33l25 -19v-18l36 -31l9 -30l34 -33v-17l33 -18l45 -70l29 -18v-129l-29 -27l-33 -18l-55 18h-24l-9 27l-43 24h-24l-31 37v25l-43 43h-24l-9 27l-10 10l-14 18l-43 -10l-56 53h-18l-14 43zM94 63l10 62l46 27h49l26 18 l123 -8h94v57l-14 31h-18l8 14h10l6 -8l27 43l-8 8l18 131l-10 35l-8 156h8l10 45l8 35v8l-26 24l-25 -6l-55 -51l-17 25l-26 26h-51l-19 -18h-43l-35 43l11 12l-11 6l-16 25l8 63h25v17l88 -17l10 6v-6l76 -8l80 -10h18l8 -8l19 18l67 -10l37 -70v-198l6 -80v-62l-16 -32 l10 -132l6 -43l19 -55v-6l18 -18l43 10l51 8h123l51 -8l25 -43l-6 -29v-8l18 -19l-12 -32l-16 -35l-45 -19l-86 -8v8l-33 19l-37 -8h-62h-57l-10 -11l-19 19l-45 -19h-75l-54 -24l-26 16l-17 19l-8 -11l-149 11v8l-6 6l-11 -6l-45 6l-24 12z" />
<glyph unicode="&#xed;" d="M94 63l10 62l46 27h49l26 18l123 -8h94v57l-14 31h-18l8 14h10l6 -8l27 43l-8 8l18 131l-10 35l-8 156h8l10 45l8 35v8l-26 24l-25 -6l-55 -51l-17 25l-26 26h-51l-19 -18h-43l-35 43l11 12l-11 6l-16 25l8 63h25v17l88 -17l10 6v-6l76 -8l80 -10h18l8 -8l19 18l67 -10 l37 -70v-198l6 -80v-62l-16 -32l10 -132l6 -43l19 -55v-6l18 -18l43 10l51 8h123l51 -8l25 -43l-6 -29v-8l18 -19l-12 -32l-16 -35l-45 -19l-86 -8v8l-33 19l-37 -8h-62h-57l-10 -11l-19 19l-45 -19h-75l-54 -24l-26 16l-17 19l-8 -11l-149 11v8l-6 6l-11 -6l-45 6l-24 12z M442 1075l25 33l25 53l98 107l8 -13l10 13l-18 24h8l18 19v24l50 70l98 51l24 -14l95 -12l37 -33l18 -43h-10l-8 -11l18 -18l-25 -8l7 -25l-25 -18l6 -6v-19h-43l-76 -69l-37 -11l-18 -26l-16 -17l10 -8l-55 -43l12 -37l-45 -43l8 -24l-18 -19l-33 -26l-25 8l-43 29l-12 -11 h-18l-43 43h10l8 11l-18 26l10 25z" />
<glyph unicode="&#xee;" d="M2 969v24l29 27l8 43l51 61l-8 13v6l43 8l8 29l-14 14l33 -8l10 37h6l8 32l29 25l26 55h31l19 33h69l62 35l-6 18l16 -18l14 18l31 -18l6 8v10h19v-18l32 -17l54 17l69 -43h8v-19l17 -43h18l8 -51l37 -10h-8l-10 -6v-8l24 -11l56 -61v-27l49 -67l12 -64l6 -6l-18 -18 l12 -25v-18l-37 -19l-18 -24h12v-19h-12v10l-68 9l-51 16l-43 45h-37v19l-26 24v25l-86 69l-25 11l-45 26h-29v6l-14 19l-37 -25l-25 -26v-11l9 -8l-19 -16v-8h-8l-18 14l-19 -25l12 -8v-18l-55 -25v-37l-14 -18l14 -14l-33 -11v-33h-10l-14 -18l-88 8v10l-17 15l-12 -6v16 l-14 19zM135 63l10 62l45 27h50l26 18l123 -8h94v57l-14 31h-18l8 14h10l6 -8l27 43l-8 8l18 131l-10 35l-8 156h8l10 45l8 35v8l-26 24l-25 -6l-55 -51l-17 25l-26 26h-52l-18 -18h-43l-35 43l10 12l-10 6l-16 25l8 63h25v17l88 -17l10 6v-6l76 -8l80 -10h18l8 -8l19 18 l67 -10l37 -70v-198l6 -80v-62l-16 -32l10 -132l6 -43l19 -55v-6l18 -18l43 10l51 8h123l51 -8l25 -43l-6 -29v-8l18 -19l-12 -32l-16 -35l-45 -19l-87 -8v8l-32 19l-37 -8h-62h-57l-10 -11l-19 19l-45 -19h-75l-54 -24l-26 16l-17 19l-8 -11l-149 11v8l-7 6l-10 -6l-45 6 l-24 12z" />
<glyph unicode="&#xef;" d="M94 63l10 62l46 27h49l26 18l123 -8h94v57l-14 31h-18l8 14h10l6 -8l27 43l-8 8l18 131l-10 35l-8 156h8l10 45l8 35v8l-26 24l-25 -6l-55 -51l-17 25l-26 26h-51l-19 -18h-43l-35 43l11 12l-11 6l-16 25l8 63h25v17l88 -17l10 6v-6l76 -8l80 -10h18l8 -8l19 18l67 -10 l37 -70v-198l6 -80v-62l-16 -32l10 -132l6 -43l19 -55v-6l18 -18l43 10l51 8h123l51 -8l25 -43l-6 -29v-8l18 -19l-12 -32l-16 -35l-45 -19l-86 -8v8l-33 19l-37 -8h-62h-57l-10 -11l-19 19l-45 -19h-75l-54 -24l-26 16l-17 19l-8 -11l-149 11v8l-6 6l-11 -6l-45 6l-24 12z M129 1143l25 37l104 18l61 -10l27 -51l-18 -37l10 -6l-25 -19l-18 -45l-10 -6l18 -18l-51 -11l-10 -8v-18l-33 26l-45 19v43l-25 18zM606 1100v26l27 17l-8 37h8l18 18l11 -10l14 16l72 8l32 -14l19 -37l18 -18l6 -105l-67 -57l-62 6l-26 19l-50 75z" />
<glyph unicode="&#xf1;" d="M68 -2v43h6l18 43l27 25h49l55 26l25 -8l8 27l18 34v27l-8 6l27 31l-19 24l11 -10v115l-11 8l-8 25v112v62l-10 10l18 16v29l-51 6l-24 8v29l-88 57l-11 37l-8 37l51 49l80 -24l8 8v-8l43 -11l43 35h11l8 27l6 -27h18v-16l37 -33h33l10 -12h19v-25h76l55 43h24l9 8l53 35 l26 8l17 -14h16l10 6v8l43 -14l9 6h16l64 -49h16l70 -106h-11v-54l11 -51l24 -51v-18l-35 -43l11 -373l43 -29l8 10l53 -104l-35 -18l-8 -9l-29 27h-69h-49l-13 -8l-112 -10l-17 18h-69l-19 25l10 69l9 -8l10 8l33 10l141 7l14 18l-6 8h-8l14 19l-6 10l-27 88l9 49l24 27 l-24 34l10 27v19l-19 6l9 61l10 70l-29 43v43l-76 61l-26 8h-29l-24 -24l-62 -33h-33l-18 -37l8 -8l-51 -80v-24l-8 8h-19l-16 -27l6 -24l-6 6l-51 -119l6 -43l8 -37l10 -51l-24 -19v-34l24 -45l131 -7l19 19l6 -12h18l-36 -17l-17 -69l-51 -52l-43 19l-27 -10l-24 -9v9h-74 h-86l-8 10h-17l-18 -19l-27 19l-43 -10l-6 -9v-10l-26 19l-29 24l-8 -6h-6zM129 961l8 83l6 91l29 36l33 56h55l49 35l86 4l45 22l47 -2l5 4l73 -39l8 -55l23 -16l20 16l62 -31l70 -61l8 -10h16l-4 -13l41 125l8 37l43 37l72 -12l24 -51l21 -29l-29 -68l-37 -30h17l33 -13 h-15l-61 -53l-41 -6l-15 -45l-12 6l-33 -23h-45l-12 -12l-31 17l-34 -17l-52 17h-14l-68 18l-67 61l-37 41l-23 47l-110 -8l-8 -76l-17 -88h-18l-17 -20l-14 20l-35 -12l-47 29z" />
<glyph unicode="&#xf2;" d="M125 1229v74l29 51l75 49l107 -25h49l31 -24l6 6v-33l24 -18v-19l37 -30l9 -31l34 -33v-16l33 -19l45 -69l29 -19v-129l-29 -26l-33 -19l-55 19h-24l-9 26l-43 25h-24l-31 37v24l-43 43h-25l-8 27l-10 10l-14 18l-43 -10l-56 53h-18l-14 43zM172 266l10 86v19l8 6l-8 12 l15 51v105l36 61v15h7l18 55h12l6 6v18h9l34 43l89 80l51 8l10 7l43 18l104 -6l46 24l49 -8l45 -43l6 8h12l17 -18h26v-18l33 -33l10 8l51 -70l-8 -8l33 -43l18 -18l-6 -10l31 -33l12 -25v-12l6 -6l-18 -19l18 -24v-56l13 -32v-80l-19 -25l-18 -104v-19l-25 -14l-12 -12v-25 l-33 -37l8 -6l-26 -26l-68 -54l-12 -26l-76 -19l-61 -30h-19l13 6l-19 18l-104 -8h-80l-17 33l-61 18l-62 62l-49 43l-30 45h-15l-35 32l7 11l-15 24zM328 518l18 -61l10 -54l9 -102l24 -29v-14l80 -117l43 -6v-8h94l56 33h24l19 -19l24 31l-10 6l61 62v26l-6 6l25 29l18 14 v56l25 51l-25 61l-18 19l6 33l-14 16h-11l-6 70l-63 36v7l-35 12v6l-33 10l-43 33l6 -6l-43 -19l-8 -8l-10 8l-25 -18l-88 -6l-43 -37l-24 -33l-9 -55z" />
<glyph unicode="&#xf3;" d="M172 266l10 86v19l8 6l-8 12l15 51v105l36 61v15h7l18 55h12l6 6v18h9l34 43l89 80l51 8l10 7l43 18l104 -6l46 24l49 -8l45 -43l6 8h12l17 -18h26v-18l33 -33l10 8l51 -70l-8 -8l33 -43l18 -18l-6 -10l31 -33l12 -25v-12l6 -6l-18 -19l18 -24v-56l13 -32v-80l-19 -25 l-18 -104v-19l-25 -14l-12 -12v-25l-33 -37l8 -6l-26 -26l-68 -54l-12 -26l-76 -19l-61 -30h-19l13 6l-19 18l-104 -8h-80l-17 33l-61 18l-62 62l-49 43l-30 45h-15l-35 32l7 11l-15 24zM328 518l18 -61l10 -54l9 -102l24 -29v-14l80 -117l43 -6v-8h94l56 33h24l19 -19 l24 31l-10 6l61 62v26l-6 6l25 29l18 14v56l25 51l-25 61l-18 19l6 33l-14 16h-11l-6 70l-63 36v7l-35 12v6l-33 10l-43 33l6 -6l-43 -19l-8 -8l-10 8l-25 -18l-88 -6l-43 -37l-24 -33l-9 -55zM559 1065l25 33l24 53l99 106l8 -12l10 12l-18 25h8l18 18v25l49 70l99 51 l24 -14l94 -13l37 -33l19 -43h-11l-8 -10l19 -18l-25 -8l6 -25l-24 -18l6 -7v-18h-43l-76 -70l-37 -10l-18 -26l-17 -17l11 -8l-56 -43l13 -37l-45 -43l8 -24l-19 -19l-32 -27l-25 9l-43 28l-12 -10h-19l-43 43h10l9 10l-19 27l10 25z" />
<glyph unicode="&#xf4;" d="M172 266l10 86v19l8 6l-8 12l15 51v105l36 61v15h7l18 55h12l6 6v18h9l34 43l89 80l51 8l10 7l43 18l104 -6l46 24l49 -8l45 -43l6 8h12l17 -18h26v-18l33 -33l10 8l51 -70l-8 -8l33 -43l18 -18l-6 -10l31 -33l12 -25v-12l6 -6l-18 -19l18 -24v-56l13 -32v-80l-19 -25 l-18 -104v-19l-25 -14l-12 -12v-25l-33 -37l8 -6l-26 -26l-68 -54l-12 -26l-76 -19l-61 -30h-19l13 6l-19 18l-104 -8h-80l-17 33l-61 18l-62 62l-49 43l-30 45h-15l-35 32l7 11l-15 24zM172 918v24l29 27l8 43l51 61l-8 12v7l43 8l8 28l-14 15l33 -8l10 36h6l8 33l29 25 l26 55h31l19 33h69l62 35l-7 18l17 -18l14 18l31 -18l6 8v10h19v-18l32 -17l54 17l69 -43h8v-19l17 -43h18l8 -51l37 -10h-8l-10 -6v-9l24 -10l56 -61v-27l49 -67l12 -64l6 -6l-18 -18l12 -25v-19l-37 -18l-18 -25h12v-18h-12v10l-68 8l-51 17l-43 45h-37v18l-26 25v25 l-86 69l-25 10l-45 27h-29v6l-14 19l-37 -25l-25 -27v-10l9 -8l-19 -16v-9h-8l-18 15l-19 -25l12 -8v-18l-55 -25v-37l-14 -18l14 -15l-33 -10v-33h-10l-14 -18l-88 8v10l-17 15l-12 -7v17l-14 18zM328 518l18 -61l10 -54l9 -102l24 -29v-14l80 -117l43 -6v-8h94l56 33h24 l19 -19l24 31l-10 6l61 62v26l-6 6l25 29l18 14v56l25 51l-25 61l-18 19l6 33l-14 16h-11l-6 70l-63 36v7l-35 12v6l-33 10l-43 33l6 -6l-43 -19l-8 -8l-10 8l-25 -18l-88 -6l-43 -37l-24 -33l-9 -55z" />
<glyph unicode="&#xf5;" d="M172 266l10 86v19l8 6l-8 12l15 51v105l36 61v15h7l18 55h12l6 6v18h9l34 43l89 80l51 8l10 7l43 18l104 -6l46 24l49 -8l45 -43l6 8h12l17 -18h26v-18l33 -33l10 8l51 -70l-8 -8l33 -43l18 -18l-6 -10l31 -33l12 -25v-12l6 -6l-18 -19l18 -24v-56l13 -32v-80l-19 -25 l-18 -104v-19l-25 -14l-12 -12v-25l-33 -37l8 -6l-26 -26l-68 -54l-12 -26l-76 -19l-61 -30h-19l13 6l-19 18l-104 -8h-80l-17 33l-61 18l-62 62l-49 43l-30 45h-15l-35 32l7 11l-15 24zM190 909l9 84l6 90l28 37l33 56h56l49 34l86 4l45 23l47 -2l4 4l74 -39l8 -55l22 -17 l21 17l61 -31l70 -61l8 -11h17l-5 -12l41 125l9 37l43 37l71 -12l25 -52l20 -28l-28 -68l-37 -31h16l33 -12h-14l-62 -53l-41 -6l-14 -45l-12 6l-33 -23h-45l-13 -12l-30 16l-35 -16l-51 16h-15l-67 19l-68 61l-37 41l-22 47l-111 -8l-8 -76l-16 -88h-19l-16 -20l-14 20 l-35 -12l-47 29zM328 518l18 -61l10 -54l9 -102l24 -29v-14l80 -117l43 -6v-8h94l56 33h24l19 -19l24 31l-10 6l61 62v26l-6 6l25 29l18 14v56l25 51l-25 61l-18 19l6 33l-14 16h-11l-6 70l-63 36v7l-35 12v6l-33 10l-43 33l6 -6l-43 -19l-8 -8l-10 8l-25 -18l-88 -6 l-43 -37l-24 -33l-9 -55z" />
<glyph unicode="&#xf6;" d="M172 266l10 86v19l8 6l-8 12l15 51v105l36 61v15h7l18 55h12l6 6v18h9l34 43l89 80l51 8l10 7l43 18l104 -6l46 24l49 -8l45 -43l6 8h12l17 -18h26v-18l33 -33l10 8l51 -70l-8 -8l33 -43l18 -18l-6 -10l31 -33l12 -25v-12l6 -6l-18 -19l18 -24v-56l13 -32v-80l-19 -25 l-18 -104v-19l-25 -14l-12 -12v-25l-33 -37l8 -6l-26 -26l-68 -54l-12 -26l-76 -19l-61 -30h-19l13 6l-19 18l-104 -8h-80l-17 33l-61 18l-62 62l-49 43l-30 45h-15l-35 32l7 11l-15 24zM293 1081l24 37l105 19l61 -11l27 -51l-18 -37l10 -6l-25 -18l-18 -45l-10 -6l18 -19 l-51 -10l-10 -8v-19l-33 27l-45 18v43l-25 19zM328 518l18 -61l10 -54l9 -102l24 -29v-14l80 -117l43 -6v-8h94l56 33h24l19 -19l24 31l-10 6l61 62v26l-6 6l25 29l18 14v56l25 51l-25 61l-18 19l6 33l-14 16h-11l-6 70l-63 36v7l-35 12v6l-33 10l-43 33l6 -6l-43 -19l-8 -8 l-10 8l-25 -18l-88 -6l-43 -37l-24 -33l-9 -55zM770 1038v27l27 16l-9 37h9l18 19l10 -11l15 17l71 8l33 -14l19 -37l18 -19l6 -104l-67 -57l-62 6l-27 18l-49 76z" />
<glyph unicode="&#xf8;" d="M102 -307l25 76l27 26l10 43l51 62v37h6l12 30l43 64l25 61l37 35l14 27l37 86l6 18h13l6 14l18 56l-6 6l33 18l-8 8l32 62v18l29 6h8l35 80l33 37l12 51l25 25l-11 10l62 76l18 70l78 98l8 43l37 51v19h14l11 18l26 61l25 15v10l-8 8h18l15 17l-7 51l25 43l10 -6l51 67 v27l80 80h8l25 24v27l18 16l25 -6h18l43 -55l-6 -49l-10 -45l16 -19l-24 -30l-43 -37l6 -9l-33 -28l-10 -51l-25 -43l-8 8l-37 -33l-6 -98l-43 -43l-45 -88l-28 -15v-10l12 -8h-12l-15 -19v-24l-35 -43v-10l6 -9h-6l-8 -18l-29 -25l11 -8h-11l-8 -28l-18 -33l-17 -19 l-32 -43l-13 -24v-13l-14 -14v-29l-43 -75h-10l-19 -19v-6l11 -12l8 12l-62 -88l-8 -18l-18 -25l-19 -18v-37l-6 -33v-18l-8 8l-35 -43v-8l6 -11l-32 -32l-35 -99v-14l-51 -72l-13 -26l-33 -43l-16 -62l-27 -51l-34 -18l-33 -7l-98 -43v6l-33 11l6 8l-16 18v33l10 10z M172 266l10 86v19l8 6l-8 12l15 51v105l36 61v15h7l18 55h12l6 6v18h9l34 43l89 80l51 8l10 7l43 18l104 -6l46 24l49 -8l45 -43l6 8h12l17 -18h26v-18l33 -33l10 8l51 -70l-8 -8l33 -43l18 -18l-6 -10l31 -33l12 -25v-12l6 -6l-18 -19l18 -24v-56l13 -32v-80l-19 -25 l-18 -104v-19l-25 -14l-12 -12v-25l-33 -37l8 -6l-26 -26l-68 -54l-12 -26l-76 -19l-61 -30h-19l13 6l-19 18l-104 -8h-80l-17 33l-61 18l-62 62l-49 43l-30 45h-15l-35 32l7 11l-15 24zM328 518l18 -61l10 -54l9 -102l24 -29v-14l80 -117l43 -6v-8h94l56 33h24l19 -19 l24 31l-10 6l61 62v26l-6 6l25 29l18 14v56l25 51l-25 61l-18 19l6 33l-14 16h-11l-6 70l-63 36v7l-35 12v6l-33 10l-43 33l6 -6l-43 -19l-8 -8l-10 8l-25 -18l-88 -6l-43 -37l-24 -33l-9 -55z" />
<glyph unicode="&#xf9;" d="M-6 813l16 41l31 14l22 -4l46 8l4 -10l24 -31l6 7l-6 -4l-8 8l8 8l6 -12l9 18l71 -33h45l-12 -10l37 -18l18 -15l-10 -10l16 -33l-24 -88v-71v-250l8 -142l53 -32l8 6v-6l25 -13l37 -6l33 19l10 -13h25l79 80l45 51l7 74l36 14v35h7l26 51l-8 56l18 16v51l9 62l43 45 l-43 43l-158 6l-35 18l10 62l70 26l104 -8l33 -18l25 8h55l25 -27v-129v-36v-43v-52l8 -94l10 -123l-10 6v-32l18 -78v-8l43 -19h25l18 -24l19 -19h43l18 -18h25l8 -25v-69l-8 -11v-14h-6l-11 -18h-45l-6 6h-26l-11 -6l-32 -19h-29v6l-76 13l-43 18h-70v14l-28 29l-94 -10 v-8l-37 -19h-6l-9 8l-36 -26l-111 -25l-12 -8l-68 51h-45v19l-33 8h-35l7 10l-15 14l-10 123l-18 70l18 35v88v164v71l-18 43l-7 45l-20 27l-47 4l-23 -14l-30 12l-29 51zM102 1229v74l29 51l76 49l106 -25h49l31 -24l6 6v-33l25 -18v-19l37 -30l8 -31l35 -33v-16l33 -19 l45 -69l28 -19v-129l-28 -26l-33 -19l-55 19h-25l-8 26l-43 25h-25l-31 37v24l-43 43h-24l-8 27l-11 10l-14 18l-43 -10l-55 53h-19l-14 43z" />
<glyph unicode="&#xfa;" d="M-6 813l16 41l31 14l22 -4l46 8l4 -10l24 -31l6 7l-6 -4l-8 8l8 8l6 -12l9 18l71 -33h45l-12 -10l37 -18l18 -15l-10 -10l16 -33l-24 -88v-71v-250l8 -142l53 -32l8 6v-6l25 -13l37 -6l33 19l10 -13h25l79 80l45 51l7 74l36 14v35h7l26 51l-8 56l18 16v51l9 62l43 45 l-43 43l-158 6l-35 18l10 62l70 26l104 -8l33 -18l25 8h55l25 -27v-129v-36v-43v-52l8 -94l10 -123l-10 6v-32l18 -78v-8l43 -19h25l18 -24l19 -19h43l18 -18h25l8 -25v-69l-8 -11v-14h-6l-11 -18h-45l-6 6h-26l-11 -6l-32 -19h-29v6l-76 13l-43 18h-70v14l-28 29l-94 -10 v-8l-37 -19h-6l-9 8l-36 -26l-111 -25l-12 -8l-68 51h-45v19l-33 8h-35l7 10l-15 14l-10 123l-18 70l18 35v88v164v71l-18 43l-7 45l-20 27l-47 4l-23 -14l-30 12l-29 51zM385 1075l25 33l24 53l98 107l9 -13l10 13l-19 24h9l18 19v24l49 70l99 51l24 -14l94 -12l37 -33 l19 -43h-11l-8 -11l19 -18l-25 -8l6 -25l-24 -18l6 -6v-19h-43l-76 -69l-37 -11l-18 -26l-17 -17l11 -8l-56 -43l13 -37l-46 -43l9 -24l-19 -19l-33 -26l-24 8l-43 29l-12 -11h-19l-43 43h10l9 11l-19 26l10 25z" />
<glyph unicode="&#xfb;" d="M-6 813l16 41l31 14l22 -4l46 8l4 -10l24 -31l6 7l-6 -4l-8 8l8 8l6 -12l9 18l71 -33h45l-12 -10l37 -18l18 -15l-10 -10l16 -33l-24 -88v-71v-250l8 -142l53 -32l8 6v-6l25 -13l37 -6l33 19l10 -13h25l79 80l45 51l7 74l36 14v35h7l26 51l-8 56l18 16v51l9 62l43 45 l-43 43l-158 6l-35 18l10 62l70 26l104 -8l33 -18l25 8h55l25 -27v-129v-36v-43v-52l8 -94l10 -123l-10 6v-32l18 -78v-8l43 -19h25l18 -24l19 -19h43l18 -18h25l8 -25v-69l-8 -11v-14h-6l-11 -18h-45l-6 6h-26l-11 -6l-32 -19h-29v6l-76 13l-43 18h-70v14l-28 29l-94 -10 v-8l-37 -19h-6l-9 8l-36 -26l-111 -25l-12 -8l-68 51h-45v19l-33 8h-35l7 10l-15 14l-10 123l-18 70l18 35v88v164v71l-18 43l-7 45l-20 27l-47 4l-23 -14l-30 12l-29 51zM92 989v25l29 26l8 43l51 62l-8 12v6l43 8l8 29l-14 14l33 -8l10 37h6l8 33l29 24l27 56h30l19 33h69 l62 34l-6 19l16 -19l14 19l31 -19l6 9v10h19v-19l32 -16l54 16l69 -43h8v-18l17 -43h18l8 -51l37 -11h-8l-10 -6v-8l24 -10l56 -62v-26l49 -68l12 -63l6 -6l-18 -19l12 -24v-19l-37 -18l-18 -25h12v-18h-12v10l-68 8l-51 17l-43 45h-37v18l-26 25v24l-86 70l-25 10l-45 27 h-29v6l-14 18l-37 -24l-24 -27v-10l8 -8l-19 -17v-8h-8l-18 14l-19 -24l13 -8v-19l-56 -24v-37l-14 -19l14 -14l-33 -10v-33h-10l-14 -18l-88 8v10l-17 14l-12 -6v17l-14 18z" />
<glyph unicode="&#xfc;" d="M-6 813l16 41l31 14l22 -4l46 8l4 -10l24 -31l6 7l-6 -4l-8 8l8 8l6 -12l9 18l71 -33h45l-12 -10l37 -18l18 -15l-10 -10l16 -33l-24 -88v-71v-250l8 -142l53 -32l8 6v-6l25 -13l37 -6l33 19l10 -13h25l79 80l45 51l7 74l36 14v35h7l26 51l-8 56l18 16v51l9 62l43 45 l-43 43l-158 6l-35 18l10 62l70 26l104 -8l33 -18l25 8h55l25 -27v-129v-36v-43v-52l8 -94l10 -123l-10 6v-32l18 -78v-8l43 -19h25l18 -24l19 -19h43l18 -18h25l8 -25v-69l-8 -11v-14h-6l-11 -18h-45l-6 6h-26l-11 -6l-32 -19h-29v6l-76 13l-43 18h-70v14l-28 29l-94 -10 v-8l-37 -19h-6l-9 8l-36 -26l-111 -25l-12 -8l-68 51h-45v19l-33 8h-35l7 10l-15 14l-10 123l-18 70l18 35v88v164v71l-18 43l-7 45l-20 27l-47 4l-23 -14l-30 12l-29 51zM168 1133l25 36l104 19l61 -10l27 -52l-18 -36l10 -7l-25 -18l-18 -45l-10 -6l18 -19l-51 -10l-10 -8 v-19l-33 27l-45 19v43l-25 18zM645 1090v26l27 17l-8 36h8l18 19l10 -10l15 16l71 8l33 -14l19 -37l18 -18l6 -105l-67 -57l-62 6l-26 18l-50 76z" />
<glyph unicode="&#xff;" d="M98 -127l37 98l25 27h18l6 6l-6 -4l-8 8l8 6l6 -10l19 29l51 -10l10 -9h27l24 -24l-6 -10l49 -89h-6l-18 -18l-43 -43v-25l61 -26l15 -17l53 54l33 14l36 74l-6 6l31 37l37 43l8 51l-18 6h10v45l-10 53l-33 19v8l-10 6l-9 80l-43 61v9l7 10l-25 24l18 19l-43 76v37l-8 88 l-10 6h-18v18l-25 25l-8 45l-25 43v24l-37 13l-131 6l-6 37h-12l61 32l95 -26l45 18l34 8v-8l9 -6h10l18 14v-8l15 -6v-61l-7 -13l17 -32l-17 -19l17 -16l-10 -78l28 -16l33 -131l12 -27l6 8v-18l37 -19l15 -49v-8l-9 -10l19 -19v-33l18 -43h15l-6 -26l16 -19l33 19l28 26 l-10 7l19 18l8 61l10 43v27h6l37 105l27 24v51l34 62l-10 12l19 33l6 35l-33 51l-80 -6l-16 16l-8 51l18 19l25 -11l45 -8l34 -6h27v-12l6 -6h27l10 6h43l25 -19h45l18 19l17 -19h14v-43l-14 -14l-17 14h-37l11 13l-19 6h-24l-19 -51h-10l-8 -11v-14h-7l-28 -29l10 -43v-26 h-10l-17 -70l-28 -16l12 -62h-12l-25 -78l-18 -24v-10l10 -9l-25 -36l-36 -43l8 -19v-24h-8l-25 -76l6 -37l-16 -18l16 -19l-6 -24l-37 -86v-33l-51 -74l-16 -14l6 -11h-6l-9 -18v-25h-10l-18 -18v-8l10 -6h-10l-9 -13v-18l-6 12h-12l-25 -26l-61 -35h-61l-33 -19h-37 l-18 19l-76 18l-25 31l-10 -6v18l-18 19v-13h-15v13h6l9 6l-27 18v33l-6 10zM231 1092l25 36l104 19l62 -10l27 -52l-19 -36l10 -7l-24 -18l-19 -45l-10 -6l19 -19l-52 -10l-10 -8v-18l-33 26l-45 19v43l-24 18zM438 799l51 24l43 -24l-6 -27l-37 8l-24 19h-27zM709 1049v26 l26 17l-8 36h8l19 19l10 -10l14 16l72 8l33 -14l18 -37l19 -18l6 -105l-68 -57l-61 6l-27 18l-49 76z" />
<glyph unicode="&#x152;" d="M-133 627l18 35v112l19 33h6l29 29l26 51l6 43l37 94l43 18l-10 13h29l14 30l61 19l56 18v8l24 11l19 -19h24v8l8 -8l43 19l27 -11q8 0 19 3q10 0 20 1t23 3q27 2 59 6l10 10l131 -35l43 10h43h94l27 15h43l19 -25l34 -8h27l18 18l15 -18l43 25l71 -7l60 -28l10 -27 l19 -86v-76l14 -18v-107l18 -34l-32 -33l-29 6l-45 80l-6 61l-19 45l10 7v18l-10 8l-18 35l-33 27h-18l-7 24l-28 25l-8 -6l-43 36l6 7h-33l-16 -19l-89 -6l-18 -27h-76l-10 -10v-6h-18v6h-33l-37 -18v-226l-16 -24l16 -53l27 -45l53 -7v-8h51l25 43h30l33 27v61h10l15 33 v18l28 7h15l37 -33l6 8v-43l12 -61l6 -60l-24 -43v-61v-43l6 -37l12 -43v-27l-98 -43l-25 62v104l-27 33l-6 -6l-18 18l-156 6l-37 -43l19 -51l6 -80l-16 -18v-105l34 -43l-6 -51l-12 -6l37 -37l94 -8l25 -18l63 18l43 8h25v-8l73 -18l15 26l43 25v26h10l18 43l15 19l-6 53 l43 45v49l18 19v26h49l-2 6l6 9l9 -9l-13 -6l13 -8h24l19 -61v-19h-11l-26 -69l8 -166l-14 -19v-32l-13 8l-6 -43l-10 -27l-15 -18l-36 18h-62l-8 8l-53 -26l-33 -6l-27 18l-80 -12h-94h-123l-34 -6h-60l-53 -13l-27 31l-65 -16l-56 -13l-94 13l-18 18h-43l-94 86l-43 18v25 l-13 12h-16l10 6l-24 25l6 12l-43 43v15l-8 10l-11 27l-18 67h-6v19l-8 51l-11 -6v34h-8l8 138zM-2 645l10 -80l19 -26l6 -80l26 -25l-8 -8l19 -16v-9l-11 -10h19l6 -8l18 -18v-25l-8 -10l-10 -17v-28l37 -25h24l13 -24l24 -19v-18h19l43 -43l51 -15l24 6l27 -20l76 8l37 6 l18 19l-10 12l35 49v107v49l8 55l10 8v6l-10 11l-18 32l10 324v53l-10 121l-9 25h-67l-10 -6h-33h-37l-17 -7l-43 11v8l-32 6l-29 -25l-51 -8l-70 -67l-35 -88l-18 -17l-8 6l-6 -75v-56l6 -6v-18z" />
<glyph unicode="&#x153;" d="M-104 266l10 86v19l8 6l-8 12l14 51v105l37 61v15h6l19 55h12l6 6v18h8l35 43l88 80l51 8l11 7l43 18l104 -6l45 24l49 -8l45 -43l6 8h13l16 -18h27v-18l32 -33l11 8l14 -20l4 2v28l43 25l8 -10l25 28l18 -18l19 26l123 -8l120 -18l17 -19h26v-16l11 -8h26l17 -43l51 -43 v-27l37 -71l24 -27l-10 -6l19 -27l-9 -10v-25h-10l-8 -37v-6l8 -8l-8 -43h-68v6l-18 8h-25l-12 -8l-51 -35l-62 43l-86 -26l-18 -25l-6 -6h-19v25l-26 18l-25 -2v-53l-18 -25l-19 -104v-19l-24 -14l-13 -12v-13l74 -30l25 -25h51v-8l10 -10l45 24h68l26 19l25 55l43 25 l55 51l33 10l35 -43l-6 -43l-37 -45l-19 -35l-49 -37l-26 -32l-105 -19l-26 -24h-43l-19 -19l-24 6l-29 19l-121 12l-61 43v4l-43 -33l-13 -26l-75 -19l-62 -30h-18l12 6l-18 18l-105 -8h-80l-16 33l-62 18l-61 62l-49 43l-31 45h-14l-35 32l6 11l-14 24zM51 518l19 -61 l10 -54l8 -102l25 -29v-14l80 -117l43 -6v-8h94l55 33h25l18 -19l25 31l-11 6l21 21l-17 30l-10 62l-8 98l-35 51v35l25 8l18 35v70h10l23 49l-35 20v7l-35 12v6l-32 10l-43 33l6 -6l-43 -19l-8 -8l-11 8l-24 -18l-88 -6l-43 -37l-25 -33l-8 -55zM553 455l12 -33l-4 -29 l8 -28l17 16l16 41l-16 45zM676 616l26 -28l13 -25v-12l6 -6l-19 -19l19 -24v-41l37 18l20 10l17 -6l24 -26l19 18h14l18 27l11 -13h45l6 142l-43 61l-8 27l-11 -19h-6l-12 9v10l-49 -10l-19 -17l-8 8v9h-18l-6 10v6h-37l-25 -25l6 -36l-18 -15v-10v-8l-2 -2v-13z" />
<glyph unicode="&#x178;" d="M49 1104l8 45v16l131 19l129 8l37 25l105 -33l26 -10l7 -25v-19l36 -26l9 8l34 -43v-8l-16 -19h-63l-50 -51v-67l25 -29l25 -59l36 -29l52 -25l69 68h17l26 37v8l-8 10l18 19l-10 24l19 19l-9 8l33 49v18l-43 37l-51 6l-25 45l7 25v10l26 27l359 6v-6l18 -8l49 -35v-51 l-35 -13l-59 -16l-43 -45h-18l-25 -25l6 -24v-27h-35l-14 -24l-18 -19v-37l-19 -18l6 -6l19 -25l-33 -18l-16 -19v-18l-37 10l-9 -10v-14h-10l-8 -62l-16 -55v-33l-9 -10v-15l-10 7l-33 -43v-52h-10l-16 -43l16 -98v-76l10 -10l25 -51l27 -10l16 -15h125l33 -28h16l-6 -9 l6 -6l19 -55l-11 -25v-18h-14l-10 -18l-94 -9l-64 -6h-43l-6 6l-12 -6l-95 -10l-24 -8v8l-10 10l-19 -18l-26 18h-7l-10 -10v10l-8 6l-8 -6v-10h-29v10l-49 6h-94l-13 -6l-24 25l-37 51l37 70l24 28h156l45 6l10 113l19 43l14 19l-26 51l12 61l14 43l-26 80l-7 8l-10 37 l-45 25h-14l8 6l-18 31v24l-19 19l10 6l-10 8l10 10l-10 8l-6 37l-27 17l-37 77l-61 86l-68 19l-18 6l-14 18l-80 19l6 8zM221 1460l25 37l104 19l62 -11l26 -51l-18 -37l10 -6l-24 -18l-19 -45l-10 -7l18 -18l-51 -10l-10 -8v-19l-33 27l-45 18v43l-25 19zM698 1417v27 l27 16l-8 37h8l18 19l11 -11l14 17l72 8l32 -14l19 -37l18 -19l6 -104l-67 -58l-62 7l-26 18l-49 76z" />
<glyph unicode="&#x2c6;" d="M63 1061v24l29 27l8 43l52 62l-9 12v6l43 8l9 29l-15 14l33 -8l10 37h6l9 33l28 24l27 55h31l18 33h70l61 35l-6 18l16 -18l15 18l30 -18l7 8v10h18v-18l33 -16l53 16l70 -43h8v-18l16 -43h19l8 -52l37 -10h-9l-10 -6v-8l25 -10l55 -62v-26l49 -68l13 -64l6 -6l-19 -18 l13 -25v-18l-37 -19l-19 -24h13v-19h-13v11l-67 8l-52 16l-43 45h-36v19l-27 24v25l-86 70l-25 10l-45 26h-28v7l-15 18l-37 -25l-24 -26v-10l8 -9l-18 -16v-8h-9l-18 14l-18 -25l12 -8v-18l-55 -25v-37l-15 -18l15 -14l-33 -11v-32h-10l-15 -19l-88 8v11l-16 14l-13 -6v16 l-14 19z" />
<glyph unicode="&#x2dc;" d="M117 1094l8 84l6 90l29 37l33 55h55l49 35l86 4l45 22l47 -2l4 4l74 -39l8 -55l23 -16l20 16l62 -31l69 -61l8 -10h17l-4 -13l41 125l8 37l43 37l72 -12l24 -51l21 -29l-29 -68l-37 -30h16l33 -13h-14l-62 -53l-41 -6l-14 -45l-12 6l-33 -22h-45l-12 -13l-31 17l-35 -17 l-51 17h-14l-68 18l-67 62l-37 40l-23 48l-110 -9l-9 -75l-16 -88h-18l-17 -21l-14 21l-35 -13l-47 29z" />
<glyph unicode="&#x2000;" horiz-adv-x="884" />
<glyph unicode="&#x2001;" horiz-adv-x="1769" />
<glyph unicode="&#x2002;" horiz-adv-x="884" />
<glyph unicode="&#x2003;" horiz-adv-x="1769" />
<glyph unicode="&#x2004;" horiz-adv-x="589" />
<glyph unicode="&#x2005;" horiz-adv-x="442" />
<glyph unicode="&#x2006;" horiz-adv-x="294" />
<glyph unicode="&#x2007;" horiz-adv-x="294" />
<glyph unicode="&#x2008;" horiz-adv-x="221" />
<glyph unicode="&#x2009;" horiz-adv-x="353" />
<glyph unicode="&#x200a;" horiz-adv-x="98" />
<glyph unicode="&#x2010;" d="M47 469l43 76l78 53h80l31 8l12 8l33 -8l61 -18l10 -6h15l10 6l45 10h76h98h76l80 -16l24 16l150 -10l35 -6l16 -19l10 6l25 -24l-6 6l18 18l6 -6l-10 -8l10 -10h19l-11 -137l-8 -62l-37 -45l-43 -18h-24l-19 -17h-8l-10 10l-8 -10l-43 10l-95 19l-34 -12l-19 18l-33 -18 l-88 12l-28 -29l-52 10l-86 19l-26 -19l-25 7l-159 12l-58 6l-74 27l-30 34l-13 62v27z" />
<glyph unicode="&#x2011;" d="M47 469l43 76l78 53h80l31 8l12 8l33 -8l61 -18l10 -6h15l10 6l45 10h76h98h76l80 -16l24 16l150 -10l35 -6l16 -19l10 6l25 -24l-6 6l18 18l6 -6l-10 -8l10 -10h19l-11 -137l-8 -62l-37 -45l-43 -18h-24l-19 -17h-8l-10 10l-8 -10l-43 10l-95 19l-34 -12l-19 18l-33 -18 l-88 12l-28 -29l-52 10l-86 19l-26 -19l-25 7l-159 12l-58 6l-74 27l-30 34l-13 62v27z" />
<glyph unicode="&#x2012;" d="M47 469l43 76l78 53h80l31 8l12 8l33 -8l61 -18l10 -6h15l10 6l45 10h76h98h76l80 -16l24 16l150 -10l35 -6l16 -19l10 6l25 -24l-6 6l18 18l6 -6l-10 -8l10 -10h19l-11 -137l-8 -62l-37 -45l-43 -18h-24l-19 -17h-8l-10 10l-8 -10l-43 10l-95 19l-34 -12l-19 18l-33 -18 l-88 12l-28 -29l-52 10l-86 19l-26 -19l-25 7l-159 12l-58 6l-74 27l-30 34l-13 62v27z" />
<glyph unicode="&#x2013;" d="M47 469l43 76l78 53h80l31 8l12 8l33 -8l61 -18l10 -6h15l10 6l45 10h76h98h76l80 -16l24 16l150 -10l35 -6l16 -19l10 6l25 -24l-6 6l18 18l6 -6l-10 -8l10 -10h19l-11 -137l-8 -62l-37 -45l-43 -18h-24l-19 -17h-8l-10 10l-8 -10l-43 10l-95 19l-34 -12l-19 18l-33 -18 l-88 12l-28 -29l-52 10l-86 19l-26 -19l-25 7l-159 12l-58 6l-74 27l-30 34l-13 62v27z" />
<glyph unicode="&#x2014;" d="M-111 362l17 111l78 53h79l31 9l12 8l33 -8l164 -19l10 -6h15l10 6l45 10h76h262h76l161 -16l25 16l150 -10l34 -6l17 -18l10 6l25 -25l-7 6l19 19l6 -6l-10 -9l10 -10h18l-18 -127l-37 -45l-43 -18h-24l-19 -17h-8l-10 10l-9 -10l-43 10l-94 19l-116 -12l-19 18l-33 -18 l-88 12l-28 -29l-215 10l-86 19l-27 -19l-25 7l-262 12l-57 6l-74 27z" />
<glyph unicode="&#x2018;" d="M379 1157v35v29h6l14 79v37v58l7 -9l14 35h14l41 64l-6 4l29 31l-9 6l50 53l55 45l70 14h34l43 -77l-22 -76h-12l-9 -15l-16 -16l10 -4l-14 -14v-23h-21l-20 -18v-23l-8 -8l28 -4l7 -8h14l4 -21l10 -6h15l6 -29l14 -14l-8 -6l8 -10l21 -41l-15 -68l-26 -41v-14l-29 -17 l-29 -26l-6 8l-49 -35h-21l-14 15l-49 -11v11l-6 6h-21l6 6l-20 14h-14v8l-27 13h-14v22l-29 45z" />
<glyph unicode="&#x2019;" d="M399 1446l15 67l26 41v15l29 16l29 27l6 -8l49 34h20l15 -14l49 10v-10l6 -6h21l-7 -6l21 -15h14v-8l27 -12h14v-23l29 -45l6 4v-34v-29h-6l-14 -80v-37v-57l-7 8l-14 -35h-14l-41 -63l6 -4l-29 -31l8 -6l-49 -53l-55 -45l-70 -15h-34l-43 78l22 76h12l9 14l16 17l-10 4 l14 14v22h20l21 19v22l8 9l-29 4l-6 8h-14l-4 20l-10 7h-15l-6 28l-14 15l8 6l-8 10z" />
<glyph unicode="&#x201a;" d="M358 156l15 67l26 41v15l29 16l29 27l6 -9l49 35h20l15 -14l49 10v-10l6 -6h21l-7 -6l21 -15h14v-8l27 -12h14v-23l29 -45l6 4v-35v-28h-6l-14 -80v-37v-57l-7 8l-14 -35h-14l-41 -63l6 -5l-29 -30l8 -6l-49 -54l-55 -45l-70 -14h-34l-43 78l22 76h12l9 14l16 16l-10 4 l14 15v22h21l20 19v22l8 8l-28 4l-7 9h-14l-4 20l-10 6h-15l-6 29l-14 14l8 6l-8 11z" />
<glyph unicode="&#x201c;" d="M131 1157v35v29h6l15 79v37v58l6 -9l14 35h14l41 64l-6 4l29 31l-8 6l49 53l55 45l70 14h35l43 -77l-23 -76h-12l-8 -15l-17 -16l10 -4l-14 -14v-23h-20l-21 -18v-23l-8 -8l29 -4l6 -8h14l4 -21l10 -6h15l6 -29l14 -14l-8 -6l8 -10l21 -41l-15 -68l-26 -41v-14l-29 -17 l-29 -26l-6 8l-49 -35h-20l-15 15l-49 -11v11l-6 6h-20l6 6l-21 14h-14v8l-27 13h-14v22l-29 45zM571 1157v35v29h7l14 79v37v58l6 -9l14 35h15l41 64l-6 4l28 31l-8 6l49 53l55 45l70 14h35l43 -77l-23 -76h-12l-8 -15l-17 -16l11 -4l-15 -14v-23h-20l-21 -18v-23l-8 -8 l29 -4l6 -8h14l4 -21l11 -6h14l6 -29l15 -14l-9 -6l9 -10l20 -41l-14 -68l-27 -41v-14l-29 -17l-28 -26l-6 8l-50 -35h-20l-14 15l-50 -11v11l-6 6h-20l6 6l-20 14h-15v8l-26 13h-15v22l-28 45z" />
<glyph unicode="&#x201d;" d="M133 1446l14 67l27 41v15l29 16l28 27l7 -8l49 34h20l15 -14l49 10v-10l6 -6h20l-6 -6l21 -15h14v-8l27 -12h14v-23l29 -45l6 4v-34v-29h-6l-15 -80v-37v-57l-6 8l-14 -35h-15l-40 -63l6 -4l-29 -31l8 -6l-49 -53l-55 -45l-70 -15h-35l-43 78l23 76h12l8 14l17 17l-11 4 l15 14v22h20l21 19v22l8 9l-29 4l-6 8h-14l-4 20l-11 7h-14l-6 28l-14 15l8 6l-8 10zM573 1446l15 67l26 41v15l29 16l29 27l6 -8l49 34h21l14 -14l49 10v-10l6 -6h21l-7 -6l21 -15h14v-8l27 -12h14v-23l29 -45l6 4v-34v-29h-6l-14 -80v-37v-57l-7 8l-14 -35h-14l-41 -63 l6 -4l-29 -31l8 -6l-49 -53l-55 -45l-70 -15h-34l-43 78l22 76h12l9 14l16 17l-10 4l14 14v22h21l20 19v22l8 9l-28 4l-7 8h-14l-4 20l-10 7h-15l-6 28l-14 15l8 6l-8 10z" />
<glyph unicode="&#x201e;" d="M133 156l14 67l27 41v15l29 16l28 27l7 -9l49 35h20l15 -14l49 10v-10l6 -6h20l-6 -6l21 -15h14v-8l27 -12h14v-23l29 -45l6 4v-35v-28h-6l-15 -80v-37v-57l-6 8l-14 -35h-15l-40 -63l6 -5l-29 -30l8 -6l-49 -54l-55 -45l-70 -14h-35l-43 78l23 76h12l8 14l17 16l-11 4 l15 15v22h20l21 19v22l8 8l-29 4l-6 9h-14l-4 20l-11 6h-14l-6 29l-14 14l8 6l-8 11zM573 156l15 67l26 41v15l29 16l29 27l6 -9l49 35h21l14 -14l49 10v-10l6 -6h21l-7 -6l21 -15h14v-8l27 -12h14v-23l29 -45l6 4v-35v-28h-6l-14 -80v-37v-57l-7 8l-14 -35h-14l-41 -63 l6 -5l-29 -30l8 -6l-49 -54l-55 -45l-70 -14h-34l-43 78l22 76h12l9 14l16 16l-10 4l14 15v22h21l20 19v22l8 8l-28 4l-7 9h-14l-4 20l-10 6h-15l-6 29l-14 14l8 6l-8 11z" />
<glyph unicode="&#x2022;" d="M309 379h6v24l-6 95l43 80l62 45h14l29 24l59 19l10 -11h19l6 17l113 -49l43 -45l26 -25v-37l10 -6l19 -43l-29 -74v-43h-8l-6 -33v-24l-80 -37l-51 -37h-37l-6 -6l-19 16l-37 -16l-6 -8l-26 8l-43 43l-11 -8h-26l-25 33l-24 88z" />
<glyph unicode="&#x202f;" horiz-adv-x="353" />
<glyph unicode="&#x205f;" horiz-adv-x="442" />
<glyph unicode="&#xe000;" horiz-adv-x="829" d="M0 0v829h829v-829h-829z" />
</font>
</defs>
</svg>
